<?xml version="1.0" standalone="no"?>
<!DOCTYPE svg PUBLIC "-//W3C//DTD SVG 20010904//EN"
 "http://www.w3.org/TR/2001/REC-SVG-20010904/DTD/svg10.dtd">
<svg version="1.0" xmlns="http://www.w3.org/2000/svg"
 width="700.000000pt" height="700.000000pt" viewBox="0 0 700.000000 700.000000"
 preserveAspectRatio="xMidYMid meet">
<metadata>
Created by potrace 1.14, written by Peter Selinger 2001-2017
</metadata>
<g transform="translate(0.000000,700.000000) scale(0.100000,-0.100000)"
fill="#000000" stroke="none">
<path d="M2849 6323 c-1 -5 -1 -11 0 -15 2 -12 -27 -10 -34 2 -9 15 -25 12
-25 -6 0 -8 -5 -12 -10 -9 -6 4 -7 12 -3 18 5 9 3 9 -8 0 -8 -6 -31 -10 -51
-9 -21 1 -38 -1 -38 -5 0 -3 -7 -6 -15 -6 -8 0 -15 4 -15 8 0 5 -7 6 -15 3 -8
-4 -13 -10 -10 -14 3 -5 1 -11 -5 -15 -5 -3 -10 -1 -10 6 0 7 -4 8 -12 2 -7
-5 -23 -8 -35 -7 -14 1 -20 -3 -16 -13 4 -9 0 -11 -11 -7 -9 4 -16 1 -16 -6 0
-10 -4 -9 -16 0 -12 11 -15 11 -12 -1 2 -8 -4 -13 -14 -13 -10 1 -15 -2 -12
-7 3 -6 -6 -8 -20 -5 -18 3 -23 1 -19 -9 3 -10 -1 -13 -16 -10 -14 2 -21 -1
-21 -11 0 -8 -4 -12 -10 -9 -5 3 -10 2 -10 -4 0 -6 -7 -8 -15 -4 -9 3 -15 2
-13 -3 2 -5 0 -10 -4 -12 -19 -8 -68 -58 -68 -69 0 -7 -6 -12 -12 -11 -7 2
-12 -5 -12 -14 1 -10 -2 -15 -7 -13 -4 3 -11 -1 -16 -9 -4 -8 -12 -15 -18 -16
-5 -1 -9 -6 -7 -11 1 -5 -5 -9 -14 -9 -8 0 -13 -4 -10 -9 3 -5 -1 -11 -9 -15
-8 -3 -15 -10 -15 -16 0 -6 6 -8 13 -5 6 4 3 -1 -7 -9 -11 -9 -23 -16 -27 -16
-4 0 -6 -9 -4 -20 2 -11 1 -19 -3 -16 -4 2 -12 -7 -19 -20 -6 -13 -7 -22 -2
-18 5 3 6 -2 3 -10 -3 -9 -10 -14 -15 -11 -4 3 -6 -4 -4 -15 2 -11 0 -20 -5
-20 -7 0 -7 -21 0 -40 1 -3 1 -9 0 -15 -10 -46 -9 -59 2 -66 9 -6 8 -9 -6 -9
-16 0 -16 -2 -6 -16 11 -12 11 -15 0 -12 -7 2 -15 -3 -18 -11 -3 -10 0 -12 14
-7 17 7 17 6 -1 -14 -15 -16 -16 -23 -6 -33 10 -9 11 -8 5 8 l-7 20 16 -20
c14 -17 14 -22 1 -36 -13 -14 -13 -18 1 -29 10 -8 12 -17 6 -24 -6 -7 -6 -18
-1 -26 5 -8 5 -21 -1 -32 -7 -13 -6 -18 3 -18 10 0 10 -2 0 -9 -11 -6 -10 -9
5 -13 15 -4 18 -14 17 -46 0 -31 3 -39 13 -35 11 5 14 -1 10 -25 -4 -25 -1
-33 15 -38 15 -4 17 -8 8 -14 -10 -6 -9 -10 3 -16 8 -5 17 -18 19 -29 2 -11 9
-19 15 -18 7 2 10 -6 8 -17 -2 -13 2 -20 11 -20 8 0 12 -4 9 -10 -3 -5 -1 -10
4 -10 6 0 11 -7 11 -16 0 -8 5 -12 10 -9 6 3 10 -1 10 -10 0 -10 14 -30 30
-45 17 -15 30 -33 30 -40 0 -6 5 -8 10 -5 6 3 10 1 10 -5 0 -6 6 -8 13 -4 9 5
9 4 0 -6 -9 -10 -5 -19 20 -43 18 -17 31 -35 29 -41 -2 -6 0 -8 3 -4 8 8 65
-48 65 -63 0 -5 7 -9 16 -9 8 0 12 -4 9 -10 -3 -5 1 -10 10 -10 9 0 13 -4 10
-10 -3 -5 -1 -10 5 -10 17 0 40 -26 32 -35 -4 -5 1 -5 10 -2 10 3 17 3 16 -1
-3 -15 15 -42 29 -42 8 0 11 -4 8 -10 -3 -5 1 -10 9 -10 9 0 16 -6 16 -14 0
-8 7 -17 16 -20 8 -3 12 -10 9 -16 -3 -6 0 -7 9 -4 10 4 20 -3 27 -20 7 -14
19 -26 27 -26 8 0 12 -6 9 -14 -4 -11 -1 -13 10 -9 12 5 15 2 10 -10 -3 -9 -1
-19 5 -23 7 -4 8 -3 4 4 -4 7 -3 12 3 12 5 0 13 -9 16 -20 4 -11 10 -18 15
-15 12 7 51 -45 43 -59 -3 -6 -3 -8 1 -5 4 4 19 -4 33 -17 15 -14 39 -35 55
-47 15 -12 28 -28 28 -36 0 -8 3 -12 6 -8 11 10 47 -31 39 -44 -5 -7 -4 -10 2
-6 6 4 20 -5 33 -18 13 -13 27 -22 31 -19 5 3 6 -2 3 -10 -4 -10 -1 -16 8 -16
8 0 21 -11 28 -25 7 -13 18 -23 24 -22 6 1 10 -4 8 -10 -1 -7 2 -13 7 -13 14
0 71 -57 64 -64 -3 -3 1 -6 10 -6 10 0 25 -12 35 -27 9 -16 24 -29 31 -31 8
-2 23 -13 34 -25 11 -12 23 -21 28 -19 5 1 9 -5 9 -13 0 -8 6 -15 13 -15 17 0
47 -36 39 -46 -4 -4 -1 -4 6 0 7 4 15 1 18 -8 3 -9 10 -13 15 -10 5 3 9 0 9
-6 0 -14 20 -34 43 -43 9 -3 17 -11 17 -17 0 -5 5 -10 11 -10 5 0 7 6 3 13 -4
6 1 5 12 -4 16 -14 63 -24 50 -11 -6 6 57 67 67 64 4 -1 7 2 7 6 0 5 7 17 16
28 8 10 12 12 8 4 -5 -10 0 -9 14 4 12 11 22 26 22 34 0 12 3 12 16 2 8 -8 14
-9 13 -4 -4 21 2 35 11 29 9 -5 14 7 12 26 -1 4 6 6 16 5 10 0 16 5 14 13 -2
9 3 11 15 7 9 -4 15 -4 11 -1 -8 8 44 64 55 58 4 -2 7 1 7 7 0 15 25 40 41 40
7 0 10 3 7 6 -7 7 44 60 55 56 4 -1 7 5 7 14 0 10 6 14 15 10 8 -3 14 -2 14 2
-3 20 2 33 11 27 6 -3 10 0 10 8 0 8 7 18 16 21 8 3 12 11 9 16 -4 6 -3 10 2
9 18 -3 36 1 30 7 -7 8 17 34 32 34 6 0 11 7 11 15 0 8 7 15 15 15 8 0 14 3
13 8 -2 4 1 7 5 7 5 0 15 14 23 30 8 17 12 21 9 10 -6 -20 -6 -20 13 0 11 11
18 22 16 24 -2 2 11 15 28 28 18 12 28 23 24 23 -4 0 5 13 21 29 15 16 31 27
36 24 4 -2 7 3 7 12 0 9 4 14 9 10 5 -3 12 3 15 13 4 10 18 30 33 43 14 13 23
17 19 9 -4 -8 -1 -6 8 4 8 10 13 23 9 29 -3 6 -1 7 6 3 6 -4 14 0 17 9 4 9 13
14 20 11 8 -3 13 -2 13 2 -3 20 3 32 16 32 8 0 14 4 13 9 -4 11 59 71 66 64 3
-4 6 0 6 9 0 8 11 21 25 28 13 7 22 17 19 22 -3 4 0 8 6 8 6 0 9 4 6 9 -3 4 6
13 20 20 18 8 24 17 20 28 -5 13 -4 14 8 4 12 -10 14 -8 12 14 -2 14 -1 23 2
21 8 -8 43 14 37 24 -3 5 4 11 15 15 11 4 18 10 16 14 -3 4 8 18 25 31 16 14
29 31 29 38 0 7 3 11 8 9 4 -3 12 1 19 8 10 11 10 15 0 18 -7 3 -4 6 6 6 10 1
15 6 12 11 -3 6 -1 10 4 10 6 0 11 6 11 14 0 8 10 18 21 21 14 5 17 10 10 14
-8 5 -6 13 7 27 9 10 17 29 16 41 -1 12 3 20 7 17 5 -3 9 0 9 6 0 6 5 8 11 4
8 -4 8 -1 1 13 -11 19 2 58 17 49 4 -3 7 17 6 44 -1 28 3 48 9 47 5 -1 10 12
10 28 0 17 5 33 11 37 7 5 7 8 0 8 -6 0 -11 9 -12 20 -1 12 3 18 9 14 7 -4 7
0 0 12 -10 20 -5 47 7 39 5 -2 6 7 3 21 -3 16 1 30 9 35 12 7 12 9 0 9 -7 0
-11 6 -7 15 3 8 2 14 -2 14 -19 -3 -23 2 -12 16 10 12 10 15 0 15 -10 0 -10 3
0 15 7 8 8 15 3 15 -5 0 -10 12 -11 27 -1 15 -7 30 -13 34 -6 3 -10 9 -10 13
3 22 -1 35 -19 53 -14 15 -16 23 -7 26 7 3 5 6 -5 6 -9 1 -20 6 -24 13 -5 7
-2 9 7 4 8 -4 6 -1 -3 7 -10 8 -15 17 -11 21 4 4 -3 9 -15 13 -12 3 -22 12
-22 20 0 8 -4 11 -10 8 -5 -3 -10 -1 -10 6 0 15 -47 59 -54 51 -6 -5 -10 15
-6 33 1 5 -2 7 -6 3 -4 -4 -18 4 -31 18 -13 14 -32 26 -43 27 -15 1 -16 4 -8
15 6 7 7 12 2 11 -19 -3 -53 14 -47 24 4 6 0 8 -10 4 -10 -4 -17 -2 -17 4 0 6
-7 8 -16 5 -8 -3 -12 -2 -9 4 6 10 -7 14 -32 11 -7 -1 -10 4 -8 11 4 10 -4 13
-29 13 -25 -1 -33 2 -29 12 3 9 0 11 -10 7 -8 -3 -18 0 -22 6 -5 8 -11 8 -21
-1 -11 -9 -15 -8 -20 4 -3 9 -13 15 -22 15 -9 -1 -28 2 -41 6 -13 5 -21 4 -18
0 3 -5 -6 -9 -19 -9 -17 0 -23 4 -19 14 4 10 2 11 -7 4 -7 -5 -20 -9 -28 -8
-8 1 -24 -3 -35 -8 -18 -9 -19 -9 -6 7 12 14 12 16 -3 10 -10 -4 -16 -1 -16 7
0 8 -6 5 -15 -7 -8 -10 -15 -15 -15 -10 0 5 -8 2 -17 -5 -9 -8 -14 -9 -10 -3
4 7 -5 11 -23 11 -17 0 -30 -4 -30 -8 0 -5 -11 -4 -25 1 -20 7 -25 6 -25 -5 0
-8 -5 -15 -11 -15 -5 0 -7 6 -3 13 4 6 -2 3 -14 -7 -12 -11 -22 -16 -22 -11 0
4 -8 1 -17 -6 -9 -8 -14 -9 -10 -3 3 6 0 11 -8 11 -8 0 -13 -5 -12 -11 1 -6
-7 -11 -18 -11 -11 0 -27 -8 -36 -17 -9 -10 -19 -14 -23 -10 -4 4 -12 -1 -17
-11 -6 -9 -14 -15 -20 -12 -5 4 -9 1 -9 -4 0 -6 -7 -11 -16 -11 -10 0 -14 -5
-10 -16 3 -8 2 -12 -4 -9 -5 3 -19 -4 -30 -15 -11 -11 -25 -18 -31 -15 -5 4
-9 3 -8 -2 3 -18 -2 -33 -10 -30 -13 3 -58 -48 -53 -61 2 -7 -3 -10 -12 -6
-11 4 -16 1 -16 -10 0 -9 -7 -16 -15 -16 -8 0 -15 -4 -15 -10 0 -5 -12 -21
-27 -36 -16 -15 -22 -23 -15 -20 6 4 12 5 12 1 0 -3 -11 -10 -25 -15 -17 -6
-23 -14 -19 -25 11 -27 -55 -15 -74 13 -9 14 -21 21 -30 17 -13 -5 -13 -3 -1
12 9 11 10 14 2 9 -8 -4 -13 -2 -13 4 0 7 -7 9 -16 6 -14 -5 -15 -4 -4 9 9 11
9 15 1 15 -17 0 -41 26 -33 35 4 5 2 5 -5 2 -6 -4 -17 -1 -25 8 -31 34 -36 43
-30 51 4 4 1 4 -6 0 -7 -4 -15 -1 -18 8 -3 9 -13 16 -21 16 -10 0 -13 6 -9 16
3 8 2 13 -3 10 -12 -8 -52 34 -45 46 5 7 2 8 -5 4 -7 -5 -21 0 -32 10 -10 9
-19 13 -19 8 0 -5 -5 -1 -11 9 -6 9 -14 15 -20 12 -5 -4 -9 2 -9 12 0 14 -2
15 -9 4 -6 -9 -10 -10 -12 -2 -3 7 -14 13 -27 14 -12 0 -22 7 -22 14 0 6 -9
10 -20 8 -11 -2 -20 0 -20 5 0 4 -7 11 -16 14 -10 4 -13 2 -8 -7 6 -9 5 -9 -8
0 -8 7 -18 10 -21 6 -4 -3 -7 -2 -7 3 0 5 -20 9 -45 9 -25 0 -45 -4 -45 -9 0
-6 -7 -1 -15 10 -9 12 -14 14 -15 6 0 -7 -5 -10 -10 -7 -6 4 -8 11 -5 16 4 5
4 9 1 9 -3 0 -7 -3 -7 -7z"/>
<path d="M1458 5018 c-4 -8 -16 -18 -27 -21 -12 -3 -19 -1 -15 4 3 5 -2 6 -10
3 -9 -3 -16 -10 -16 -16 0 -5 -4 -6 -10 -3 -5 3 -10 1 -10 -5 0 -7 -7 -9 -16
-6 -11 4 -22 -1 -31 -14 -12 -17 -18 -18 -29 -9 -11 9 -14 8 -14 -5 0 -9 -8
-16 -20 -16 -11 0 -20 -7 -20 -16 0 -8 -4 -12 -10 -9 -5 3 -10 1 -10 -6 0 -7
-3 -10 -6 -6 -10 10 -32 -17 -26 -32 3 -8 1 -12 -5 -8 -5 4 -19 -1 -29 -9 -10
-9 -12 -12 -4 -8 13 7 13 5 1 -9 -7 -9 -17 -14 -22 -11 -5 3 -9 0 -9 -5 0 -14
-37 -51 -43 -45 -3 3 -8 0 -13 -7 -4 -8 -3 -10 4 -5 7 4 12 2 12 -3 0 -6 -4
-11 -10 -11 -5 0 -10 -7 -10 -15 0 -8 -4 -15 -10 -15 -5 0 -10 -7 -10 -16 0
-9 -5 -12 -12 -8 -7 4 -10 4 -6 -1 4 -4 2 -15 -5 -23 -10 -13 -9 -14 3 -7 13
8 13 6 1 -8 -7 -9 -17 -15 -20 -12 -4 2 -8 -2 -8 -10 0 -8 5 -11 11 -8 6 4 5
-1 -3 -10 -7 -9 -10 -17 -5 -17 4 0 -1 -7 -12 -16 -10 -8 -12 -12 -4 -8 12 6
13 4 3 -7 -7 -7 -13 -28 -13 -46 0 -18 -5 -33 -10 -33 -6 0 -9 -3 -9 -7 1 -5
0 -12 -1 -18 -2 -11 0 -341 2 -362 1 -7 5 -10 10 -7 7 5 13 -60 9 -95 -2 -7 2
-10 7 -7 12 7 23 -19 16 -38 -3 -7 2 -16 11 -20 10 -4 15 -12 11 -22 -3 -8 -2
-12 4 -9 6 3 10 -1 10 -9 0 -9 7 -16 15 -16 8 0 14 -3 14 -7 -4 -22 3 -33 19
-33 14 0 15 -2 2 -10 -11 -7 -11 -10 -2 -10 17 0 82 -66 74 -75 -4 -4 -2 -6 3
-5 21 5 36 0 30 -10 -3 -5 7 -16 22 -24 15 -8 24 -15 20 -16 -12 0 14 -23 45
-39 15 -8 25 -18 22 -23 -3 -4 5 -8 17 -8 12 0 19 -3 16 -7 -4 -3 3 -13 14
-21 17 -12 18 -16 8 -23 -9 -5 -10 -9 -3 -9 7 0 11 -11 10 -24 0 -14 -6 -22
-13 -19 -7 3 -15 -2 -19 -10 -3 -10 -12 -13 -22 -10 -12 5 -14 2 -9 -11 4 -9
3 -15 -2 -11 -6 3 -33 -19 -62 -49 -29 -30 -56 -53 -60 -50 -4 2 -10 -5 -14
-16 -4 -11 -11 -18 -16 -14 -5 3 -8 2 -7 -3 4 -13 -35 -53 -45 -46 -6 3 -7 1
-3 -5 3 -6 -2 -15 -11 -21 -10 -6 -13 -11 -7 -11 6 0 11 -7 11 -15 0 -12 -3
-12 -16 -2 -8 6 -12 7 -8 1 3 -6 -2 -16 -13 -24 -10 -7 -16 -19 -13 -26 2 -6
-4 -20 -14 -30 -11 -11 -19 -32 -18 -47 1 -18 -3 -26 -11 -23 -8 3 -11 -2 -9
-14 2 -11 -1 -22 -7 -26 -6 -4 -5 -10 3 -15 11 -7 11 -9 1 -9 -7 0 -11 -4 -7
-9 3 -5 0 -15 -7 -23 -10 -9 -13 -54 -12 -163 3 -219 2 -217 16 -209 7 5 9 2
5 -9 -3 -9 -1 -18 6 -21 9 -3 8 -7 -2 -14 -9 -7 -10 -12 -2 -16 6 -4 9 -11 6
-16 -3 -5 1 -14 8 -22 7 -7 12 -23 11 -35 -1 -12 2 -20 7 -18 11 7 22 -32 13
-46 -4 -7 -3 -9 4 -5 6 3 13 -3 17 -14 4 -11 11 -18 16 -15 8 6 13 -10 12 -41
0 -6 5 -11 11 -10 6 0 13 -3 15 -9 1 -5 20 -26 41 -46 21 -21 36 -40 32 -44
-4 -4 -2 -5 4 -3 6 2 25 -12 42 -30 17 -18 40 -34 51 -35 11 -1 18 -3 16 -5
-7 -8 25 -33 34 -27 5 3 13 0 17 -6 5 -8 3 -9 -6 -4 -9 6 -11 4 -5 -4 4 -7 18
-11 32 -8 17 3 23 1 19 -9 -3 -9 0 -11 11 -7 10 4 14 2 10 -4 -8 -13 35 -11
46 2 6 7 10 7 13 0 2 -5 30 -9 61 -9 32 1 64 -3 72 -10 12 -9 13 -8 7 2 -6 11
2 13 38 9 27 -2 47 1 50 7 3 7 5 6 5 -1 1 -9 8 -10 26 -3 14 5 25 6 25 2 0 -4
20 -7 44 -7 24 0 44 2 44 5 -1 21 6 26 35 24 17 -1 39 3 47 10 27 23 44 31 35
16 -6 -10 -4 -12 9 -7 10 4 20 7 22 7 3 0 3 4 0 9 -3 5 1 12 10 15 10 4 13 2
8 -7 -6 -9 -5 -9 8 0 8 7 19 9 23 5 5 -4 5 -1 1 6 -4 6 -2 12 3 12 20 0 26 4
44 27 10 13 23 21 28 18 5 -4 9 -1 9 5 0 6 5 8 10 5 6 -3 10 1 10 10 0 9 5 13
10 10 6 -3 13 1 16 9 3 8 21 24 40 36 23 13 33 24 28 33 -6 9 -5 9 8 0 17 -15
29 -7 21 13 -3 8 -1 14 4 12 5 -2 25 13 45 33 20 21 39 34 42 31 3 -3 6 2 6
11 0 10 5 17 10 17 14 0 50 37 42 44 -3 3 0 6 6 6 6 0 28 16 48 35 19 19 40
35 45 35 5 0 9 6 9 13 0 7 9 19 20 27 11 8 20 21 20 30 0 13 1 13 10 0 9 -13
14 -8 11 12 -1 14 80 78 92 71 7 -4 5 2 -3 12 -9 11 -10 16 -2 11 7 -4 12 -1
12 9 0 9 5 13 10 10 6 -3 10 1 10 9 0 10 7 13 20 11 12 -2 18 0 14 6 -3 5 10
25 30 44 20 18 36 38 36 44 0 6 5 11 11 11 5 0 7 -5 3 -12 -4 -7 -3 -8 4 -4 6
4 8 14 5 23 -4 10 -2 14 4 10 10 -6 43 26 43 44 0 5 4 8 9 5 5 -3 15 2 22 11
12 14 12 16 0 8 -10 -6 -12 -4 -7 4 5 7 15 10 23 7 8 -3 11 -1 8 4 -3 6 1 13
9 16 8 3 18 14 21 25 4 10 13 19 21 19 8 0 14 7 14 16 0 10 6 14 14 11 10 -4
13 -1 9 9 -3 9 1 14 12 14 9 0 13 5 10 10 -3 6 1 10 9 10 9 0 15 6 14 13 -2 6
3 11 10 9 6 -1 12 2 12 8 0 14 37 50 51 50 8 0 7 6 -2 17 -8 9 -9 14 -3 10 7
-4 17 0 24 8 7 8 16 12 21 9 5 -3 6 1 4 8 -3 8 1 22 10 33 15 20 15 20 9 0 -5
-18 -4 -18 6 -3 6 10 10 20 10 24 -2 9 34 33 42 28 4 -3 5 2 2 10 -4 11 2 19
17 25 13 5 21 10 16 10 -4 1 19 27 50 59 32 31 61 62 63 67 3 6 9 9 14 7 5 -2
6 4 3 13 -4 8 -2 15 3 15 17 0 11 25 -9 40 -11 7 -18 17 -15 22 3 4 -2 8 -10
8 -10 0 -16 9 -17 23 0 12 -3 17 -5 10 -7 -16 -44 16 -38 32 3 7 -5 15 -17 18
-14 4 -20 11 -16 21 4 9 3 15 -1 13 -10 -3 -82 70 -82 83 0 6 -4 9 -8 6 -5 -3
-14 4 -22 14 -8 10 -17 17 -22 14 -4 -3 -5 2 -2 10 3 9 1 16 -4 16 -11 0 -62
46 -62 55 0 9 -40 45 -40 38 0 -5 -5 0 -11 10 -6 9 -15 14 -21 11 -6 -4 -8 -2
-4 4 3 6 -29 45 -71 87 -43 43 -77 81 -76 86 2 4 -6 10 -16 14 -11 3 -26 17
-35 30 -9 14 -23 25 -31 25 -8 0 -15 7 -15 15 0 8 -9 19 -20 25 -11 6 -20 17
-20 25 0 8 -3 14 -7 14 -22 -4 -33 3 -33 19 0 11 -12 24 -26 30 -14 7 -22 17
-19 22 3 6 -1 10 -10 10 -9 0 -13 5 -10 10 6 9 -8 14 -28 11 -5 -1 -7 2 -5 6
5 10 -49 63 -56 55 -4 -3 -6 5 -6 17 0 12 -4 19 -10 16 -6 -3 -13 1 -16 9 -3
9 -12 16 -20 16 -13 0 -19 13 -15 33 1 5 -3 6 -8 3 -5 -4 -16 3 -24 14 -7 11
-17 17 -20 13 -4 -3 -7 1 -7 10 0 10 -4 17 -8 17 -13 0 -53 36 -47 42 3 2 -6
11 -20 18 -13 7 -27 22 -31 33 -5 16 -8 17 -15 6 -7 -11 -9 -11 -9 3 0 9 -5
20 -12 24 -7 5 -9 2 -4 -7 4 -8 1 -6 -7 3 -8 10 -18 14 -23 10 -4 -4 -2 1 5
11 12 15 12 17 0 12 -8 -3 -24 4 -36 15 -12 11 -27 20 -32 20 -5 0 -13 5 -17
12 -4 7 -3 8 4 4 7 -4 12 -2 12 4 0 6 -8 9 -18 6 -11 -4 -23 2 -32 14 -8 11
-20 20 -28 20 -7 0 -10 5 -6 12 5 8 2 9 -10 5 -10 -4 -19 -1 -22 8 -4 8 -10
13 -14 10 -5 -3 -15 2 -23 10 -9 8 -25 15 -36 15 -11 0 -23 5 -27 12 -5 7 -3
8 6 3 8 -5 11 -4 6 3 -3 6 -17 9 -30 6 -16 -3 -26 2 -30 12 -4 9 -13 14 -21
10 -8 -3 -15 0 -15 6 0 6 -6 5 -17 -3 -9 -8 -14 -9 -11 -4 9 15 -14 31 -42 29
-29 -2 -52 5 -46 15 6 9 -236 8 -251 -2 -6 -4 -13 -2 -15 5 -3 8 -6 7 -10 -4z"/>
<path d="M5551 5003 c-6 -10 -11 -13 -11 -7 0 15 -51 15 -69 0 -12 -8 -13 -8
-7 2 4 7 2 12 -6 12 -8 0 -20 -6 -27 -12 -11 -10 -12 -10 -7 -1 5 9 -1 12 -22
9 -16 -2 -34 -6 -40 -10 -6 -3 -13 -2 -16 3 -7 10 -25 9 -43 -2 -7 -5 -13 -4
-13 0 0 5 -9 9 -20 9 -11 0 -20 -4 -20 -9 0 -5 -7 -4 -15 3 -14 12 -19 7 -16
-13 1 -5 -3 -6 -9 -2 -5 3 -10 0 -10 -7 0 -10 -2 -10 -8 -1 -5 7 -13 9 -21 3
-8 -4 -20 -6 -28 -3 -8 3 -13 0 -11 -8 3 -12 -2 -15 -38 -18 -9 0 -12 -6 -8
-13 5 -8 0 -9 -14 -6 -12 4 -22 2 -22 -3 0 -6 -13 -15 -30 -20 -16 -6 -30 -15
-30 -20 0 -5 -7 -9 -16 -9 -8 0 -13 -4 -10 -8 3 -5 -6 -15 -19 -22 -13 -7 -22
-17 -19 -21 2 -4 0 -10 -6 -14 -5 -3 -10 0 -11 7 0 7 -5 2 -10 -11 -6 -15 -15
-21 -24 -17 -8 3 -14 2 -14 -2 3 -19 -2 -33 -10 -27 -6 3 -14 -3 -20 -13 -5
-10 -21 -24 -35 -32 -14 -7 -26 -19 -26 -26 0 -7 -5 -16 -12 -20 -7 -5 -8 -3
-3 7 5 8 -6 -1 -23 -20 -18 -18 -32 -38 -32 -45 0 -7 -3 -6 -9 2 -6 10 -10 8
-14 -8 -3 -13 -10 -19 -17 -15 -6 3 -9 3 -8 -2 4 -13 -49 -63 -58 -55 -4 4 -4
2 -1 -4 4 -7 -5 -19 -18 -28 -14 -10 -23 -22 -19 -28 4 -7 3 -8 -5 -4 -6 4
-14 0 -17 -9 -4 -9 -12 -14 -20 -11 -8 3 -11 -2 -9 -15 4 -18 2 -19 -12 -7
-11 8 -14 9 -10 1 5 -7 -5 -25 -23 -44 -16 -18 -30 -29 -30 -25 0 4 -11 -4
-24 -16 -13 -13 -21 -27 -18 -32 3 -5 -2 -7 -11 -3 -10 4 -16 2 -14 -6 1 -7
-4 -11 -10 -10 -7 2 -12 0 -12 -5 4 -21 -3 -31 -16 -26 -11 5 -13 2 -9 -10 4
-11 2 -16 -7 -14 -8 2 -13 -4 -13 -14 1 -11 -5 -15 -17 -13 -10 2 -18 1 -18
-3 3 -20 -3 -30 -18 -28 -12 1 -17 -5 -15 -16 2 -12 -4 -18 -17 -18 -15 0 -19
-5 -14 -17 5 -12 3 -14 -7 -8 -10 6 -12 4 -7 -7 4 -12 1 -14 -15 -10 -14 3
-19 1 -14 -6 4 -7 2 -12 -4 -12 -6 0 -8 -5 -4 -12 5 -8 2 -9 -10 -5 -14 6 -17
3 -12 -9 4 -12 2 -15 -9 -10 -8 3 -14 2 -14 -2 3 -20 -2 -33 -11 -27 -5 3 -10
1 -10 -5 0 -6 -5 -8 -12 -4 -8 5 -7 0 2 -11 9 -11 10 -16 3 -11 -8 4 -13 2
-13 -4 0 -6 -5 -8 -12 -4 -8 5 -9 2 -5 -9 4 -10 2 -16 -6 -14 -7 1 -11 -4 -9
-12 3 -12 1 -12 -14 0 -11 8 -15 9 -11 2 10 -16 -30 -56 -45 -47 -7 4 -8 3 -4
-4 8 -13 -34 -59 -49 -54 -5 2 -7 1 -3 -3 4 -4 -17 -31 -47 -60 -29 -29 -50
-57 -47 -61 4 -4 -1 -4 -11 -1 -12 5 -17 3 -15 -5 5 -13 -26 -48 -43 -48 -6 0
-9 -6 -6 -14 6 -16 -26 -50 -37 -39 -4 4 -4 -1 0 -11 5 -13 4 -17 -3 -13 -12
7 -24 -15 -28 -47 -1 -11 9 -31 22 -43 12 -13 23 -28 23 -34 0 -6 5 -7 10 -4
6 3 10 -4 10 -17 0 -18 2 -20 10 -8 9 13 10 13 11 0 1 -8 1 -19 0 -23 -1 -5 3
-6 9 -2 5 3 10 1 10 -5 0 -6 4 -9 9 -5 6 3 8 -4 6 -16 -4 -18 -2 -19 12 -7 12
9 15 9 9 1 -4 -7 -3 -13 3 -13 6 0 7 -7 4 -17 -4 -10 -2 -14 4 -10 11 7 55
-38 46 -47 -4 -3 1 -6 11 -6 9 0 14 -4 11 -10 -3 -5 1 -10 10 -10 9 0 13 -4
10 -10 -3 -5 1 -10 9 -10 9 0 16 -5 16 -11 0 -14 39 -49 54 -49 6 0 4 -5 -4
-10 -13 -8 -12 -10 3 -10 9 0 17 -4 17 -8 0 -5 11 -15 25 -22 14 -7 25 -19 25
-26 0 -6 11 -19 25 -28 15 -10 23 -22 19 -29 -4 -7 -4 -9 0 -6 11 11 98 -79
90 -92 -4 -8 -3 -9 4 -5 12 7 82 -56 82 -74 0 -5 3 -10 8 -10 13 0 62 -47 55
-54 -3 -3 5 -6 18 -6 19 0 21 -2 9 -10 -10 -6 -11 -10 -3 -10 17 0 84 -66 76
-74 -6 -6 12 -10 30 -7 4 0 6 -2 5 -6 -4 -11 73 -89 83 -86 5 2 6 -4 2 -13 -3
-9 0 -14 8 -12 8 2 13 -4 13 -14 -1 -10 2 -15 8 -12 5 3 25 -11 45 -33 20 -21
40 -37 44 -36 5 2 6 -4 2 -13 -3 -8 -1 -14 4 -12 13 4 73 -54 73 -72 0 -12 2
-12 9 -2 6 10 10 8 14 -8 4 -14 10 -19 18 -14 8 4 10 3 5 -5 -8 -12 33 -32 48
-23 5 3 6 0 3 -6 -9 -13 2 -44 13 -37 4 2 22 -9 40 -25 19 -17 38 -30 42 -30
5 0 6 -4 3 -10 -3 -6 1 -10 9 -10 31 0 56 -18 56 -40 0 -6 4 -9 9 -5 5 3 17
-3 27 -12 10 -10 20 -18 23 -18 3 0 4 -4 3 -10 -2 -5 -1 -7 3 -3 8 8 65 -11
65 -22 0 -5 14 -8 30 -8 19 1 36 -6 45 -18 9 -11 14 -14 15 -6 0 9 5 10 19 2
14 -7 21 -6 25 3 5 9 7 9 12 0 3 -7 12 -9 21 -6 8 3 19 0 24 -8 6 -10 9 -10 9
-1 0 17 20 15 41 -4 13 -12 19 -12 25 -3 4 8 3 10 -4 5 -7 -4 -12 -2 -12 3 0
14 13 14 28 -1 14 -14 45 -20 37 -8 -3 5 -1 11 5 15 5 3 10 -2 10 -12 0 -14 2
-15 9 -4 7 11 9 11 14 0 3 -9 6 -7 6 5 1 19 1 19 14 1 10 -12 16 -14 21 -7 4
7 12 12 17 12 6 0 8 -4 5 -8 -3 -5 1 -9 8 -9 8 0 12 6 10 12 -3 6 2 12 10 12
8 0 13 -4 10 -9 -3 -4 0 -8 5 -8 6 0 11 5 11 12 0 6 7 3 15 -8 15 -19 15 -19
8 1 -6 17 -4 18 8 8 12 -10 18 -10 27 -1 9 9 12 9 12 -2 0 -9 5 -8 16 6 8 10
13 14 10 7 -4 -6 -2 -14 4 -18 5 -3 10 -1 10 5 0 6 12 9 26 7 20 -3 37 6 68
36 23 22 40 44 38 49 -2 6 4 8 12 5 9 -4 15 -1 13 6 -1 7 6 11 15 11 10 -1 16
2 13 6 -3 4 2 13 10 20 8 7 15 19 15 27 0 8 5 11 10 8 6 -3 10 3 10 13 0 15 5
19 23 16 12 -2 16 -2 10 2 -7 3 -13 10 -13 15 0 6 5 7 10 4 6 -3 13 1 16 9 3
9 10 13 15 10 5 -3 6 1 3 9 -3 8 2 17 11 21 9 3 13 10 10 16 -3 5 -1 10 5 10
7 0 9 7 6 16 -6 15 -4 15 11 3 9 -8 14 -9 10 -2 -4 6 -3 14 3 18 5 3 10 11 10
16 0 6 -5 7 -12 3 -7 -4 -8 -3 -4 4 4 7 13 12 21 12 9 0 12 9 10 30 -2 16 1
33 7 36 7 5 8 2 3 -7 -5 -8 -4 -10 0 -6 13 11 15 38 3 31 -6 -4 -2 5 7 20 9
14 21 23 26 20 5 -3 9 0 9 5 0 6 -5 11 -11 11 -7 0 -8 5 -3 13 5 6 9 36 9 65
-1 28 3 52 7 52 4 0 4 7 1 17 -4 9 -2 14 3 10 12 -7 13 58 1 69 -12 12 -8 26
6 19 6 -4 4 0 -5 8 -20 16 -25 32 -7 21 8 -4 8 -1 2 12 -6 11 -9 32 -8 47 1
15 -2 30 -7 33 -4 3 -6 10 -3 15 20 32 2 91 -21 71 -5 -4 -2 1 5 11 11 14 11
17 0 17 -11 0 -11 2 1 10 10 6 11 10 3 10 -7 0 -13 9 -13 20 0 11 -4 20 -9 20
-6 0 -8 9 -6 20 3 13 -2 20 -13 21 -10 0 -12 3 -5 6 9 3 10 10 3 22 -5 10 -6
22 -2 26 4 3 2 6 -3 5 -6 -1 -17 -2 -25 -1 -13 1 -13 2 0 11 12 8 12 10 1 10
-8 0 -11 3 -8 6 4 4 -1 14 -11 23 -9 9 -23 28 -31 44 -8 15 -21 27 -28 27 -7
0 -17 8 -20 18 -10 25 -29 42 -47 42 -9 0 -15 4 -13 9 1 5 -1 8 -5 8 -4 -1
-14 7 -22 18 -9 11 -16 16 -16 11 0 -5 -8 0 -17 10 -10 11 -30 25 -45 33 -15
8 -25 17 -23 22 3 4 -1 10 -7 13 -10 5 -10 7 -1 12 7 3 9 12 6 21 -4 11 -3 14
6 9 8 -5 14 -1 18 13 3 11 9 19 13 16 5 -3 11 4 15 15 3 11 11 20 17 20 6 0 5
-7 -3 -17 -7 -10 8 3 35 30 26 26 52 47 58 47 6 0 9 3 6 6 -3 3 15 27 40 54
61 63 83 90 75 90 -4 0 1 6 11 13 9 7 18 23 19 35 1 12 6 21 12 18 7 -2 10 8
9 25 -1 16 2 26 7 23 5 -3 9 0 9 5 0 21 2 26 12 39 8 8 7 12 -3 12 -11 0 -11
2 -1 9 7 4 12 14 10 22 -2 8 2 13 8 12 11 -2 11 38 -1 56 -3 6 -2 11 2 11 11
0 10 111 0 128 -5 6 -4 12 1 12 11 0 10 50 -1 68 -5 7 -3 12 5 12 9 0 9 3 -2
10 -8 5 -10 10 -4 10 12 0 12 49 0 68 -4 7 -3 12 2 12 5 0 9 13 8 30 -1 16 -4
30 -9 30 -4 0 -6 6 -5 13 2 6 -4 11 -12 9 -12 -3 -13 -1 -2 9 14 15 17 33 3
25 -4 -3 -7 6 -5 20 1 14 -4 28 -11 30 -8 3 -12 11 -9 19 3 7 -2 19 -10 28 -9
9 -16 22 -16 30 0 8 -7 17 -15 21 -9 3 -12 12 -8 22 4 12 3 15 -5 10 -7 -4
-12 -1 -12 6 0 8 -7 23 -16 34 -8 10 -12 13 -8 5 5 -9 3 -12 -4 -7 -7 4 -12
14 -12 22 0 8 -7 17 -16 21 -8 3 -13 12 -10 19 3 8 2 13 -2 13 -23 -4 -34 3
-28 17 6 15 4 15 -11 3 -11 -9 -14 -10 -9 -1 4 7 2 12 -4 12 -6 0 -8 5 -4 12
4 7 3 8 -5 4 -6 -4 -14 0 -17 8 -3 9 -13 16 -21 16 -8 0 -11 5 -8 10 3 6 -1
10 -9 10 -9 0 -16 6 -16 13 0 8 -4 7 -10 -3 -8 -13 -10 -12 -10 3 0 10 -4 16
-9 13 -5 -3 -12 1 -15 10 -3 8 -10 12 -16 9 -5 -3 -16 -3 -22 2 -20 12 -38 12
-38 1 0 -6 -6 -5 -15 2 -12 10 -15 10 -15 -1 0 -12 -2 -12 -9 -1 -4 8 -12 14
-16 14 -4 0 -12 -6 -16 -14 -7 -10 -9 -10 -9 0 0 9 -5 10 -16 4 -20 -11 -56
-4 -48 9 3 5 3 9 0 9 -3 0 -10 -8 -15 -17z m369 -2767 c0 -2 -8 -10 -17 -17
-16 -13 -17 -12 -4 4 13 16 21 21 21 13z"/>
<path d="M4450 4399 c0 -5 5 -7 10 -4 6 3 10 8 10 11 0 2 -4 4 -10 4 -5 0 -10
-5 -10 -11z"/>
<path d="M1189 3393 c-13 -16 -12 -17 4 -4 9 7 17 15 17 17 0 8 -8 3 -21 -13z"/>
<path d="M3545 3320 c5 -9 1 -10 -14 -5 -16 5 -20 3 -15 -9 4 -11 0 -14 -15
-11 -15 3 -18 0 -14 -12 5 -13 2 -15 -11 -10 -10 4 -15 3 -11 -3 3 -6 1 -10
-5 -10 -6 0 -9 -4 -5 -9 3 -5 -4 -12 -15 -16 -11 -4 -18 -11 -14 -16 3 -5 2
-9 -3 -8 -23 4 -35 -2 -29 -17 3 -8 2 -12 -4 -9 -11 7 -71 -51 -62 -59 3 -3
-2 -6 -12 -6 -11 0 -14 -4 -10 -12 5 -8 2 -9 -10 -5 -9 4 -15 3 -11 -2 3 -5
-8 -19 -25 -31 -17 -12 -28 -25 -25 -30 3 -4 -5 -10 -16 -13 -12 -3 -18 -10
-14 -16 3 -6 0 -11 -7 -11 -15 0 -88 -75 -88 -90 0 -6 -4 -10 -10 -10 -14 0
-90 -75 -90 -88 0 -7 -8 -12 -19 -12 -10 0 -21 -9 -24 -20 -3 -11 -13 -20 -24
-20 -15 0 -16 -2 -3 -10 11 -7 11 -10 2 -10 -7 0 -47 -35 -90 -77 -42 -43 -81
-77 -85 -75 -5 1 -6 -2 -3 -7 8 -13 -21 -34 -35 -25 -8 4 -9 3 -5 -5 8 -12
-159 -183 -169 -173 -3 4 -3 -2 1 -13 4 -11 4 -17 0 -13 -9 8 -46 -27 -46 -44
0 -6 -2 -9 -5 -6 -7 7 -95 -80 -95 -93 0 -5 -3 -8 -8 -6 -4 1 -8 -2 -9 -6 -3
-11 -35 -42 -43 -42 -4 0 -15 -9 -26 -19 -19 -20 -19 -20 1 -13 18 7 19 6 3
-6 -10 -8 -14 -18 -10 -22 4 -5 2 -5 -4 -2 -13 7 -47 -30 -39 -44 4 -5 2 -8
-3 -7 -11 3 -52 -40 -52 -54 0 -5 -6 -6 -12 -2 -8 5 -8 2 1 -10 8 -9 10 -16 5
-14 -5 2 -10 -1 -11 -6 0 -5 -8 -13 -17 -18 -8 -5 -13 -15 -10 -23 4 -9 0 -15
-9 -15 -9 0 -14 -7 -13 -17 2 -10 -3 -24 -11 -31 -7 -8 -11 -18 -8 -23 4 -5 2
-9 -2 -9 -5 0 -9 -10 -10 -22 -1 -11 -6 -24 -11 -27 -15 -11 -22 -41 -9 -41 8
0 8 -3 -2 -9 -11 -7 -11 -9 0 -14 10 -4 10 -6 -2 -6 -9 -1 -19 -12 -21 -26 -4
-16 -1 -22 6 -18 7 4 6 1 -1 -8 -7 -9 -8 -20 -3 -29 5 -8 6 -19 2 -25 -4 -5
-7 -20 -7 -31 0 -12 -7 -30 -15 -40 -14 -18 -14 -18 4 -4 15 11 18 11 12 1 -5
-8 -3 -17 5 -22 11 -7 10 -9 -4 -9 -15 0 -16 -3 -6 -21 8 -16 8 -20 -1 -14 -9
6 -9 3 -1 -12 6 -11 7 -23 4 -27 -3 -3 -1 -6 7 -6 10 0 10 -4 -1 -17 -12 -14
-12 -16 0 -8 11 6 12 5 5 -6 -12 -20 -14 -38 -3 -45 5 -3 7 -10 4 -15 -4 -5 2
-9 12 -9 15 0 16 -2 3 -10 -8 -5 -10 -10 -3 -10 6 0 9 -9 6 -20 -3 -11 -1 -20
5 -20 5 0 13 -7 16 -16 3 -9 2 -12 -5 -8 -6 3 -5 -3 3 -15 7 -12 16 -21 20
-21 5 0 8 -11 8 -25 0 -17 4 -23 14 -19 9 4 13 -2 12 -18 0 -13 4 -22 11 -21
6 2 15 -6 18 -17 4 -11 15 -25 26 -30 10 -6 19 -17 19 -25 0 -9 6 -12 17 -8
11 4 14 3 9 -5 -4 -7 -2 -12 4 -12 6 0 8 -4 5 -10 -6 -10 7 -14 33 -11 7 1 12
-2 11 -6 -1 -4 -1 -15 0 -23 1 -13 2 -13 11 0 7 11 10 11 10 2 0 -8 5 -10 12
-6 8 5 9 2 5 -9 -3 -9 -3 -16 1 -16 21 4 42 -2 38 -10 -3 -5 1 -12 10 -15 10
-4 13 -2 9 7 -4 6 3 1 14 -12 19 -21 21 -21 22 -5 0 16 2 15 9 -3 6 -15 15
-21 25 -17 8 3 15 1 15 -6 0 -6 4 -9 9 -6 5 4 12 0 14 -6 4 -10 6 -9 6 1 1 11
4 11 18 0 14 -12 15 -12 9 -1 -7 11 -4 12 12 3 14 -7 23 -8 27 -1 4 6 11 8 16
4 5 -3 6 -11 2 -17 -4 -8 -1 -7 9 1 14 11 21 11 41 -2 13 -9 27 -13 31 -9 11
11 36 12 36 1 0 -6 6 -5 15 2 11 9 15 9 15 1 0 -8 5 -9 19 -1 14 7 22 7 26 0
5 -8 11 -7 21 1 10 8 14 9 14 0 0 -8 8 -8 28 2 15 7 33 12 40 11 6 -1 17 -2
23 -3 5 0 7 -6 3 -13 -4 -7 -3 -8 4 -4 6 4 8 14 5 24 -6 14 -4 15 8 5 12 -10
18 -10 27 -1 9 9 12 9 12 -1 0 -7 5 -9 12 -5 21 13 78 13 72 0 -3 -6 1 -3 9 6
8 10 17 15 20 11 4 -3 7 -1 7 6 0 7 10 11 23 9 13 -2 21 2 20 9 -1 6 8 10 22
8 13 -1 22 1 20 5 -6 10 20 32 28 24 7 -7 53 38 49 49 -1 5 2 6 8 2 5 -3 13 1
16 9 3 9 13 16 22 16 8 0 13 3 9 6 -8 8 18 34 33 34 6 0 9 4 6 8 -6 10 84 96
109 106 9 3 14 10 11 14 -5 8 15 29 43 47 10 6 12 4 6 -6 -8 -12 -6 -12 8 0
15 12 21 10 48 -18 16 -17 27 -36 24 -41 -3 -6 1 -10 9 -10 9 0 16 -7 16 -16
0 -9 5 -12 12 -8 8 5 9 2 5 -9 -4 -11 -1 -17 7 -17 15 0 56 -45 56 -62 0 -6 3
-9 6 -6 7 7 49 -32 57 -52 4 -12 6 -12 6 -1 1 10 7 7 20 -8 11 -12 23 -23 28
-24 4 -1 7 -5 6 -9 -2 -4 6 -5 17 -3 12 2 17 -1 14 -9 -3 -7 5 -12 17 -13 12
-1 25 -6 28 -11 3 -6 17 -12 31 -13 14 -2 34 -12 44 -22 11 -9 22 -14 25 -10
9 11 80 10 73 -1 -3 -5 3 -6 12 -3 13 5 17 3 13 -7 -4 -10 -1 -13 8 -9 8 3 12
10 8 17 -4 6 6 3 21 -8 17 -11 25 -13 20 -5 -6 12 -5 12 9 0 14 -11 17 -11 17
0 0 9 3 10 8 4 9 -13 62 -14 62 -2 0 5 6 5 13 -1 8 -7 18 -7 27 -2 8 5 21 5
32 -1 11 -6 18 -6 18 0 0 5 6 9 13 8 46 -1 68 4 61 16 -5 9 -4 9 5 1 8 -7 25
-9 47 -4 20 5 37 4 40 -2 4 -5 11 -5 18 1 7 6 16 7 20 3 4 -4 6 0 4 8 -2 10 5
15 20 15 13 0 27 7 32 15 5 8 10 11 10 6 0 -5 6 -3 13 3 8 6 17 8 20 4 4 -3 7
-1 7 5 0 7 6 12 14 12 8 0 16 7 19 15 4 8 15 12 27 10 19 -4 20 -2 8 12 -9 12
-9 15 0 9 7 -4 12 -2 12 6 0 9 3 9 10 -2 8 -13 10 -12 10 3 0 9 3 16 8 15 4
-2 24 14 43 34 20 20 39 34 43 31 3 -4 6 1 6 10 0 10 3 17 8 17 4 0 20 17 36
37 16 20 23 33 15 28 -8 -4 -3 3 10 18 13 15 20 31 16 38 -5 7 -4 10 3 5 13
-8 31 23 25 42 -3 6 0 12 7 12 6 0 8 5 5 10 -3 6 -1 10 5 10 7 0 10 7 6 15 -3
8 0 15 7 15 8 0 6 4 -3 10 -13 8 -13 10 2 10 12 0 16 8 14 33 -2 17 1 38 7 45
6 8 5 12 -4 12 -11 0 -11 2 1 10 11 7 11 10 2 10 -7 0 -10 5 -7 10 4 6 12 7
18 3 9 -5 9 -3 0 8 -6 8 -12 17 -12 22 -1 4 -1 8 -2 10 -5 14 -4 45 1 42 8 -5
7 26 -2 40 -3 6 -4 22 -3 37 2 17 -2 29 -12 32 -12 5 -13 9 -3 21 9 10 9 15 1
15 -6 0 -11 14 -11 31 0 17 -6 37 -14 45 -8 7 -12 23 -9 34 3 12 0 22 -10 26
-8 3 -14 13 -13 22 2 9 -7 25 -18 35 -12 10 -15 15 -8 12 11 -6 12 -3 3 14 -7
11 -16 21 -20 21 -5 0 -14 14 -20 31 -7 19 -15 28 -22 23 -7 -4 -9 -3 -5 4 3
6 1 14 -5 17 -5 4 -8 13 -5 21 3 8 0 13 -7 11 -7 -1 -11 3 -10 10 2 6 -6 15
-17 18 -11 4 -18 10 -15 15 3 5 -6 17 -20 26 -14 9 -25 23 -25 30 0 8 -4 14
-10 14 -5 0 -10 7 -10 16 0 8 -4 12 -10 9 -6 -3 -10 4 -10 16 0 12 -3 20 -6
17 -8 -8 -54 37 -54 52 0 7 -3 10 -6 7 -8 -7 -54 42 -54 57 0 5 -3 7 -6 3 -8
-8 -44 25 -44 40 0 6 -5 15 -12 19 -7 5 -8 3 -3 -6 5 -9 4 -11 -3 -6 -7 4 -12
14 -12 22 0 8 -7 14 -16 14 -10 0 -14 5 -10 16 3 8 2 13 -2 10 -5 -3 -14 4
-22 14 -8 10 -18 16 -24 13 -5 -4 -7 1 -3 11 4 9 3 15 -1 12 -9 -6 -42 29 -42
44 0 5 -7 6 -17 3 -9 -4 -14 -2 -10 3 3 5 -8 20 -24 33 -16 13 -26 28 -22 35
3 6 3 8 -1 5 -4 -4 -22 8 -40 27 -18 19 -36 31 -39 27 -4 -3 -7 3 -7 15 0 12
-5 22 -11 22 -5 0 -7 -5 -3 -12 4 -7 3 -8 -4 -4 -7 4 -12 14 -12 22 0 9 -5 12
-12 8 -8 -5 -9 -2 -5 10 4 9 3 15 -1 12 -5 -3 -14 4 -22 14 -8 10 -17 17 -22
14 -4 -3 -8 2 -8 10 0 9 -7 16 -16 16 -8 0 -12 5 -9 10 3 6 -1 10 -10 10 -9 0
-13 5 -10 10 3 6 -1 10 -9 10 -9 0 -16 7 -16 16 0 8 -5 12 -11 9 -6 -4 -13 2
-16 14 -3 12 -10 21 -17 21 -6 0 -29 20 -50 45 -22 24 -43 42 -48 39 -5 -3 -7
-2 -6 3 2 5 -9 21 -24 35 -15 14 -25 28 -21 31 6 6 -12 11 -29 8 -5 0 -8 6 -8
14 0 18 -36 38 -53 29 -9 -6 -9 -5 0 7 14 17 0 39 -24 39 -8 0 -16 7 -20 16
-5 13 -7 13 -14 2 -6 -9 -9 -7 -9 10 0 12 -6 22 -13 22 -7 0 -29 18 -47 40
-18 22 -40 40 -48 40 -8 0 -12 6 -9 14 4 11 1 13 -10 9 -12 -5 -14 -3 -8 8 4
8 4 11 0 6 -5 -4 -19 0 -33 9 -13 9 -21 11 -17 4z m-355 -334 c0 -2 -8 -10
-17 -17 -16 -13 -17 -12 -4 4 13 16 21 21 21 13z m1115 -366 c3 -5 1 -10 -4
-10 -6 0 -11 5 -11 10 0 6 2 10 4 10 3 0 8 -4 11 -10z"/>
<path d="M3399 1083 c-13 -16 -12 -17 4 -4 16 13 21 21 13 21 -2 0 -10 -8 -17
-17z"/>
</g>
</svg>
