<svg xmlns="http://www.w3.org/2000/svg" xmlns:xlink="http://www.w3.org/1999/xlink"  zoomAndPan="magnify" viewBox="0 0 1050 1049.999947"  preserveAspectRatio="xMidYMid meet" version="1.0"><defs><clipPath id="cbb3443bcf"><path d="M 223.109375 851 L 330 851 L 330 938 L 223.109375 938 Z M 223.109375 851 " clip-rule="nonzero"/></clipPath></defs><path fill="#271b23" d="M 762.527344 772.039062 C 751.472656 771.957031 707.101562 769.367188 681.804688 775.609375 C 656.507812 781.851562 682.222656 807.625 700.03125 816.507812 C 717.84375 825.394531 749.847656 818.304688 762.527344 820.855469 C 775.214844 823.414062 826.65625 821.320312 810.824219 786.746094 C 795 752.167969 762.527344 772.039062 762.527344 772.039062 " fill-opacity="1" fill-rule="nonzero"/><path fill="#271b23" d="M 601.109375 858.746094 C 601.109375 858.746094 581.328125 894.664062 563.519531 912.476562 C 545.714844 930.28125 529.742188 944.851562 537.589844 955.796875 C 545.433594 966.75 565.5 970.851562 591.273438 962.453125 C 616.625 954.1875 635.359375 927.785156 643.953125 923.09375 C 652.550781 918.410156 677.007812 898.226562 669.726562 877.640625 C 662.445312 857.058594 601.109375 858.746094 601.109375 858.746094 " fill-opacity="1" fill-rule="nonzero"/><path fill="#f79688" d="M 575.71875 225.691406 C 575.71875 225.691406 542.125 287.746094 519.335938 340.503906 C 509.699219 362.820312 504.410156 383.640625 497.570312 401.757812 C 491.886719 416.832031 483.839844 423 480.304688 439.394531 C 472.523438 475.5 480.625 478.820312 492.296875 485.242188 C 503.972656 491.667969 511.296875 484.425781 503.511719 470.484375 C 495.722656 456.539062 499.550781 442.042969 503.652344 444.152344 C 508.234375 446.507812 505.496094 455.296875 511.421875 463.226562 C 514.605469 467.484375 520.65625 465.207031 520.65625 465.207031 C 520.65625 465.207031 520.234375 454.511719 521.3125 444.757812 C 522.636719 432.882812 519.222656 420.171875 519.222656 415.808594 C 519.222656 407.375 558.902344 355.304688 580.839844 310.179688 C 588.871094 293.671875 613.640625 260.703125 613.640625 260.703125 L 575.71875 225.691406 " fill-opacity="1" fill-rule="nonzero"/><path fill="#dedaca" d="M 642.449219 125.214844 C 642.449219 125.214844 615.308594 132.671875 592.207031 175.242188 C 569.113281 217.808594 549.949219 251.796875 549.949219 251.796875 C 549.949219 251.796875 568.121094 264.894531 596.195312 280.894531 C 605.839844 286.382812 629.8125 286.601562 629.8125 286.601562 L 686.210938 154.441406 L 642.449219 125.214844 " fill-opacity="1" fill-rule="nonzero"/><path fill="#271b23" d="M 580.839844 413.746094 C 586.195312 421.84375 613.089844 556.425781 637.027344 593.007812 C 660.960938 629.585938 711.230469 725.769531 715.175781 745.542969 C 719.113281 765.3125 719.300781 776.0625 728.902344 787.308594 C 738.5 798.554688 782.875 799.152344 792.53125 797.46875 C 802.1875 795.785156 810.824219 786.746094 810.824219 786.746094 C 810.824219 786.746094 810.558594 706.125 792.53125 680.324219 C 774.496094 654.515625 737.761719 521.96875 737.761719 521.96875 L 580.839844 413.746094 " fill-opacity="1" fill-rule="nonzero"/><path fill="#392834" d="M 741.742188 417.710938 C 748.28125 424.277344 751.503906 485.9375 742.941406 520.730469 C 734.382812 555.519531 704.730469 640.765625 704.730469 640.765625 C 704.730469 640.765625 711.628906 670.972656 707.910156 690.449219 C 704.195312 709.917969 696.9375 768.757812 692.15625 798.171875 C 687.375 827.589844 674.664062 879.421875 674.664062 879.421875 C 674.664062 879.421875 644.984375 897.511719 618.082031 897.628906 C 596.167969 897.722656 579.253906 877.839844 579.253906 877.839844 C 579.253906 877.839844 600.597656 690.855469 604.324219 661.6875 C 608.96875 625.3125 623.863281 540.585938 623.863281 520.730469 C 618.917969 502.597656 620.257812 488.179688 618.082031 407.363281 C 616.410156 345.320312 741.742188 417.710938 741.742188 417.710938 " fill-opacity="1" fill-rule="nonzero"/><path fill="#f1eee9" d="M 715.601562 155.9375 C 715.601562 155.9375 647.644531 134.96875 643.953125 133.191406 C 640.269531 131.414062 622.058594 140.808594 606.058594 175.242188 C 590.054688 209.667969 587.261719 230.617188 590.25 280.894531 C 591.417969 300.554688 583.066406 348.746094 580.839844 380.074219 C 577.269531 430.421875 580.839844 470.207031 580.839844 470.207031 C 580.839844 470.207031 593.683594 480.804688 598.546875 479.617188 C 603.089844 470.207031 612.105469 455.667969 612.105469 455.667969 L 612.851562 488.179688 C 612.851562 488.179688 656.78125 514.09375 708.8125 498.246094 C 740.175781 488.691406 752.242188 479.617188 752.242188 479.617188 C 752.242188 479.617188 764.175781 434.082031 753.449219 390.632812 C 749.140625 373.164062 742.941406 362.585938 742.941406 355.304688 C 742.941406 315.226562 771.585938 213.140625 762.332031 197.144531 C 749.859375 175.582031 740.292969 169.003906 715.601562 155.9375 " fill-opacity="1" fill-rule="nonzero"/><path fill="#f79688" d="M 653.71875 141.539062 L 651.148438 179.023438 C 651.148438 179.023438 642.085938 206.832031 654.746094 217.550781 C 668.277344 213.324219 710.792969 177.046875 715.601562 155.9375 C 704.3125 134.875 703.226562 105.5625 703.226562 105.5625 L 653.71875 141.539062 " fill-opacity="1" fill-rule="nonzero"/><path fill="#f9b0a2" d="M 714.097656 46.914062 C 700.007812 28.953125 656.402344 14.773438 630.011719 53.839844 C 612.714844 79.449219 616.359375 115.667969 627.445312 138.273438 C 634.09375 151.84375 643.421875 160.507812 652.515625 159.042969 C 666.089844 156.851562 696.660156 144.476562 710.050781 122.601562 C 725.125 97.980469 725.039062 60.871094 714.097656 46.914062 " fill-opacity="1" fill-rule="nonzero"/><path fill="#c7c3b5" d="M 643.222656 159.203125 C 643.222656 159.203125 632.613281 168.28125 626.832031 179.238281 C 621.046875 190.1875 620.894531 194.570312 620.894531 194.570312 C 620.894531 194.570312 631.128906 190.121094 637.21875 201.992188 C 641.875 211.070312 648.734375 225.691406 648.734375 225.691406 L 656.78125 212.382812 C 656.78125 212.382812 646.863281 201.390625 648.734375 189.816406 C 651.640625 171.796875 656.78125 165.878906 656.78125 165.878906 L 643.222656 159.203125 " fill-opacity="1" fill-rule="nonzero"/><path fill="#aeab9c" d="M 718.410156 56.480469 C 718.410156 56.480469 720.988281 67.640625 710.644531 76.957031 C 701.339844 85.34375 688.910156 76.140625 680.75 79.710938 C 678.960938 85.675781 682.652344 116.296875 682.652344 116.296875 L 689.847656 111.097656 C 689.847656 111.097656 689.523438 101.390625 692.511719 99.976562 C 696.378906 99.664062 697.582031 109.078125 700.480469 116.296875 C 701.773438 119.507812 705.734375 127.296875 706.917969 131.535156 C 720.132812 125.316406 742.742188 84.46875 718.410156 56.480469 " fill-opacity="1" fill-rule="nonzero"/><path fill="#f9b0a2" d="M 692.511719 99.976562 C 695.8125 96.757812 701.015625 94.328125 706.246094 102.664062 C 712.644531 112.863281 698.5625 125.214844 698.5625 125.214844 C 698.5625 125.214844 690.367188 102.082031 692.511719 99.976562 " fill-opacity="1" fill-rule="nonzero"/><path fill="#aeab9c" d="M 623.863281 129.734375 C 626.261719 140.046875 623.707031 149.386719 634.523438 161.558594 C 645.335938 173.730469 661.921875 168.960938 672.140625 161.558594 C 687.445312 150.472656 692.8125 140.820312 692.8125 140.820312 L 689.847656 111.097656 L 681.804688 113.363281 C 681.804688 113.363281 671.617188 130.1875 666.671875 133.15625 C 661.722656 136.125 648.371094 127.664062 636.5 125.214844 C 624.628906 122.765625 623.863281 129.734375 623.863281 129.734375 " fill-opacity="1" fill-rule="nonzero"/><path fill="#f9b0a2" d="M 648.003906 140.046875 C 656.824219 143.421875 656.78125 143.542969 656.78125 143.542969 C 656.78125 143.542969 655.285156 153.085938 643.824219 150.769531 C 632.539062 148.496094 631.128906 140.046875 631.128906 140.046875 C 631.128906 140.046875 635.015625 135.089844 648.003906 140.046875 " fill-opacity="1" fill-rule="nonzero"/><path fill="#c7c3b5" d="M 648.734375 225.691406 C 648.734375 225.691406 636.726562 252.457031 634.746094 275.21875 C 632.765625 297.980469 623.179688 359.957031 618.082031 390.632812 C 612.980469 421.308594 610.675781 449.382812 610.675781 449.382812 C 610.675781 449.382812 618.023438 428.078125 623.863281 388.191406 C 628.027344 359.757812 636.269531 325.683594 638.839844 298.96875 C 641.402344 272.25 648.734375 225.691406 648.734375 225.691406 " fill-opacity="1" fill-rule="nonzero"/><path fill="#c7c3b5" d="M 696.753906 300.945312 C 690.960938 309.976562 709.882812 315.882812 729.195312 329.691406 C 748.507812 343.496094 768.308594 344.714844 771.949219 329.691406 C 775.597656 314.660156 756.175781 299.960938 742.941406 294.019531 C 729.714844 288.085938 702.722656 291.628906 696.753906 300.945312 " fill-opacity="1" fill-rule="nonzero"/><path fill="#dedaca" d="M 665.738281 387.832031 C 665.738281 387.832031 662.183594 417.945312 662.183594 433.152344 C 662.183594 449.800781 678.78125 459.40625 694.132812 459.148438 C 709.480469 458.894531 724.257812 447.84375 727.027344 431.25 C 732.566406 398.054688 727.027344 387.832031 727.027344 387.832031 L 665.738281 387.832031 " fill-opacity="1" fill-rule="nonzero"/><path fill="#f9b0a2" d="M 721.886719 256.609375 L 690.390625 339.070312 C 690.390625 339.070312 632.773438 341.40625 610.675781 344.484375 C 588.585938 347.566406 574.636719 331.707031 555.0625 341.394531 C 545.277344 346.234375 530.507812 361.933594 529.226562 372.855469 C 528.410156 379.839844 535.167969 394.617188 544.003906 394.488281 C 567.191406 394.125 591.550781 369.683594 610.675781 375.492188 C 629.8125 381.300781 682.214844 396.3125 711.863281 396.777344 C 725.96875 397.003906 735.054688 380.421875 748.125 356.652344 C 763.890625 327.972656 769.429688 292.296875 772.398438 279.179688 C 777.574219 256.308594 721.886719 256.609375 721.886719 256.609375 " fill-opacity="1" fill-rule="nonzero"/><path fill="#dedaca" d="M 741.640625 171.8125 C 715.132812 172.570312 714.710938 212.921875 707.910156 244.542969 C 703.925781 263.089844 700.050781 294.007812 696.753906 300.945312 C 724.550781 289.523438 756.296875 304.382812 771.949219 329.691406 C 776.695312 312.011719 782.566406 282.023438 785.605469 256.609375 C 792.167969 201.679688 769.28125 171.019531 741.640625 171.8125 " fill-opacity="1" fill-rule="nonzero"/><path fill="#c7c3b5" d="M 709.808594 139.570312 C 709.808594 139.570312 712.082031 154.972656 700.03125 166.867188 C 681.804688 184.859375 661.6875 202.457031 661.6875 202.457031 C 661.6875 202.457031 656.070312 205.96875 652.402344 213.699219 C 648.734375 221.429688 648.734375 225.691406 648.734375 225.691406 C 648.734375 225.691406 662.699219 214.03125 669.984375 212.878906 C 677.269531 211.726562 688.777344 219.628906 688.777344 219.628906 C 688.777344 219.628906 711.996094 192.378906 719.328125 173.792969 C 726.652344 155.207031 723.582031 149.46875 709.808594 139.570312 " fill-opacity="1" fill-rule="nonzero"/><path fill="#271b23" d="M 671.710938 631.660156 C 671.710938 631.660156 677.507812 648.734375 684.660156 661.839844 C 691.8125 674.945312 696.753906 686.207031 696.753906 686.207031 C 696.753906 686.207031 700.542969 677.613281 692.15625 657.445312 C 685.542969 641.554688 671.710938 631.660156 671.710938 631.660156 " fill-opacity="1" fill-rule="nonzero"/><path fill="#f79688" d="M 473.691406 440.144531 C 476.847656 443.425781 500.339844 464.503906 519.273438 479.238281 C 538.210938 493.964844 545.113281 513.28125 521.027344 510.769531 C 505.996094 509.203125 498.585938 501.257812 490.171875 493.933594 C 481.753906 486.609375 475.175781 496.136719 474.742188 498.496094 C 473.335938 506.160156 472.992188 513.929688 469.253906 517.015625 C 463.359375 521.882812 464.34375 512.054688 463.523438 505.625 C 462.707031 499.195312 464.226562 501.101562 462.121094 482.261719 C 460.019531 463.417969 473.691406 440.144531 473.691406 440.144531 " fill-opacity="1" fill-rule="nonzero"/><path fill="#3bb093" d="M 379.660156 220.824219 C 383.613281 221.929688 412.628906 223.90625 423.839844 253.589844 C 435.050781 283.277344 437.6875 383.816406 442.964844 391.761719 C 448.242188 399.710938 478.964844 434.285156 485.5 447.042969 C 487.285156 459.460938 474.398438 482.078125 459.78125 482.078125 C 436.039062 465.285156 408.34375 442.476562 408.34375 442.476562 C 408.34375 442.476562 372.730469 339.050781 371.742188 331.941406 C 370.753906 324.835938 379.660156 220.824219 379.660156 220.824219 " fill-opacity="1" fill-rule="nonzero"/><path fill="#f9b0a2" d="M 261.429688 816.871094 C 261.429688 816.871094 240.886719 837.050781 232.328125 851.5 C 223.765625 865.960938 235.75 866.300781 246.878906 884.109375 C 258.007812 901.921875 260.964844 925.785156 291.160156 933.546875 C 321.351562 941.308594 321.195312 919.363281 311 903.789062 C 300.808594 888.21875 291.160156 856.476562 291.160156 856.476562 L 261.429688 816.871094 " fill-opacity="1" fill-rule="nonzero"/><path fill="#f9b0a2" d="M 401.085938 925.152344 C 401.085938 925.152344 395.40625 946.074219 396.109375 967 C 396.367188 974.53125 417.566406 969.054688 440.988281 996.726562 C 453.207031 1011.160156 471.292969 1035.5 514.277344 1021.796875 C 524.511719 1018.535156 509.914062 1004.222656 498.398438 991.601562 C 486.886719 978.984375 469.765625 940.996094 459.496094 935.160156 C 449.222656 929.320312 401.085938 925.152344 401.085938 925.152344 " fill-opacity="1" fill-rule="nonzero"/><path fill="#f9b0a2" d="M 479.363281 347.828125 C 479.363281 347.828125 509.242188 344.132812 525.070312 336.21875 C 540.898438 328.300781 542.875 333.246094 564.636719 336.21875 C 586.402344 339.1875 600.539062 339.933594 589.390625 350.09375 C 578.25 360.25 561.675781 346.75 552.765625 354.027344 C 545.773438 359.75 541.445312 360.882812 527.050781 371.15625 C 519.363281 376.640625 508.582031 374.09375 498.886719 375.480469 C 482.519531 377.828125 474.398438 383.566406 474.398438 383.566406 L 479.363281 347.828125 " fill-opacity="1" fill-rule="nonzero"/><path fill="#49c1a6" d="M 396.359375 959.28125 C 408.644531 953.296875 430.390625 973.398438 449.222656 991.601562 C 468.058594 1009.808594 498.398438 991.601562 498.398438 991.601562 C 498.398438 991.601562 546.457031 1022.058594 512.210938 1026.945312 C 474.398438 1032.34375 453.835938 1020.65625 446.121094 1012.667969 C 441.660156 1008.054688 429.371094 996.105469 416.75 987.820312 C 407.527344 981.761719 396.464844 979.097656 396.359375 975.507812 C 396.109375 967 396.359375 959.28125 396.359375 959.28125 " fill-opacity="1" fill-rule="nonzero"/><path fill="#c3beae" d="M 432.632812 504.054688 C 433.371094 511.15625 426.167969 660.023438 416.585938 682.054688 C 407.007812 704.089844 367.699219 776.566406 352.625 795.394531 C 337.546875 814.230469 325.578125 846.316406 310.410156 876.015625 C 293.28125 882.914062 284.480469 879.859375 260.355469 860.113281 C 245.121094 847.636719 244.613281 842.035156 242.480469 825.210938 C 247.453125 817.027344 273.292969 767.816406 294.050781 734.199219 C 307.003906 713.21875 317.167969 707.125 321.789062 681.734375 C 325.691406 660.304688 332.800781 606.734375 332.800781 606.734375 L 432.632812 504.054688 " fill-opacity="1" fill-rule="nonzero"/><path fill="#dedaca" d="M 284.457031 465.285156 C 284.457031 465.285156 278.25 516.234375 284.457031 562.796875 C 290.667969 609.363281 330.609375 701.761719 345.8125 744.875 C 361.011719 787.984375 374.328125 855.84375 377.140625 890.929688 C 379.949219 926.007812 383.292969 954.175781 383.292969 954.175781 C 383.292969 954.175781 396.109375 967 442.707031 964.4375 C 463.015625 963.320312 474.398438 950.355469 474.398438 950.355469 C 474.398438 950.355469 442.5 727.003906 432.804688 690.152344 C 420.207031 642.253906 377.140625 506.703125 377.140625 506.703125 L 284.457031 465.285156 " fill-opacity="1" fill-rule="nonzero"/><path fill="#49c1a6" d="M 319.578125 250.765625 C 319.578125 250.765625 292.507812 263.589844 278.0625 275.449219 C 263.613281 287.300781 268.160156 312.386719 278.0625 349.914062 C 287.960938 387.445312 290.980469 403.90625 284.457031 424.230469 C 267.980469 475.578125 279.003906 549.460938 279.003906 549.460938 C 279.003906 549.460938 308.5 547.847656 351.8125 546.824219 C 377.613281 546.210938 398.320312 550.199219 413.949219 546.824219 C 431.964844 542.929688 442.964844 534.949219 442.964844 534.949219 C 442.964844 534.949219 441.574219 504.207031 436.371094 475.578125 C 432.6875 455.300781 428.96875 437.398438 426.363281 429.5625 C 414.277344 393.183594 420.691406 383.960938 432.6875 353.714844 C 447.855469 315.453125 442.964844 305.046875 423.179688 275.167969 C 407.199219 251.039062 383.292969 234.066406 383.292969 234.066406 L 319.578125 250.765625 " fill-opacity="1" fill-rule="nonzero"/><path fill="#3bb093" d="M 333.519531 247.109375 L 316.253906 252.386719 L 307.339844 256.984375 C 307.339844 256.984375 324.917969 276.351562 341.40625 284.265625 C 357.890625 292.183594 389.820312 288.945312 395.480469 269.925781 C 401.144531 250.902344 375.039062 234.066406 375.039062 234.066406 L 333.519531 247.109375 " fill-opacity="1" fill-rule="nonzero"/><path fill="#f6867f" d="M 316.253906 252.386719 C 322.507812 237.164062 320.347656 212.878906 320.347656 212.878906 L 368.292969 222.894531 C 368.292969 222.894531 370 234.992188 383.292969 257.234375 C 383.292969 263.417969 379.847656 272.15625 366.71875 274.367188 C 341.628906 278.582031 326.871094 262.816406 316.253906 252.386719 " fill-opacity="1" fill-rule="nonzero"/><path fill="#f9b0a2" d="M 388.003906 146.117188 C 408.890625 167.832031 400.464844 242.925781 369.78125 247.851562 C 349.886719 251.042969 321.941406 233.347656 311.855469 198.585938 C 303.402344 169.449219 348.480469 105.007812 388.003906 146.117188 " fill-opacity="1" fill-rule="nonzero"/><path fill="#948e7f" d="M 295.78125 113.871094 C 295.980469 105.710938 299.496094 98.144531 307.527344 94.097656 C 311.511719 92.089844 315.796875 91.324219 320.234375 91.867188 C 322.351562 92.128906 326.582031 94.601562 328.632812 94.480469 C 331.773438 94.304688 333.71875 92.121094 336.566406 91.253906 C 345.863281 88.425781 356.226562 89.042969 362.496094 97.609375 C 366.769531 103.441406 366.511719 110.347656 362.667969 115.296875 C 363.292969 118.023438 361.828125 121.535156 358.183594 121.929688 C 347.167969 123.121094 337.347656 127.667969 329.664062 135.742188 C 325.140625 140.5 323.03125 145.285156 316.785156 147.714844 C 307.90625 151.164062 295.085938 156.46875 288.078125 149.617188 C 270.882812 132.785156 280.789062 113.894531 295.78125 113.871094 " fill-opacity="1" fill-rule="nonzero"/><path fill="#aeab9c" d="M 398.277344 170.453125 C 398.277344 170.453125 393.25 146.164062 361.300781 157.257812 C 340.203125 164.585938 333.519531 172.1875 326.464844 195.792969 C 322.023438 210.648438 321.992188 220.824219 321.992188 220.824219 C 321.992188 220.824219 309.835938 209.578125 301.402344 195.792969 C 294.847656 185.082031 290.699219 174.648438 295.226562 155.113281 C 302.925781 121.882812 340.171875 104.660156 361.300781 113.292969 C 399.503906 128.910156 402.25 161.320312 398.277344 170.453125 " fill-opacity="1" fill-rule="nonzero"/><path fill="#f9b0a2" d="M 333.519531 188.550781 C 333.519531 188.550781 328.039062 173.820312 318.988281 183.46875 C 309.941406 193.109375 326.253906 211.390625 326.253906 211.390625 L 333.519531 188.550781 " fill-opacity="1" fill-rule="nonzero"/><path fill="#3bb093" d="M 334.828125 293.417969 C 310.824219 271.941406 290.691406 264.191406 278.0625 275.546875 C 260.289062 291.523438 266.40625 333.910156 293.324219 365.5625 C 321.394531 398.558594 332.816406 408.640625 349.214844 414.734375 C 356.035156 417.269531 371.640625 417.371094 383.292969 415.3125 C 411.898438 410.265625 437.414062 401.640625 448.242188 399.710938 C 470.445312 395.757812 495.152344 385.429688 495.152344 385.429688 C 499.113281 373.707031 496.382812 362.382812 488.46875 343.546875 L 370.421875 354.195312 C 370.421875 354.195312 347.652344 304.894531 334.828125 293.417969 " fill-opacity="1" fill-rule="nonzero"/><g clip-path="url(#cbb3443bcf)"><path fill="#49c1a6" d="M 232.328125 851.5 C 232.328125 851.5 256.660156 888.625 269.980469 898.886719 C 287.160156 912.117188 311 903.789062 311 903.789062 C 311 903.789062 345.527344 930.917969 321.289062 935.160156 C 292.375 940.214844 280.140625 938.640625 266.882812 922.507812 C 248.992188 900.738281 230.71875 879.636719 223.355469 866.109375 C 224.199219 860.09375 232.328125 851.5 232.328125 851.5 " fill-opacity="1" fill-rule="nonzero"/></g><path fill="#3bb093" d="M 362.507812 486.695312 C 362.507812 486.695312 377.019531 497.46875 391.527344 507.257812 C 406.039062 517.046875 423.839844 511.761719 423.839844 511.761719 C 423.839844 511.761719 408.300781 507.808594 396.285156 500.550781 C 384.273438 493.296875 367.125 486.695312 362.507812 486.695312 " fill-opacity="1" fill-rule="nonzero"/><path fill="#3bb093" d="M 341.414062 465.460938 C 354.03125 469.683594 373.9375 477.511719 389.898438 481.128906 C 405.859375 484.742188 417.902344 476.90625 417.902344 476.90625 C 417.902344 476.90625 396.300781 473.898438 376.085938 465.460938 C 355.871094 457.027344 341.414062 465.460938 341.414062 465.460938 " fill-opacity="1" fill-rule="nonzero"/><path fill="#f79688" d="M 530.566406 367.929688 C 530.566406 367.929688 543.078125 353.390625 552.765625 354.027344 C 563.84375 354.757812 574.046875 360.902344 583.125 356.652344 C 592.207031 352.402344 593.59375 343.546875 593.59375 343.546875 C 593.59375 343.546875 590.917969 351.078125 578.617188 351.449219 C 566.324219 351.824219 554.0625 345.085938 545.433594 348.246094 C 536.8125 351.410156 534.058594 361.707031 530.566406 367.929688 " fill-opacity="1" fill-rule="nonzero"/></svg>