<svg xmlns="http://www.w3.org/2000/svg" xmlns:xlink="http://www.w3.org/1999/xlink" zoomAndPan="magnify" viewBox="0 0 1050 1049.999947"  preserveAspectRatio="xMidYMid meet" version="1.0"><path fill="#0c6294" d="M 612.773438 692.433594 C 612.773438 692.433594 635.109375 835.101562 645.234375 933.777344 C 649.394531 974.164062 639.546875 1028.84375 638.992188 1029.121094 C 638.4375 1029.398438 358.363281 1030.507812 359.335938 1028.566406 C 360.304688 1026.621094 361.414062 936.691406 363.355469 925.867188 C 365.300781 915.042969 434.796875 683.828125 434.796875 683.828125 C 434.796875 683.828125 550.628906 694.792969 600.984375 684.800781 C 600.984375 684.800781 612.773438 682.441406 612.773438 692.433594 Z M 612.773438 692.433594 " fill-opacity="1" fill-rule="nonzero"/><path fill="#6d4e4d" d="M 577.261719 110.242188 C 577.261719 110.242188 595.433594 96.222656 595.019531 71.382812 C 594.601562 46.539062 566.996094 22.945312 552.847656 18.503906 C 550.535156 16.875 548.148438 15.359375 545.6875 13.964844 C 543.226562 12.566406 540.703125 11.292969 538.117188 10.140625 C 535.53125 8.988281 532.894531 7.964844 530.210938 7.070312 C 527.527344 6.175781 524.804688 5.414062 522.046875 4.785156 C 519.285156 4.15625 516.503906 3.664062 513.695312 3.304688 C 510.890625 2.945312 508.070312 2.726562 505.242188 2.644531 C 502.414062 2.558594 499.589844 2.613281 496.765625 2.808594 C 493.941406 3 491.132812 3.328125 488.34375 3.792969 C 479.1875 5.460938 468.644531 5.597656 458.242188 9.761719 C 453.007812 11.957031 448.015625 14.609375 443.265625 17.714844 C 438.515625 20.820312 434.082031 24.328125 429.96875 28.238281 C 425.859375 32.152344 422.132812 36.40625 418.792969 40.996094 C 415.457031 45.585938 412.558594 50.441406 410.105469 55.558594 C 394.570312 88.035156 410.9375 121.066406 417.875 132.167969 C 422.546875 139.992188 426.011719 148.320312 428.277344 157.148438 C 428.277344 157.148438 556.59375 134.667969 577.261719 110.242188 Z M 577.261719 110.242188 " fill-opacity="1" fill-rule="nonzero"/><path fill="#bfe3f6" d="M 540.777344 253.324219 C 540.777344 253.324219 503.046875 269.703125 474.054688 265.121094 C 445.0625 260.542969 419.121094 254.574219 419.121094 254.574219 C 419.121094 254.574219 398.453125 273.726562 402.335938 293.710938 C 406.222656 313.695312 417.179688 684.105469 417.179688 684.105469 C 417.179688 684.105469 478.355469 688.132812 507.207031 689.101562 C 536.0625 690.074219 559.230469 693.128906 578.511719 686.1875 C 597.792969 679.25 571.992188 278.585938 571.992188 278.585938 C 571.992188 278.585938 566.71875 261.515625 556.59375 258.597656 C 546.464844 255.683594 540.777344 253.324219 540.777344 253.324219 Z M 540.777344 253.324219 " fill-opacity="1" fill-rule="nonzero"/><path fill="#ffc0a6" d="M 580.035156 92.753906 C 580.035156 92.753906 579.757812 110.65625 577.957031 114.683594 C 576.152344 118.707031 574.347656 173.527344 569.355469 187.542969 C 564.363281 201.558594 546.464844 221.128906 535.785156 222.238281 C 525.105469 223.347656 509.707031 221.542969 509.707031 221.542969 L 509.707031 234.035156 C 509.707031 234.035156 530.097656 253.324219 536.894531 254.4375 C 543.691406 255.546875 507.625 268.730469 466.148438 264.429688 C 433.410156 260.957031 418.011719 254.992188 418.011719 254.992188 C 421.804688 252.550781 424.949219 249.449219 427.445312 245.691406 C 431.746094 240.003906 436.324219 230.425781 437.292969 224.042969 C 439.515625 210.027344 443.257812 175.328125 443.257812 175.328125 C 443.257812 175.328125 430.359375 166.03125 428.277344 157.148438 C 426.195312 148.265625 430.773438 136.46875 436.460938 135.636719 C 442.148438 134.804688 454.632812 142.4375 454.632812 142.4375 C 454.632812 142.4375 460.738281 113.15625 467.953125 105.382812 C 475.164062 97.613281 487.234375 83.179688 491.8125 73.1875 C 496.390625 63.191406 512.203125 62.082031 514.285156 62.082031 C 516.363281 62.082031 532.59375 47.371094 548.964844 50.980469 C 565.332031 54.589844 581.5625 76.792969 580.035156 92.753906 Z M 580.035156 92.753906 " fill-opacity="1" fill-rule="nonzero"/><path fill="#ffffff" d="M 414.960938 255.824219 C 415.585938 258.234375 416.464844 260.546875 417.597656 262.761719 C 421.0625 269.703125 424.253906 284.550781 428.695312 305.925781 C 435.628906 339.507812 439.929688 449.285156 439.929688 449.285156 C 439.929688 449.285156 447.835938 449.980469 448.667969 452.0625 C 458.65625 475.65625 452.691406 567.808594 455.605469 609.164062 C 455.605469 609.164062 446.449219 751.277344 446.449219 757.105469 C 446.449219 762.9375 438.820312 875.628906 434.9375 892.421875 C 431.050781 909.210938 410.523438 930.308594 377.921875 927.671875 C 364.328125 926.5625 346.710938 924.757812 332.839844 920.730469 C 313.417969 915.042969 298.992188 906.019531 294.273438 898.527344 C 285.953125 885.757812 291.917969 870.355469 291.640625 860.777344 C 291.363281 851.203125 328.398438 673.003906 330.339844 656.488281 C 332.285156 639.972656 336.304688 583.488281 336.304688 583.488281 C 336.304688 583.488281 277.074219 603.890625 253.492188 591.121094 C 229.910156 578.355469 211.875 564.199219 217.5625 520.34375 C 220.613281 495.917969 234.210938 467.328125 245.722656 431.800781 C 248.082031 424.722656 253.492188 408.484375 257.929688 398.214844 C 271.523438 366.574219 292.75 323.828125 310.226562 303.84375 C 321.324219 291.214844 338.25 286.773438 370.847656 274.003906 C 403.445312 261.234375 414.960938 255.824219 414.960938 255.824219 Z M 414.960938 255.824219 " fill-opacity="1" fill-rule="nonzero"/><path fill="#ffffff" d="M 552.292969 258.878906 C 553.265625 258.597656 561.171875 329.933594 561.171875 329.933594 C 561.171875 329.933594 580.175781 560.730469 580.867188 585.433594 C 581.5625 610.136719 576.570312 737.121094 576.570312 737.121094 L 576.292969 875.90625 C 576.292969 875.90625 574.347656 921.980469 586.140625 933.082031 C 597.929688 944.1875 616.105469 949.183594 634.832031 949.875 C 653.558594 950.570312 681.164062 954.457031 682.828125 931.835938 C 684.492188 909.210938 668.402344 882.84375 667.429688 868.6875 C 666.457031 854.53125 643.988281 710.753906 643.988281 710.753906 C 643.988281 710.753906 633.859375 594.039062 635.109375 578.214844 C 636.355469 562.394531 636.773438 527.28125 636.773438 527.28125 C 636.773438 527.28125 648.5625 578.910156 667.707031 590.707031 C 686.851562 602.503906 706.828125 620.960938 745.667969 601.949219 C 784.507812 582.933594 839.582031 497.582031 839.582031 497.582031 C 839.582031 497.582031 866.910156 466.773438 863.023438 451.644531 C 859.140625 436.519531 841.660156 424.304688 825.847656 413.066406 C 810.035156 401.824219 791.582031 409.871094 791.582031 409.871094 C 791.582031 409.871094 742.617188 456.503906 742.0625 457.476562 L 717.925781 486.757812 L 682.828125 381.5625 C 682.828125 381.5625 652.863281 304.257812 632.472656 288.160156 C 612.082031 272.0625 552.292969 258.878906 552.292969 258.878906 Z M 552.292969 258.878906 " fill-opacity="1" fill-rule="nonzero"/><path fill="#dcdcdc" d="M 689.902344 306.203125 C 689.902344 306.203125 703.496094 303.289062 702.25 317.304688 C 701 331.320312 625.953125 536.441406 625.953125 536.441406 C 625.953125 536.441406 613.605469 554.207031 600.707031 560.035156 C 587.804688 565.863281 453.523438 590.289062 453.523438 590.289062 C 453.523438 590.289062 436.460938 595.285156 438.542969 579.605469 C 440.625 563.921875 509.429688 349.363281 509.429688 349.363281 C 509.429688 349.363281 511.09375 337.707031 524.828125 333.542969 C 538.558594 329.378906 689.902344 306.203125 689.902344 306.203125 Z M 689.902344 306.203125 " fill-opacity="1" fill-rule="nonzero"/><path fill="#ffc0a6" d="M 871.902344 352.695312 C 871.902344 352.695312 893.957031 333.679688 893.957031 326.046875 C 893.957031 318.414062 887.714844 317.441406 877.730469 323.964844 C 867.742188 330.488281 832.921875 356.164062 828.761719 359.910156 C 824.597656 363.65625 822.519531 379.617188 816.96875 389.609375 C 811.421875 399.601562 793.941406 426.941406 793.941406 426.941406 C 795.699219 430.851562 797.953125 434.441406 800.710938 437.71875 C 803.46875 441 806.625 443.835938 810.171875 446.234375 C 822.242188 454.558594 831.8125 460.667969 842.214844 456.226562 C 842.214844 456.226562 866.078125 408.207031 867.046875 408.625 C 868.019531 409.039062 877.730469 403.90625 879.117188 401.960938 C 880.503906 400.019531 888.550781 399.601562 890.90625 398.632812 C 897.425781 395.855469 906.722656 384.058594 906.722656 384.058594 C 907.046875 384.398438 907.398438 384.703125 907.777344 384.980469 C 908.160156 385.253906 908.558594 385.496094 908.984375 385.699219 C 909.40625 385.902344 909.84375 386.066406 910.296875 386.195312 C 910.746094 386.320312 911.207031 386.40625 911.671875 386.449219 C 912.140625 386.492188 912.609375 386.496094 913.074219 386.457031 C 913.542969 386.417969 914.003906 386.335938 914.457031 386.214844 C 914.910156 386.09375 915.351562 385.933594 915.773438 385.734375 C 916.199219 385.535156 916.601562 385.300781 916.988281 385.03125 C 920.871094 382.378906 924.246094 379.1875 927.113281 375.453125 C 927.113281 375.453125 937.792969 372.957031 947.089844 360.605469 C 956.382812 348.253906 962.625 335.761719 960.265625 330.210938 C 957.910156 324.660156 948.199219 331.875 948.199219 331.875 C 948.199219 331.875 948.476562 328.546875 942.925781 326.464844 C 937.378906 324.382812 926.835938 338.121094 926.835938 338.121094 C 926.835938 338.121094 918.511719 338.121094 915.320312 342.007812 C 912.132812 345.894531 871.902344 352.695312 871.902344 352.695312 Z M 871.902344 352.695312 " fill-opacity="1" fill-rule="nonzero"/><path fill="#ffc0a6" d="M 426.058594 470.660156 C 426.058594 470.660156 459.210938 467.050781 468.785156 462.472656 C 478.355469 457.890625 484.179688 447.621094 511.507812 446.648438 C 538.835938 445.679688 568.382812 449.285156 572.960938 452.203125 C 577.539062 455.117188 578.648438 460.527344 573.65625 462.75 C 570.757812 464.167969 567.707031 465.046875 564.5 465.386719 C 564.5 465.386719 579.203125 470.382812 575.042969 474.683594 C 570.882812 478.988281 562.835938 480.234375 562.835938 480.234375 C 562.835938 480.234375 574.625 488.144531 565.75 492.726562 C 556.871094 497.304688 532.179688 496.054688 532.179688 496.054688 C 532.179688 496.054688 556.175781 504.9375 555.207031 510.488281 C 554.234375 516.042969 544.800781 516.734375 544.800781 516.734375 C 544.800781 516.734375 514.144531 509.101562 507.210938 511.183594 C 500.273438 513.265625 473.777344 522.285156 462.542969 522.285156 C 451.304688 522.285156 430.636719 523.953125 431.328125 524.921875 C 428.605469 519.976562 426.480469 514.785156 424.957031 509.347656 C 423.433594 503.910156 422.550781 498.367188 422.3125 492.726562 C 422.175781 485.785156 421.339844 477.738281 426.058594 470.660156 Z M 426.058594 470.660156 " fill-opacity="1" fill-rule="nonzero"/><path fill="#000000" d="M 509.289062 234.867188 C 520.25 253.464844 544.386719 258.042969 563.667969 262.761719 C 585.445312 267.898438 608.472656 273.171875 626.925781 286.496094 C 629.046875 288.011719 631.03125 289.6875 632.882812 291.527344 C 634.734375 293.363281 636.429688 295.335938 637.960938 297.449219 C 639.492188 299.558594 640.847656 301.78125 642.019531 304.109375 C 643.195312 306.441406 644.171875 308.847656 644.957031 311.335938 C 645.652344 313.695312 649.535156 312.726562 648.703125 310.226562 C 647.378906 305.792969 645.46875 301.628906 642.96875 297.738281 C 640.46875 293.84375 637.476562 290.375 634 287.328125 C 627.0625 280.945312 618.601562 276.503906 610 272.753906 C 598.730469 267.960938 587.125 264.214844 575.179688 261.515625 C 563.667969 258.597656 551.875 256.238281 540.640625 252.492188 C 529.402344 248.746094 518.722656 243.195312 512.617188 232.925781 C 512.476562 232.738281 512.304688 232.578125 512.101562 232.453125 C 511.902344 232.328125 511.683594 232.242188 511.453125 232.199219 C 511.21875 232.152344 510.988281 232.148438 510.753906 232.1875 C 510.519531 232.226562 510.300781 232.304688 510.097656 232.425781 C 509.890625 232.542969 509.714844 232.695312 509.566406 232.878906 C 509.417969 233.0625 509.304688 233.269531 509.230469 233.492188 C 509.15625 233.71875 509.125 233.949219 509.136719 234.1875 C 509.144531 234.421875 509.195312 234.648438 509.289062 234.867188 Z M 509.289062 234.867188 " fill-opacity="1" fill-rule="nonzero"/><path fill="#000000" d="M 452.554688 523.257812 C 452.96875 525.0625 452.136719 527.558594 451.582031 529.503906 C 450.820312 532.328125 449.710938 535.011719 448.253906 537.550781 C 446.3125 540.882812 442.289062 543.105469 439.097656 545.1875 C 432.613281 549.589844 425.769531 553.335938 418.566406 556.425781 C 397.480469 565.726562 374.730469 571.414062 352.675781 577.800781 C 335.75 582.65625 318.964844 587.929688 301.625 590.707031 C 287.617188 593.066406 272.773438 593.898438 258.902344 590.84375 C 247.527344 588.347656 237.121094 582.796875 229.632812 573.773438 C 222.140625 564.753906 218.257812 551.152344 217.703125 538.523438 C 216.867188 518.261719 222.835938 499.109375 230.046875 480.511719 C 236.152344 464.832031 241.285156 448.871094 246.695312 433.050781 C 249.191406 425.554688 251.828125 418.199219 254.738281 410.984375 C 257.652344 403.765625 260.425781 397.9375 263.339844 391.414062 C 274.992188 365.601562 284.5625 337.984375 302.597656 315.777344 C 306.472656 310.863281 310.820312 306.40625 315.636719 302.40625 C 320.453125 298.40625 325.628906 294.953125 331.175781 292.046875 C 341.980469 286.683594 353.078125 282.011719 364.464844 278.027344 C 376.398438 273.449219 388.464844 269.285156 400.257812 264.566406 C 412.046875 259.847656 421.203125 256.519531 428.554688 247.773438 C 435.90625 239.03125 437.988281 229.59375 440.070312 219.460938 C 442.148438 209.332031 443.535156 200.171875 444.507812 190.457031 C 445.160156 185.433594 445.390625 180.390625 445.203125 175.328125 C 445.0625 172.832031 441.179688 172.832031 441.316406 175.328125 C 442.148438 186.433594 439.929688 198.089844 437.988281 208.914062 C 436.460938 217.519531 435.074219 226.261719 432.023438 234.453125 C 430.90625 237.304688 429.46875 239.988281 427.707031 242.5 C 425.949219 245.007812 423.921875 247.277344 421.617188 249.300781 C 417.03125 252.875 412.035156 255.742188 406.636719 257.90625 C 395.261719 262.625 383.75 266.648438 372.234375 270.949219 C 360.722656 275.253906 347.960938 279.972656 336.167969 285.382812 C 325.222656 290.066406 315.511719 296.589844 307.035156 304.953125 C 286.507812 325.632812 275.6875 353.527344 264.3125 379.757812 C 258.484375 393.21875 252.105469 406.265625 247.109375 420.140625 C 241.285156 436.101562 236.289062 452.203125 230.464844 468.300781 C 226.996094 478.015625 222.835938 487.589844 219.78125 497.445312 C 216.476562 508.167969 214.488281 519.132812 213.816406 530.335938 C 213.261719 542.6875 214.925781 555.457031 220.613281 566.695312 C 221.953125 569.367188 223.511719 571.902344 225.289062 574.300781 C 227.070312 576.699219 229.039062 578.925781 231.203125 580.984375 C 233.367188 583.042969 235.691406 584.902344 238.175781 586.554688 C 240.660156 588.210938 243.269531 589.640625 246 590.84375 C 258.070312 595.980469 271.523438 597.089844 284.425781 596.535156 C 301.488281 595.703125 317.996094 591.679688 334.363281 587.097656 C 360.027344 579.742188 386.382812 573.082031 411.492188 563.503906 C 419.363281 560.609375 426.945312 557.09375 434.242188 552.957031 C 437.570312 550.875 440.902344 548.792969 444.230469 546.433594 C 447.558594 544.074219 447.699219 544.074219 449.222656 542.6875 C 450.949219 540.875 452.242188 538.792969 453.109375 536.441406 C 454.910156 532.417969 457.410156 526.589844 456.300781 522.148438 C 456.226562 521.898438 456.105469 521.675781 455.945312 521.472656 C 455.78125 521.273438 455.585938 521.109375 455.359375 520.984375 C 455.128906 520.863281 454.886719 520.785156 454.628906 520.757812 C 454.371094 520.734375 454.121094 520.753906 453.871094 520.828125 C 453.621094 520.902344 453.398438 521.019531 453.195312 521.183594 C 452.996094 521.347656 452.832031 521.542969 452.710938 521.769531 C 452.585938 522 452.511719 522.242188 452.484375 522.5 C 452.457031 522.757812 452.480469 523.007812 452.554688 523.257812 Z M 452.554688 523.257812 " fill-opacity="1" fill-rule="nonzero"/><path fill="#000000" d="M 366.824219 378.230469 C 365.992188 386.558594 362.386719 394.328125 359.195312 401.960938 C 356.003906 409.59375 354.203125 414.035156 351.566406 420.003906 C 345.601562 433.882812 339.636719 447.761719 333.117188 461.359375 C 330.203125 467.46875 327.152344 473.710938 323.960938 479.679688 C 323.867188 479.898438 323.816406 480.125 323.804688 480.363281 C 323.796875 480.597656 323.828125 480.828125 323.902344 481.054688 C 323.976562 481.277344 324.089844 481.484375 324.238281 481.667969 C 324.386719 481.851562 324.5625 482.003906 324.769531 482.121094 C 324.972656 482.242188 325.191406 482.320312 325.425781 482.359375 C 325.65625 482.398438 325.890625 482.394531 326.125 482.351562 C 326.355469 482.304688 326.570312 482.21875 326.773438 482.09375 C 326.972656 481.96875 327.144531 481.8125 327.289062 481.625 C 333.808594 469.6875 339.496094 457.199219 345.046875 444.707031 C 350.59375 432.214844 356.699219 417.921875 362.386719 404.460938 C 365.855469 395.996094 369.875 387.527344 370.710938 378.230469 C 370.988281 375.730469 367.101562 375.871094 366.824219 378.230469 Z M 366.824219 378.230469 " fill-opacity="1" fill-rule="nonzero"/><path fill="#000000" d="M 437.292969 454.699219 C 425.78125 458.03125 422.175781 469.550781 421.0625 480.375 C 419.953125 491.199219 419.953125 506.882812 424.808594 518.539062 C 427.25 524.09375 430.484375 529.136719 434.519531 533.667969 C 436.183594 535.609375 438.820312 532.835938 437.292969 530.890625 C 430.914062 523.257812 426.613281 514.929688 425.226562 505.078125 C 424.441406 498.574219 424.210938 492.050781 424.53125 485.507812 C 424.667969 479.855469 425.636719 474.351562 427.445312 468.992188 C 427.863281 467.738281 428.425781 466.546875 429.132812 465.429688 C 429.839844 464.308594 430.671875 463.289062 431.625 462.371094 C 432.582031 461.453125 433.632812 460.660156 434.777344 459.996094 C 435.921875 459.332031 437.132812 458.816406 438.402344 458.445312 C 440.761719 457.753906 439.792969 453.867188 437.292969 454.699219 Z M 437.292969 454.699219 " fill-opacity="1" fill-rule="nonzero"/><path fill="#000000" d="M 529.679688 463.164062 C 542.027344 462.332031 554.511719 465.941406 566.996094 465.523438 C 571.574219 465.246094 578.09375 463.859375 577.539062 457.890625 C 577.296875 455.84375 576.558594 453.992188 575.320312 452.339844 C 574.714844 451.664062 573.972656 451.199219 573.101562 450.953125 L 566.582031 448.730469 C 557.007812 445.539062 547.019531 445.261719 537.035156 444.429688 C 527.046875 443.597656 517.472656 442.902344 507.765625 443.875 C 498.691406 444.671875 490.136719 447.21875 482.101562 451.507812 C 474.75 455.394531 467.8125 460.390625 459.90625 463.441406 C 454.773438 465.386719 449.5 465.941406 444.089844 466.632812 L 431.328125 468.300781 C 428.832031 468.578125 428.832031 472.601562 431.328125 472.1875 L 451.304688 469.6875 C 466.839844 467.46875 478.355469 455.949219 492.921875 450.8125 C 510.398438 444.847656 529.820312 447.761719 547.855469 449.285156 C 552.597656 449.496094 557.265625 450.1875 561.863281 451.367188 L 567.96875 453.3125 L 570.742188 454.28125 L 571.992188 454.699219 C 572.269531 454.839844 571.4375 454.003906 571.851562 454.421875 C 572.425781 454.992188 572.867188 455.648438 573.179688 456.394531 C 573.492188 457.140625 573.652344 457.914062 573.65625 458.722656 C 573.515625 460.945312 570.328125 461.359375 568.523438 461.5 C 555.621094 462.75 542.582031 458.445312 529.679688 459.277344 C 527.183594 459.417969 527.183594 463.304688 529.679688 463.164062 Z M 529.679688 463.164062 " fill-opacity="1" fill-rule="nonzero"/><path fill="#000000" d="M 559.089844 467.605469 C 562.128906 467.855469 565.042969 468.59375 567.828125 469.828125 C 569.910156 470.9375 573.933594 473.15625 573.378906 476.210938 C 572.824219 479.265625 567.691406 478.847656 565.609375 478.984375 C 562.308594 479.035156 559.023438 478.804688 555.761719 478.292969 C 543.304688 476.328125 530.773438 475.40625 518.167969 475.515625 C 515.671875 475.65625 515.671875 479.542969 518.167969 479.402344 C 526.554688 479.242188 534.925781 479.566406 543.277344 480.375 C 551.042969 481.207031 559.089844 483.425781 566.996094 482.734375 C 569.769531 482.59375 573.378906 482.179688 575.457031 480.097656 C 575.910156 479.609375 576.28125 479.070312 576.574219 478.476562 C 576.867188 477.882812 577.070312 477.257812 577.179688 476.605469 C 577.292969 475.953125 577.308594 475.296875 577.226562 474.636719 C 577.144531 473.980469 576.972656 473.347656 576.707031 472.742188 C 574.070312 466.632812 565.195312 464.136719 559.089844 463.71875 C 556.59375 463.582031 556.59375 467.46875 559.089844 467.605469 Z M 559.089844 467.605469 " fill-opacity="1" fill-rule="nonzero"/><path fill="#000000" d="M 557.285156 483.148438 C 559.992188 483.765625 562.441406 484.921875 564.640625 486.621094 C 566.164062 488.007812 567.136719 490.503906 565.054688 491.894531 C 562.972656 493.28125 559.507812 493.140625 557.148438 493.003906 L 549.933594 492.726562 L 518.722656 491.617188 C 516.226562 491.476562 516.226562 495.363281 518.722656 495.5 L 557.425781 496.890625 C 562.835938 497.167969 569.355469 496.472656 570.050781 490.089844 C 570.742188 483.703125 562.972656 480.652344 558.257812 479.402344 C 558.019531 479.363281 557.78125 479.367188 557.542969 479.417969 C 557.304688 479.464844 557.082031 479.554688 556.878906 479.6875 C 556.675781 479.820312 556.503906 479.984375 556.359375 480.183594 C 556.21875 480.378906 556.117188 480.597656 556.054688 480.832031 C 555.996094 481.066406 555.980469 481.304688 556.007812 481.546875 C 556.035156 481.789062 556.105469 482.015625 556.222656 482.230469 C 556.335938 482.445312 556.484375 482.632812 556.667969 482.789062 C 556.851562 482.949219 557.058594 483.070312 557.285156 483.148438 Z M 557.285156 483.148438 " fill-opacity="1" fill-rule="nonzero"/><path fill="#000000" d="M 522.46875 496.613281 C 527.523438 497.5 532.46875 498.792969 537.3125 500.496094 C 542.027344 502.164062 547.300781 503.96875 551.320312 507.160156 C 552.636719 507.945312 553.5625 509.054688 554.097656 510.488281 C 554.511719 512.847656 552.015625 512.988281 550.351562 513.265625 C 546.757812 513.523438 543.199219 513.292969 539.667969 512.570312 C 532.871094 511.183594 526.492188 508.824219 519.695312 507.992188 C 516.378906 507.566406 513.066406 507.566406 509.753906 507.988281 C 506.441406 508.410156 503.234375 509.246094 500.132812 510.488281 C 494.167969 512.710938 488.480469 516.042969 482.238281 517.707031 C 472.113281 520.34375 460.875 519.789062 450.335938 519.648438 C 447.257812 519.8125 444.207031 520.183594 441.179688 520.761719 L 431.882812 522.007812 C 429.386719 522.425781 430.496094 526.171875 432.855469 525.757812 C 438.542969 525.0625 444.925781 523.535156 450.335938 523.535156 C 455.742188 523.535156 461.847656 523.675781 467.675781 523.398438 C 473.210938 523.328125 478.664062 522.632812 484.042969 521.316406 C 490.839844 519.234375 497.082031 515.484375 503.878906 513.265625 C 510.675781 511.046875 518.585938 511.324219 526.214844 513.265625 C 533.84375 515.207031 540.222656 517.289062 547.578125 517.289062 C 550.351562 517.152344 554.652344 517.152344 556.730469 514.929688 C 557.121094 514.433594 557.425781 513.886719 557.652344 513.292969 C 557.875 512.699219 558.003906 512.089844 558.042969 511.457031 C 558.078125 510.824219 558.019531 510.203125 557.867188 509.585938 C 557.714844 508.972656 557.476562 508.394531 557.148438 507.851562 C 554.234375 502.578125 547.160156 500.082031 541.890625 498 C 535.910156 495.671875 529.761719 493.960938 523.4375 492.863281 C 521.082031 492.449219 519.972656 496.195312 522.46875 496.613281 Z M 522.46875 496.613281 " fill-opacity="1" fill-rule="nonzero"/><path fill="#000000" d="M 874.121094 402.65625 C 885.21875 405.152344 895.902344 399.324219 903.113281 391.136719 C 907.085938 386.460938 910.597656 381.464844 913.65625 376.148438 C 917.125 370.597656 920.453125 364.90625 923.785156 359.21875 C 927.113281 353.527344 930.859375 348.945312 929.472656 343.671875 C 928.082031 338.398438 923.230469 337.984375 919.066406 339.230469 C 914.90625 340.480469 909.496094 344.367188 905.472656 347.699219 C 901.3125 351.210938 897.660156 355.1875 894.515625 359.632812 C 892.847656 362.132812 891.324219 364.769531 889.796875 367.40625 C 888.269531 370.042969 886.328125 372.816406 882.722656 373.371094 C 879.117188 373.929688 875.785156 373.511719 872.320312 374.34375 C 868.949219 375.074219 865.757812 376.277344 862.746094 377.953125 C 862.558594 378.097656 862.402344 378.269531 862.277344 378.46875 C 862.152344 378.671875 862.066406 378.886719 862.019531 379.121094 C 861.972656 379.351562 861.972656 379.585938 862.011719 379.820312 C 862.050781 380.050781 862.128906 380.269531 862.25 380.476562 C 862.367188 380.679688 862.519531 380.855469 862.703125 381.007812 C 862.886719 381.15625 863.089844 381.265625 863.316406 381.339844 C 863.539062 381.414062 863.769531 381.449219 864.007812 381.4375 C 864.246094 381.429688 864.472656 381.375 864.6875 381.285156 C 869.851562 378.75 875.308594 377.410156 881.058594 377.257812 C 882.136719 377.289062 883.199219 377.175781 884.246094 376.929688 C 885.296875 376.679688 886.296875 376.296875 887.246094 375.785156 C 888.195312 375.273438 889.0625 374.648438 889.847656 373.910156 C 890.632812 373.171875 891.308594 372.347656 891.878906 371.429688 C 894.652344 367.542969 896.59375 363.242188 899.507812 359.496094 C 902.511719 355.652344 905.933594 352.230469 909.773438 349.222656 C 913.242188 346.585938 917.820312 342.839844 922.257812 342.5625 C 929.609375 342.148438 923.230469 352.277344 921.703125 354.914062 C 916.433594 364.785156 910.609375 374.316406 904.222656 383.503906 C 897.703125 392.664062 887.300781 401.683594 875.09375 398.910156 C 872.734375 398.355469 871.625 402.101562 874.121094 402.65625 Z M 874.121094 402.65625 " fill-opacity="1" fill-rule="nonzero"/><path fill="#000000" d="M 907.136719 387.804688 C 907.894531 388.171875 908.6875 388.449219 909.511719 388.632812 C 910.332031 388.816406 911.164062 388.898438 912.007812 388.886719 C 912.851562 388.875 913.683594 388.765625 914.5 388.558594 C 915.316406 388.355469 916.101562 388.054688 916.847656 387.667969 C 920.316406 385.722656 922.953125 381.839844 925.449219 378.785156 C 930.746094 372.234375 935.554688 365.339844 939.875 358.105469 C 942.09375 354.5 944.175781 350.613281 946.117188 346.863281 C 947.898438 343.539062 949.328125 340.070312 950.417969 336.457031 C 950.929688 335.039062 951.125 333.582031 951.003906 332.078125 C 950.882812 330.578125 950.457031 329.167969 949.722656 327.851562 C 949.285156 327.21875 948.761719 326.65625 948.164062 326.171875 C 947.5625 325.6875 946.902344 325.300781 946.191406 325.003906 C 945.476562 324.707031 944.738281 324.519531 943.96875 324.4375 C 943.203125 324.355469 942.4375 324.382812 941.679688 324.519531 C 933.632812 325.632812 926.28125 332.152344 922.117188 338.675781 C 920.730469 340.757812 924.0625 342.703125 925.449219 340.621094 C 927.65625 337.242188 930.433594 334.421875 933.769531 332.152344 C 936.546875 330.210938 941.125 327.4375 944.453125 328.546875 C 951.527344 330.765625 942.925781 344.503906 941.125 347.976562 C 937.332031 355.308594 932.988281 362.292969 928.082031 368.929688 C 925.449219 372.539062 922.8125 376.007812 919.898438 379.339844 C 916.984375 382.671875 913.796875 386.558594 909.078125 384.476562 C 906.722656 383.363281 904.777344 386.695312 907.136719 387.804688 Z M 907.136719 387.804688 " fill-opacity="1" fill-rule="nonzero"/><path fill="#000000" d="M 926.558594 378.230469 C 932.523438 376.84375 937.792969 373.09375 942.234375 369.070312 C 947.394531 364.3125 951.742188 358.898438 955.273438 352.832031 C 958.464844 347.558594 962.070312 340.480469 961.375 334.097656 C 961.238281 331.183594 959.710938 327.714844 956.519531 327.15625 C 953.332031 326.601562 950.277344 330.074219 947.921875 331.875 C 945.5625 333.679688 948.753906 336.179688 950.695312 334.652344 L 953.609375 332.292969 C 954.164062 331.875 955.410156 330.765625 956.242188 331.183594 C 957.078125 331.597656 957.214844 332.570312 957.355469 332.988281 C 958.1875 335.902344 957.214844 339.230469 956.242188 342.007812 C 954.472656 346.835938 952.066406 351.320312 949.03125 355.46875 C 943.34375 363.378906 935.296875 372.125 925.585938 374.484375 C 923.230469 375.175781 924.199219 378.925781 926.558594 378.230469 Z M 926.558594 378.230469 " fill-opacity="1" fill-rule="nonzero"/><path fill="#000000" d="M 913.65625 342.703125 C 910.882812 340.34375 906.445312 342.007812 903.253906 342.839844 C 900.0625 343.671875 894.929688 345.339844 890.769531 346.863281 C 882.582031 349.78125 874.539062 352.972656 866.632812 356.300781 C 864.273438 357.273438 865.242188 361.019531 867.601562 360.050781 C 874.816406 356.996094 882.167969 354.082031 889.382812 351.445312 L 901.171875 347.421875 L 906.304688 346.03125 C 907.136719 345.894531 910.1875 344.785156 910.882812 345.476562 C 911.578125 346.171875 915.460938 344.226562 913.65625 342.703125 Z M 913.65625 342.703125 " fill-opacity="1" fill-rule="nonzero"/><path fill="#000000" d="M 877.867188 401.128906 C 875.679688 402.605469 873.414062 403.945312 871.070312 405.152344 C 867.90625 406.871094 864.53125 407.890625 860.945312 408.207031 C 853.730469 408.761719 846.65625 406.402344 840.273438 403.070312 C 838.054688 401.960938 836.113281 405.292969 838.332031 406.402344 C 845.40625 410.148438 853.453125 412.785156 861.636719 411.953125 C 865.46875 411.65625 869.078125 410.589844 872.457031 408.761719 C 875.34375 407.410156 878.070312 405.789062 880.640625 403.90625 C 882.582031 402.378906 879.808594 399.601562 877.867188 401.128906 Z M 877.867188 401.128906 " fill-opacity="1" fill-rule="nonzero"/><path fill="#000000" d="M 794.359375 431.246094 C 801.988281 422.222656 809.480469 413.066406 815.304688 402.515625 C 820.261719 393.011719 823.867188 383.019531 826.125 372.539062 C 829.175781 359.21875 842.769531 351.027344 853.3125 343.8125 L 872.457031 330.90625 L 881.890625 324.519531 C 884.386719 322.855469 887.714844 320.636719 890.769531 322.023438 C 893.820312 323.410156 892.433594 328.683594 890.492188 330.90625 C 888.546875 333.125 884.664062 336.734375 881.75 339.507812 C 875.925781 345.339844 870.238281 351.304688 864.828125 357.414062 C 863.164062 359.355469 865.800781 362.132812 867.601562 360.1875 C 872.875 354.359375 878.285156 348.53125 883.832031 342.980469 C 886.746094 340.066406 889.660156 337.429688 892.433594 334.511719 C 893.542969 333.488281 894.453125 332.308594 895.167969 330.976562 C 895.882812 329.644531 896.355469 328.234375 896.59375 326.742188 C 897.289062 320.636719 892.15625 316.886719 886.46875 318 C 880.78125 319.109375 879.808594 321.191406 876.894531 323.273438 L 866.492188 330.210938 L 845.824219 344.226562 C 839.566406 348.222656 834.015625 353.03125 829.175781 358.660156 C 827.3125 360.984375 825.746094 363.496094 824.480469 366.195312 C 823.214844 368.890625 822.28125 371.703125 821.6875 374.621094 C 820.488281 379.980469 818.867188 385.207031 816.832031 390.304688 C 810.867188 404.738281 801.433594 416.671875 791.582031 428.609375 C 789.917969 430.414062 792.695312 433.1875 794.359375 431.246094 Z M 794.359375 431.246094 " fill-opacity="1" fill-rule="nonzero"/><path fill="#000000" d="M 864.828125 410.566406 C 856.644531 425.554688 848.875 440.820312 841.660156 456.226562 C 840.691406 458.445312 844.019531 460.527344 844.992188 458.167969 C 852.203125 442.765625 859.972656 427.496094 868.296875 412.507812 C 869.40625 410.289062 866.078125 408.347656 864.828125 410.566406 Z M 864.828125 410.566406 " fill-opacity="1" fill-rule="nonzero"/><path fill="#000000" d="M 855.535156 439.988281 C 865.660156 451.921875 858.308594 469.6875 850.816406 481.066406 C 844.714844 490.367188 838.054688 499.109375 831.394531 507.851562 C 815.027344 529.410156 798.148438 550.597656 780.765625 571.414062 C 776.601562 576.410156 772.578125 581.964844 767.722656 586.402344 C 763.285156 590.332031 758.566406 593.894531 753.574219 597.089844 C 745.945312 601.949219 737.207031 606.804688 728.328125 608.75 C 726.679688 609.085938 725.015625 609.269531 723.332031 609.304688 C 719.078125 609.722656 714.824219 609.722656 710.570312 609.304688 C 697.949219 608.191406 685.464844 603.890625 675.613281 595.703125 C 669.117188 590.308594 663.890625 583.878906 659.9375 576.410156 L 655.363281 567.808594 L 639.546875 538.800781 L 638.4375 536.71875 C 638.292969 536.53125 638.121094 536.375 637.921875 536.25 C 637.71875 536.125 637.503906 536.039062 637.269531 535.992188 C 637.039062 535.945312 636.804688 535.945312 636.574219 535.984375 C 636.339844 536.023438 636.121094 536.101562 635.914062 536.222656 C 635.710938 536.339844 635.535156 536.492188 635.386719 536.675781 C 635.234375 536.859375 635.125 537.0625 635.050781 537.289062 C 634.976562 537.515625 634.945312 537.746094 634.953125 537.980469 C 634.964844 538.21875 635.015625 538.445312 635.109375 538.664062 L 648.5625 563.644531 C 653.972656 573.359375 658.691406 583.765625 666.179688 592.09375 C 681.441406 609.164062 705.578125 615.964844 727.910156 612.773438 C 733.183594 611.941406 738.316406 609.582031 743.03125 607.359375 C 750.914062 603.632812 758.265625 599.050781 765.089844 593.621094 C 770.636719 589.320312 774.800781 584.460938 779.375 579.1875 C 796.855469 558.507812 813.640625 537.273438 830.148438 515.902344 C 837.640625 506.1875 845.128906 496.472656 852.066406 486.339844 C 859 476.210938 865.660156 463.441406 863.996094 450.398438 C 863.695312 447.972656 863.058594 445.640625 862.09375 443.398438 C 861.125 441.15625 859.863281 439.09375 858.308594 437.210938 C 856.644531 435.269531 854.007812 438.046875 855.535156 439.988281 Z M 855.535156 439.988281 " fill-opacity="1" fill-rule="nonzero"/><path fill="#000000" d="M 844.714844 454.421875 C 833.894531 460.113281 822.101562 453.589844 813.5 447.066406 C 804.230469 440.050781 796.277344 431.769531 789.640625 422.222656 C 788.253906 420.140625 784.925781 422.085938 786.3125 424.167969 C 793.625 434.714844 802.457031 443.785156 812.808594 451.367188 C 822.519531 458.445312 835.140625 463.859375 846.792969 457.753906 C 848.875 456.640625 846.933594 453.3125 844.714844 454.421875 Z M 844.714844 454.421875 " fill-opacity="1" fill-rule="nonzero"/><path fill="#000000" d="M 809.617188 403.765625 C 797.410156 400.574219 786.175781 409.039062 778.128906 417.226562 C 770.082031 425.417969 763.007812 433.742188 755.65625 441.929688 C 740.535156 458.863281 725.691406 476.070312 710.710938 493.140625 C 704.605469 500.21875 698.503906 507.160156 692.121094 514.097656 C 690.457031 515.902344 693.09375 518.679688 694.894531 516.875 C 707.382812 503.273438 719.3125 489.257812 731.519531 475.378906 C 743.726562 461.5 759.539062 443.597656 773.6875 427.777344 C 778.820312 422.085938 783.953125 416.117188 790.472656 411.953125 C 796.992188 407.789062 801.710938 405.710938 808.507812 407.511719 C 808.757812 407.585938 809.007812 407.609375 809.265625 407.582031 C 809.523438 407.554688 809.765625 407.480469 809.992188 407.355469 C 810.21875 407.230469 810.414062 407.070312 810.578125 406.867188 C 810.742188 406.667969 810.859375 406.441406 810.933594 406.195312 C 811.003906 405.945312 811.027344 405.691406 811.003906 405.433594 C 810.976562 405.179688 810.898438 404.933594 810.777344 404.707031 C 810.652344 404.480469 810.492188 404.285156 810.289062 404.121094 C 810.089844 403.957031 809.867188 403.839844 809.617188 403.765625 Z M 809.617188 403.765625 " fill-opacity="1" fill-rule="nonzero"/><path fill="#000000" d="M 454.21875 523.121094 C 450.75 533.804688 447.28125 544.628906 444.089844 555.457031 C 441.871094 562.671875 439.792969 570.027344 438.125 577.523438 C 437.015625 582.65625 435.074219 589.875 440.207031 593.621094 C 445.339844 597.367188 453.386719 595.007812 459.488281 593.757812 L 489.453125 587.929688 C 519.140625 581.964844 548.824219 576.132812 578.371094 569.332031 C 588.5 566.972656 599.875 565.308594 608.613281 559.339844 C 611.925781 557.152344 614.890625 554.5625 617.503906 551.570312 C 620.117188 548.582031 622.285156 545.296875 624.011719 541.714844 C 627.339844 535.332031 629.28125 528.253906 631.777344 521.59375 C 649.675781 472.878906 668.261719 424.582031 685.324219 375.730469 C 689.347656 363.933594 693.371094 352.277344 697.253906 340.480469 C 698.503906 336.59375 699.335938 332.292969 701 328.683594 C 701.882812 327.035156 702.621094 325.324219 703.21875 323.550781 C 705.023438 318.832031 706.132812 312.585938 702.527344 308.285156 C 698.917969 303.980469 691.984375 303.84375 686.574219 304.257812 C 675.753906 305.089844 665.070312 306.894531 654.25 308.699219 C 638.992188 311.058594 623.734375 313.695312 608.335938 316.472656 C 584.058594 320.773438 559.785156 325.355469 535.507812 329.933594 L 532.871094 330.351562 C 531.761719 330.628906 533.425781 330.488281 532.179688 330.351562 C 529.574219 330.171875 526.996094 330.363281 524.445312 330.929688 C 521.898438 331.496094 519.480469 332.414062 517.195312 333.679688 C 510.539062 337.429688 507.902344 343.671875 506.097656 350.75 C 504.296875 357.828125 503.1875 361.160156 501.660156 366.292969 C 493.199219 393.914062 484.179688 421.253906 475.027344 448.59375 C 474.332031 450.675781 473.640625 452.617188 473.085938 454.558594 C 472.527344 456.503906 475.996094 457.890625 476.828125 455.53125 C 484.042969 433.882812 491.257812 412.230469 498.191406 390.441406 C 502.078125 378.089844 506.097656 365.601562 509.566406 352.972656 C 510.132812 350.484375 510.824219 348.03125 511.648438 345.617188 C 512.402344 343.835938 513.421875 342.21875 514.703125 340.769531 C 515.984375 339.324219 517.464844 338.117188 519.140625 337.148438 C 523.4375 334.792969 527.878906 334.375 532.59375 334.375 L 536.480469 333.679688 L 547.023438 331.597656 L 583.78125 324.796875 C 612.636719 319.523438 641.628906 314.25 670.757812 310.085938 C 675.335938 309.394531 680.054688 308.699219 684.769531 308.285156 C 689.488281 307.867188 695.453125 306.894531 699.058594 310.367188 C 702.664062 313.835938 700.722656 319.800781 699.195312 323.550781 C 698.640625 324.796875 697.949219 325.910156 697.394531 327.019531 C 695.453125 331.320312 694.480469 336.316406 692.953125 340.898438 C 677.277344 389.054688 659.382812 436.378906 641.628906 483.703125 L 629.003906 517.84375 C 626.507812 524.785156 624.148438 532.695312 621.097656 538.941406 C 619.507812 542.382812 617.488281 545.554688 615.039062 548.453125 C 612.589844 551.347656 609.800781 553.867188 606.671875 556.011719 C 602.230469 559.0625 597.238281 560.589844 592.105469 561.976562 C 565.886719 568.917969 538.976562 573.914062 512.339844 579.328125 C 493.058594 583.210938 473.777344 586.542969 454.632812 590.707031 C 451.027344 591.539062 446.589844 592.648438 443.121094 590.84375 C 439.652344 589.042969 441.457031 580.160156 442.425781 576.273438 C 445.894531 561.699219 450.472656 547.40625 455.050781 533.25 L 457.964844 524.089844 C 458.796875 521.730469 455.050781 520.761719 454.21875 523.121094 Z M 454.21875 523.121094 " fill-opacity="1" fill-rule="nonzero"/><path fill="#000000" d="M 719.589844 481.34375 C 714.179688 469.132812 710.292969 456.085938 706.269531 443.320312 C 701.417969 428.332031 696.839844 413.34375 691.707031 398.355469 C 689.488281 391.96875 687.265625 385.445312 684.492188 379.203125 C 683.519531 376.980469 680.191406 378.925781 681.164062 381.285156 C 686.574219 393.496094 690.457031 406.542969 694.480469 419.308594 C 699.335938 434.296875 703.914062 449.285156 709.046875 464.136719 C 711.265625 470.660156 713.484375 477.042969 716.257812 483.289062 C 717.230469 485.648438 720.558594 483.566406 719.589844 481.34375 Z M 719.589844 481.34375 " fill-opacity="1" fill-rule="nonzero"/><path fill="#000000" d="M 549.378906 258.878906 C 551.042969 279.832031 554.375 300.652344 555.066406 321.605469 C 555.207031 324.105469 559.089844 324.105469 558.953125 321.605469 C 558.257812 300.652344 554.929688 279.832031 553.265625 258.878906 C 553.125 256.519531 549.101562 256.378906 549.378906 258.878906 Z M 549.378906 258.878906 " fill-opacity="1" fill-rule="nonzero"/><path fill="#000000" d="M 414.542969 259.570312 C 417.824219 268.507812 420.277344 277.667969 421.898438 287.050781 C 424.253906 299.402344 426.195312 312.03125 427.863281 324.519531 C 431.46875 352.277344 433.964844 380.3125 435.90625 408.207031 C 436.878906 421.253906 437.710938 434.4375 438.265625 447.484375 C 438.402344 449.980469 442.289062 449.980469 442.148438 447.484375 C 440.902344 422.222656 439.097656 396.828125 436.878906 371.707031 C 434.382812 344.503906 431.46875 317.164062 426.472656 290.378906 C 424.394531 279.695312 422.3125 268.730469 418.289062 258.460938 C 417.457031 256.238281 413.710938 257.210938 414.542969 259.570312 Z M 414.542969 259.570312 " fill-opacity="1" fill-rule="nonzero"/><path fill="#000000" d="M 275.6875 514.238281 C 285.398438 504.105469 299.128906 497.582031 311.753906 491.894531 C 324.375 486.203125 341.023438 480.097656 355.867188 475.101562 C 368.074219 470.9375 380.003906 466.914062 391.933594 462.332031 C 403.863281 457.753906 417.875 452.0625 431.605469 450.121094 C 435.90625 449.425781 442.011719 448.730469 445.757812 451.644531 C 447.421875 452.757812 447.835938 454.5625 448.390625 456.363281 C 449.410156 459.761719 450.011719 463.230469 450.195312 466.773438 C 450.472656 469.273438 454.355469 469.273438 454.078125 466.773438 C 453.664062 461.777344 453.246094 455.253906 450.335938 450.8125 C 447.421875 446.371094 443.257812 445.957031 438.960938 445.816406 C 432.957031 445.738281 427.085938 446.574219 421.339844 448.316406 C 414.039062 450.210938 406.871094 452.523438 399.839844 455.253906 C 387.078125 459.835938 374.453125 464.96875 361.554688 469.132812 C 346.292969 474.128906 331.175781 479.402344 316.332031 485.648438 C 307.714844 489.261719 299.347656 493.378906 291.222656 498 C 284.703125 501.746094 278.183594 505.910156 273.050781 511.460938 C 271.246094 513.265625 274.023438 516.042969 275.6875 514.238281 Z M 275.6875 514.238281 " fill-opacity="1" fill-rule="nonzero"/><path fill="#000000" d="M 633.445312 510.765625 C 631.5 539.078125 632.195312 567.390625 633.582031 595.703125 C 635.386719 628.871094 638.300781 662.039062 641.90625 695.210938 C 645.511719 728.378906 649.675781 760.4375 654.390625 792.914062 C 656.609375 807.625 658.828125 822.195312 661.1875 836.90625 C 663.128906 848.703125 664.792969 860.640625 667.429688 872.296875 C 670.066406 883.953125 673.671875 896.722656 676.167969 909.074219 C 677.375 915.21875 678.160156 921.417969 678.527344 927.671875 C 678.804688 932.113281 678.804688 937.109375 677 941.273438 C 675.199219 945.433594 673.117188 945.574219 669.925781 946.40625 C 665.730469 947.449219 661.476562 948.144531 657.164062 948.488281 C 645.613281 949.484375 634.101562 949.160156 622.625 947.515625 C 611.664062 945.851562 600.011719 943.074219 590.996094 936.414062 C 589.167969 935.082031 587.546875 933.535156 586.136719 931.769531 C 584.722656 930.003906 583.570312 928.082031 582.671875 926.003906 C 580.976562 920.890625 579.777344 915.664062 579.066406 910.324219 C 577.351562 896.402344 576.613281 882.433594 576.847656 868.410156 C 576.847656 853.5625 577.261719 838.710938 577.679688 824 C 578.09375 809.289062 578.09375 797.214844 578.09375 783.890625 C 577.957031 763.074219 578.371094 742.394531 579.066406 721.71875 C 580.175781 679.804688 582.117188 638.03125 581.980469 596.257812 C 581.980469 586.402344 581.839844 576.550781 581.5625 566.835938 C 581.5625 566.578125 581.511719 566.332031 581.414062 566.09375 C 581.316406 565.855469 581.175781 565.644531 580.992188 565.460938 C 580.8125 565.28125 580.601562 565.140625 580.363281 565.039062 C 580.125 564.941406 579.878906 564.894531 579.621094 564.894531 C 579.363281 564.894531 579.117188 564.941406 578.878906 565.039062 C 578.640625 565.140625 578.429688 565.28125 578.246094 565.460938 C 578.066406 565.644531 577.925781 565.855469 577.828125 566.09375 C 577.726562 566.332031 577.679688 566.578125 577.679688 566.835938 C 578.925781 609.027344 577.402344 651.355469 576.015625 693.542969 C 575.320312 714.640625 574.625 735.734375 574.347656 756.828125 C 574.070312 773.898438 574.625 790.96875 574.210938 808.039062 C 573.65625 837.183594 571.851562 866.328125 573.792969 895.472656 C 574.117188 901.996094 574.855469 908.472656 576.015625 914.902344 C 576.652344 920 577.996094 924.902344 580.035156 929.613281 C 584.753906 938.914062 594.878906 944.046875 604.3125 947.238281 C 615.828125 951.125 628.3125 952.511719 640.378906 952.929688 C 652.449219 953.34375 660.910156 952.789062 670.621094 950.152344 C 674.089844 949.320312 677.277344 948.070312 679.359375 945.019531 C 681.441406 941.964844 682.410156 936.554688 682.550781 932.390625 C 682.964844 919.621094 679.777344 906.714844 676.863281 894.5 C 673.949219 882.289062 671.175781 872.019531 669.09375 860.640625 C 666.738281 847.039062 664.515625 833.574219 662.4375 820.113281 C 657.441406 787.917969 652.863281 755.71875 648.980469 723.382812 C 645.097656 691.046875 641.488281 655.242188 639.132812 621.101562 C 636.910156 590.707031 635.523438 560.175781 636.496094 529.640625 C 636.632812 523.398438 636.910156 517.011719 637.328125 510.765625 C 637.464844 508.269531 633.582031 508.269531 633.445312 510.765625 Z M 633.445312 510.765625 " fill-opacity="1" fill-rule="nonzero"/><path fill="#000000" d="M 575.320312 686.742188 C 562.558594 687.578125 549.796875 689.101562 537.035156 689.660156 C 520.867188 690.285156 504.824219 689.175781 488.898438 686.328125 C 477.011719 684.164062 465.3125 681.25 453.800781 677.585938 C 451.445312 676.890625 450.472656 680.636719 452.832031 681.332031 C 471.78125 687.363281 491.152344 691.296875 510.953125 693.128906 C 525.355469 694.078125 539.734375 693.84375 554.097656 692.433594 L 575.320312 690.628906 C 577.816406 690.492188 577.816406 686.605469 575.320312 686.742188 Z M 575.320312 686.742188 " fill-opacity="1" fill-rule="nonzero"/><path fill="#000000" d="M 452.554688 592.925781 C 453.246094 620.683594 452.136719 648.441406 450.890625 676.058594 C 449.363281 708.53125 447.144531 741.007812 444.507812 773.34375 C 442.289062 802.074219 439.652344 830.9375 436.738281 859.667969 C 436.140625 863.109375 435.816406 866.582031 435.769531 870.074219 L 435.769531 874.101562 C 435.625 879.738281 434.699219 885.242188 432.992188 890.617188 C 431.953125 894.34375 430.46875 897.890625 428.542969 901.246094 C 426.617188 904.605469 424.308594 907.679688 421.617188 910.460938 C 414.40625 917.816406 404.972656 921.980469 394.984375 923.921875 C 388 925.125 380.972656 925.496094 373.898438 925.035156 C 364.777344 924.625 355.714844 923.65625 346.710938 922.121094 C 334.226562 919.898438 321.464844 916.429688 310.503906 909.90625 C 299.546875 903.382812 289.003906 889.226562 290.113281 873.960938 C 290.527344 867.4375 292.195312 860.777344 293.582031 854.253906 C 295.9375 843.570312 298.574219 832.882812 301.070312 822.195312 C 308.425781 791.664062 315.359375 760.992188 321.1875 730.042969 C 328.605469 691.894531 333.878906 653.453125 337 614.714844 C 337.695312 604.863281 338.25 595.148438 338.664062 585.292969 C 338.804688 582.796875 334.917969 582.796875 334.78125 585.292969 C 333.046875 625.929688 328.609375 666.269531 321.464844 706.3125 C 315.777344 739.757812 308.703125 772.929688 300.933594 805.957031 C 298.160156 818.308594 295.105469 830.523438 292.195312 842.875 C 290.390625 851.203125 288.308594 859.527344 286.921875 867.855469 C 284.703125 881.734375 288.171875 895.195312 298.296875 905.328125 C 305.789062 912.820312 315.636719 917.539062 325.625 920.871094 C 341.300781 926.144531 358.085938 928.226562 374.59375 928.917969 C 396.371094 930.03125 419.398438 924.0625 431.328125 904.214844 C 437.292969 894.222656 439.792969 882.148438 439.652344 870.492188 C 439.628906 868.070312 439.816406 865.664062 440.207031 863.277344 C 440.902344 856.753906 441.59375 850.230469 442.148438 843.707031 C 443.675781 829.136719 444.925781 814.5625 446.171875 799.992188 C 449.085938 767.097656 451.445312 734.347656 453.386719 701.453125 C 455.1875 671.339844 456.578125 641.222656 456.578125 611.109375 C 456.578125 605 456.578125 599.035156 456.4375 592.925781 C 456.300781 590.429688 452.414062 590.429688 452.554688 592.925781 Z M 452.554688 592.925781 " fill-opacity="1" fill-rule="nonzero"/><path fill="#000000" d="M 402.890625 785.695312 C 391.511719 786.613281 380.15625 786.367188 368.828125 784.964844 C 357.496094 783.5625 346.425781 781.03125 335.613281 777.367188 C 333.253906 776.675781 332.285156 780.421875 334.640625 781.117188 C 345.609375 784.835938 356.839844 787.40625 368.335938 788.832031 C 379.828125 790.257812 391.347656 790.507812 402.890625 789.582031 C 405.390625 789.304688 405.390625 785.417969 402.890625 785.695312 Z M 402.890625 785.695312 " fill-opacity="1" fill-rule="nonzero"/><path fill="#000000" d="M 645.234375 802.90625 C 635.296875 805.367188 625.214844 806.292969 614.992188 805.679688 C 612.496094 805.542969 612.496094 809.429688 614.992188 809.566406 C 625.546875 810.199219 635.953125 809.226562 646.207031 806.652344 C 646.472656 806.605469 646.722656 806.511719 646.949219 806.359375 C 647.179688 806.210938 647.367188 806.023438 647.515625 805.792969 C 647.664062 805.566406 647.757812 805.316406 647.800781 805.046875 C 647.84375 804.777344 647.832031 804.511719 647.765625 804.25 C 647.695312 803.984375 647.578125 803.746094 647.410156 803.53125 C 647.242188 803.316406 647.035156 803.148438 646.796875 803.019531 C 646.554688 802.890625 646.296875 802.816406 646.027344 802.796875 C 645.753906 802.777344 645.492188 802.8125 645.234375 802.90625 Z M 645.234375 802.90625 " fill-opacity="1" fill-rule="nonzero"/><path fill="#000000" d="M 537.171875 252.078125 C 524.828125 260.542969 508.179688 262.625 493.476562 263.457031 C 484.769531 263.777344 476.074219 263.546875 467.398438 262.761719 C 459.765625 262.070312 452.136719 261.375 444.648438 259.988281 C 436.339844 258.449219 428.199219 256.273438 420.230469 253.464844 C 419.984375 253.390625 419.730469 253.367188 419.472656 253.398438 C 419.21875 253.425781 418.976562 253.5 418.75 253.625 C 418.519531 253.746094 418.328125 253.910156 418.164062 254.109375 C 418 254.3125 417.882812 254.535156 417.808594 254.785156 C 417.738281 255.03125 417.714844 255.285156 417.738281 255.542969 C 417.765625 255.800781 417.839844 256.042969 417.964844 256.269531 C 418.085938 256.496094 418.25 256.691406 418.449219 256.855469 C 418.652344 257.019531 418.875 257.136719 419.121094 257.210938 C 433.910156 262.152344 449.074219 265.207031 464.621094 266.371094 C 482.101562 267.898438 499.71875 268.175781 517.058594 264.289062 C 524.6875 262.484375 532.59375 259.988281 539.253906 255.40625 C 541.195312 254.019531 539.253906 250.550781 537.171875 252.078125 Z M 537.171875 252.078125 " fill-opacity="1" fill-rule="nonzero"/><path fill="#000000" d="M 577.261719 653.160156 C 541.519531 641.464844 507.164062 626.566406 474.195312 608.46875 C 471.972656 607.222656 470.03125 610.691406 472.25 611.800781 C 505.507812 630.121094 540.1875 645.15625 576.292969 656.90625 C 578.648438 657.738281 579.621094 653.992188 577.261719 653.160156 Z M 577.261719 653.160156 " fill-opacity="1" fill-rule="nonzero"/><path fill="#000000" d="M 527.183594 305.925781 C 520.859375 306.273438 514.535156 306.234375 508.214844 305.800781 C 501.890625 305.371094 495.621094 304.550781 489.402344 303.347656 C 483.179688 302.140625 477.058594 300.558594 471.03125 298.597656 C 465.007812 296.640625 459.125 294.316406 453.386719 291.628906 C 451.167969 290.65625 449.085938 293.988281 451.445312 295.097656 C 457.339844 297.84375 463.378906 300.21875 469.5625 302.222656 C 475.75 304.230469 482.03125 305.851562 488.414062 307.09375 C 494.796875 308.332031 501.230469 309.179688 507.714844 309.632812 C 514.203125 310.089844 520.691406 310.148438 527.183594 309.808594 C 529.679688 309.671875 529.679688 305.785156 527.183594 305.925781 Z M 527.183594 305.925781 " fill-opacity="1" fill-rule="nonzero"/><path fill="#000000" d="M 554.929688 729.074219 C 550.210938 733.792969 546.742188 739.621094 543.554688 745.308594 C 540.363281 751 536.894531 757.382812 534.121094 763.492188 C 528.015625 777.507812 525.660156 792.636719 524.132812 807.761719 C 522.882812 819.835938 521.773438 831.910156 520.25 844.125 C 519.417969 850.507812 518.863281 857.167969 518.167969 863.691406 C 516.503906 882.84375 514.976562 901.996094 513.589844 921.148438 C 512.0625 941.828125 510.675781 962.503906 509.152344 983.183594 C 508.179688 997.476562 507.210938 1011.632812 506.097656 1025.929688 C 505.960938 1026.761719 505.960938 1027.734375 505.820312 1028.703125 C 505.683594 1029.675781 509.566406 1031.203125 509.707031 1028.703125 C 510.816406 1015.9375 511.648438 1003.167969 512.480469 990.402344 C 514.007812 970.414062 515.394531 950.429688 516.78125 930.445312 C 518.167969 910.460938 519.695312 890.894531 521.496094 871.1875 C 522.882812 855.085938 525.105469 839.265625 526.492188 823.304688 C 527.878906 807.347656 528.988281 792.359375 533.289062 777.507812 C 535.3125 770.488281 538.085938 763.78125 541.613281 757.382812 C 544.640625 751.25 547.96875 745.28125 551.597656 739.480469 C 553.355469 736.757812 555.34375 734.210938 557.5625 731.847656 C 559.367188 730.042969 556.59375 727.269531 554.929688 729.074219 Z M 554.929688 729.074219 " fill-opacity="1" fill-rule="nonzero"/><path fill="#000000" d="M 344.074219 476.90625 L 357.253906 408.902344 L 326.320312 484.539062 Z M 344.074219 476.90625 " fill-opacity="1" fill-rule="nonzero"/><path fill="#000000" d="M 576.152344 568.777344 L 463.234375 606.804688 C 457.824219 608.46875 442.84375 614.578125 442.84375 609.441406 C 442.84375 604.308594 443.535156 595.5625 443.535156 595.5625 Z M 576.152344 568.777344 " fill-opacity="1" fill-rule="nonzero"/><path fill="#000000" d="M 442.566406 546.710938 C 442.148438 548.101562 341.4375 606.109375 336.167969 607.082031 C 330.898438 608.054688 339.496094 582.796875 339.082031 584.183594 C 338.664062 585.570312 444.367188 540.46875 442.566406 546.710938 Z M 442.566406 546.710938 " fill-opacity="1" fill-rule="nonzero"/><path fill="#000000" d="M 715.289062 480.097656 C 712.652344 477.875 695.3125 509.933594 694.894531 512.847656 C 693.648438 520.203125 720.699219 485.09375 720.699219 485.09375 Z M 715.289062 480.097656 " fill-opacity="1" fill-rule="nonzero"/><path fill="#000000" d="M 670.757812 415.007812 C 672.425781 415.007812 636.078125 511.183594 648.839844 557.675781 C 651.339844 566.835938 633.859375 536.304688 634.277344 531.445312 C 634.691406 526.589844 632.472656 511.460938 636.078125 500.082031 C 647.316406 465.523438 670.757812 415.007812 670.757812 415.007812 Z M 670.757812 415.007812 " fill-opacity="1" fill-rule="nonzero"/><path fill="#000000" d="M 579.066406 691.046875 C 579.066406 691.046875 530.375 698.679688 502.214844 698.679688 C 485.542969 698.710938 468.988281 697.320312 452.554688 694.515625 L 452.554688 680.222656 C 478.539062 687.570312 505.035156 691.410156 532.039062 691.738281 C 544.664062 691.878906 568.9375 689.378906 576.015625 688.6875 C 578.511719 688.410156 579.066406 691.046875 579.066406 691.046875 Z M 579.066406 691.046875 " fill-opacity="1" fill-rule="nonzero"/><path fill="#000000" d="M 572.824219 87.480469 C 576.015625 100.386719 575.320312 114.542969 574.625 127.726562 C 574.347656 134.527344 573.792969 141.328125 573.515625 148.128906 C 573.238281 154.929688 573.101562 160.894531 572.269531 167.140625 C 571.453125 173.148438 569.878906 178.953125 567.550781 184.550781 C 565.226562 190.148438 562.21875 195.355469 558.535156 200.171875 C 554.066406 206.222656 548.886719 211.589844 543 216.269531 C 541.382812 217.464844 539.664062 218.492188 537.84375 219.34375 C 536.023438 220.199219 534.136719 220.863281 532.183594 221.339844 C 530.230469 221.816406 528.25 222.09375 526.238281 222.175781 C 524.230469 222.257812 522.234375 222.140625 520.25 221.820312 C 502.769531 219.183594 486.539062 208.222656 474.332031 195.871094 C 472.804688 194.203125 470.171875 196.839844 471.417969 198.367188 C 474.148438 201.441406 477.078125 204.308594 480.207031 206.96875 C 483.339844 209.628906 486.640625 212.054688 490.113281 214.25 C 493.585938 216.445312 497.195312 218.386719 500.941406 220.074219 C 504.6875 221.757812 508.535156 223.175781 512.480469 224.320312 C 520.527344 226.539062 529.265625 227.097656 537.171875 223.765625 C 545.078125 220.433594 550.074219 215.023438 555.207031 209.332031 C 559.738281 204.507812 563.667969 199.234375 566.996094 193.511719 C 570.101562 187.390625 572.507812 181.007812 574.210938 174.359375 C 575.613281 168.285156 576.398438 162.132812 576.570312 155.898438 C 576.847656 148.265625 577.261719 140.632812 577.679688 133 C 578.09375 125.367188 578.511719 117.179688 578.371094 109.128906 C 578.445312 101.273438 577.476562 93.546875 575.457031 85.953125 C 574.902344 84.148438 572.40625 85.953125 572.824219 87.480469 Z M 572.824219 87.480469 " fill-opacity="1" fill-rule="nonzero"/><path fill="#000000" d="M 455.1875 142.023438 C 451.582031 138.828125 446.726562 135.222656 442.011719 134.109375 C 441.339844 133.925781 440.65625 133.800781 439.960938 133.738281 C 439.265625 133.675781 438.574219 133.671875 437.878906 133.734375 C 437.183594 133.792969 436.5 133.914062 435.828125 134.09375 C 435.152344 134.273438 434.5 134.511719 433.871094 134.808594 C 433.238281 135.105469 432.640625 135.457031 432.070312 135.859375 C 431.503906 136.261719 430.972656 136.710938 430.484375 137.210938 C 429.996094 137.707031 429.554688 138.242188 429.160156 138.816406 C 428.765625 139.394531 428.425781 140 428.140625 140.632812 C 425.503906 146.046875 425.503906 152.984375 427.027344 158.675781 C 428.554688 164.367188 433.132812 169.917969 438.402344 173.527344 C 441.335938 175.660156 444.539062 177.25 448.011719 178.300781 C 451.484375 179.347656 455.035156 179.789062 458.65625 179.632812 C 460.460938 179.632812 461.429688 176.300781 459.210938 176.164062 C 455.722656 176.078125 452.320312 175.480469 449.007812 174.367188 C 445.699219 173.257812 442.625 171.679688 439.792969 169.640625 C 433.964844 165.199219 430.082031 159.507812 429.664062 152.152344 C 429.25 144.796875 430.496094 137.304688 438.125 137.304688 C 445.757812 137.304688 448.53125 142.023438 453.246094 144.660156 C 454.910156 145.628906 456.578125 143.132812 455.1875 142.023438 Z M 455.1875 142.023438 " fill-opacity="1" fill-rule="nonzero"/><path fill="#000000" d="M 451.304688 156.316406 C 450.335938 149.515625 443.675781 143.132812 436.601562 144.796875 C 436.183594 144.894531 435.847656 145.113281 435.585938 145.453125 C 435.328125 145.792969 435.203125 146.175781 435.214844 146.601562 C 435.195312 146.777344 435.210938 146.953125 435.265625 147.121094 C 435.320312 147.292969 435.40625 147.445312 435.527344 147.574219 C 435.644531 147.707031 435.785156 147.8125 435.949219 147.882812 C 436.113281 147.957031 436.285156 147.992188 436.460938 147.988281 C 437.820312 147.835938 439.15625 147.9375 440.476562 148.296875 C 441.792969 148.65625 443 149.25 444.089844 150.070312 C 445.230469 150.917969 446.179688 151.941406 446.945312 153.136719 C 447.707031 154.332031 448.238281 155.621094 448.53125 157.011719 C 448.808594 158.953125 451.582031 157.980469 451.304688 156.316406 Z M 451.304688 156.316406 " fill-opacity="1" fill-rule="nonzero"/><path fill="#000000" d="M 444.230469 151.738281 C 443.699219 152.515625 443.285156 153.351562 442.976562 154.238281 C 442.671875 155.128906 442.488281 156.046875 442.425781 156.984375 C 442.367188 157.925781 442.429688 158.855469 442.617188 159.777344 C 442.804688 160.699219 443.113281 161.582031 443.535156 162.421875 C 443.910156 163.222656 444.394531 163.957031 444.980469 164.617188 C 445.566406 165.28125 446.238281 165.84375 446.988281 166.3125 C 447.738281 166.78125 448.539062 167.132812 449.394531 167.367188 C 450.246094 167.605469 451.113281 167.714844 452 167.695312 C 453.664062 167.558594 454.632812 164.644531 452.554688 164.503906 C 451.925781 164.457031 451.308594 164.335938 450.710938 164.136719 C 450.109375 163.941406 449.542969 163.671875 449.011719 163.332031 C 448.480469 162.992188 447.996094 162.59375 447.5625 162.132812 C 447.128906 161.675781 446.757812 161.171875 446.449219 160.617188 C 445.835938 159.476562 445.515625 158.253906 445.492188 156.957031 C 445.46875 155.660156 445.738281 154.429688 446.3125 153.261719 C 446.433594 153.113281 446.523438 152.945312 446.582031 152.761719 C 446.640625 152.578125 446.664062 152.386719 446.652344 152.195312 C 446.640625 152 446.59375 151.816406 446.507812 151.644531 C 446.425781 151.46875 446.3125 151.3125 446.171875 151.179688 C 446.003906 151.101562 445.828125 151.054688 445.644531 151.039062 C 445.457031 151.023438 445.273438 151.039062 445.097656 151.089844 C 444.917969 151.144531 444.753906 151.222656 444.605469 151.335938 C 444.457031 151.445312 444.332031 151.578125 444.230469 151.738281 Z M 444.230469 151.738281 " fill-opacity="1" fill-rule="nonzero"/><path fill="#000000" d="M 514.144531 224.875 L 509.152344 228.898438 C 508.78125 229.214844 508.367188 229.445312 507.902344 229.59375 C 507.15625 229.609375 506.460938 229.425781 505.820312 229.039062 C 498.746094 225.015625 493.890625 219.601562 488.066406 213.910156 C 486.679688 212.523438 481.40625 206.832031 480.851562 204.890625 C 487.648438 210.582031 496.667969 220.988281 505.128906 223.488281 C 502.488281 222.386719 499.945312 221.089844 497.5 219.601562 C 501.144531 220.925781 504.707031 222.453125 508.179688 224.179688 C 507.285156 223.953125 506.453125 223.585938 505.683594 223.070312 L 508.734375 224.320312 C 498.96875 220.132812 490.089844 214.535156 482.101562 207.527344 " fill-opacity="1" fill-rule="nonzero"/><path fill="#000000" d="M 513.3125 223.765625 L 510.539062 225.847656 C 509.84375 226.402344 508.457031 227.789062 507.625 227.789062 C 506.558594 227.398438 505.589844 226.84375 504.710938 226.125 L 502.214844 224.320312 C 498.933594 221.898438 495.882812 219.214844 493.058594 216.269531 L 486.816406 209.886719 C 485.429688 208.222656 483.210938 206.140625 482.378906 204.058594 L 479.742188 206.554688 C 483.765625 209.886719 487.511719 213.632812 491.535156 217.101562 C 495.554688 220.574219 499.578125 223.765625 504.433594 225.292969 C 506.375 225.847656 507.902344 222.515625 505.960938 221.683594 C 503.382812 220.683594 500.933594 219.433594 498.609375 217.9375 L 496.804688 221.40625 C 500.449219 222.683594 504.011719 224.164062 507.488281 225.847656 L 508.875 222.378906 C 508.132812 222.21875 507.4375 221.941406 506.792969 221.542969 L 504.988281 224.738281 L 507.902344 226.125 C 509.84375 226.816406 511.371094 223.488281 509.429688 222.515625 C 499.84375 218.355469 491.101562 212.851562 483.210938 206 C 481.683594 204.75 479.605469 207.804688 481.128906 209.191406 C 489.144531 216.277344 498.070312 221.921875 507.902344 226.125 L 509.429688 222.515625 L 506.375 221.265625 C 504.710938 220.574219 502.910156 223.625 504.574219 224.597656 C 505.484375 225.15625 506.453125 225.574219 507.488281 225.847656 C 509.429688 226.402344 510.816406 223.347656 508.875 222.378906 C 506.929688 221.40625 501.9375 219.183594 498.332031 217.796875 C 494.722656 216.410156 494.863281 220.15625 496.390625 221.128906 C 498.972656 222.707031 501.652344 224.097656 504.433594 225.292969 L 505.960938 221.683594 C 501.105469 220.296875 497.082031 216.824219 493.335938 213.632812 C 489.589844 210.441406 485.847656 206.554688 481.960938 203.363281 C 480.574219 202.113281 478.773438 204.472656 479.1875 205.863281 C 479.605469 207.25 482.515625 210.859375 484.320312 212.800781 C 486.125 214.742188 489.589844 218.074219 492.226562 220.710938 C 495.429688 224.003906 498.945312 226.917969 502.769531 229.453125 C 504.574219 230.566406 506.792969 232.09375 508.875 230.980469 C 510.953125 229.871094 513.035156 227.511719 514.976562 225.984375 C 516.917969 224.457031 514.976562 222.378906 513.3125 223.765625 Z M 513.3125 223.765625 " fill-opacity="1" fill-rule="nonzero"/><path fill="#000000" d="M 444.925781 178.246094 C 444.785156 177.828125 444.507812 177.273438 444.089844 177.273438 C 443.75 177.203125 443.414062 177.230469 443.089844 177.359375 C 442.761719 177.484375 442.496094 177.6875 442.289062 177.964844 C 441.769531 179.421875 441.679688 180.902344 442.011719 182.40625 L 442.425781 187.542969 L 445.480469 186.292969 C 444.886719 184.359375 444.101562 182.511719 443.121094 180.742188 L 439.375 173.941406 C 438.125 172 437.015625 170.054688 435.90625 167.972656 C 434.796875 165.890625 435.351562 166.449219 434.9375 165.613281 L 434.519531 164.78125 C 434.242188 164.367188 434.660156 165.058594 434.660156 165.335938 L 433.550781 167.28125 L 432.160156 167.558594 C 432.023438 167.417969 431.46875 166.863281 431.746094 167.28125 L 432.023438 167.558594 L 432.992188 168.808594 L 435.628906 172.554688 L 438.402344 176.300781 C 438.679688 176.796875 439.003906 177.257812 439.375 177.6875 L 439.652344 178.105469 C 440.484375 180.046875 443.257812 178.105469 442.703125 176.441406 C 441.386719 173.988281 439.863281 171.675781 438.125 169.5 L 435.351562 165.753906 C 434.519531 164.644531 433.964844 163.535156 432.4375 164.226562 C 432.054688 164.394531 431.746094 164.65625 431.519531 165.007812 C 431.292969 165.363281 431.183594 165.75 431.191406 166.171875 C 431.191406 166.726562 431.605469 167.140625 431.746094 167.558594 C 431.882812 167.972656 431.746094 167.28125 431.882812 167.558594 C 431.917969 167.792969 431.964844 168.023438 432.023438 168.25 L 432.714844 169.640625 C 433.6875 171.722656 434.9375 173.804688 436.046875 175.746094 L 439.929688 182.269531 C 440.988281 184.066406 441.820312 185.964844 442.425781 187.957031 C 442.980469 189.902344 445.617188 188.097656 445.480469 186.570312 C 445.3125 185.234375 445.21875 183.894531 445.203125 182.546875 C 445.0625 181.851562 445.0625 181.296875 444.925781 180.601562 L 444.925781 179.632812 C 444.785156 179.492188 444.925781 178.800781 444.785156 179.214844 L 443.121094 180.324219 L 443.257812 180.324219 L 442.289062 179.910156 L 442.425781 179.910156 C 443.257812 181.4375 445.480469 179.355469 444.925781 178.105469 Z M 444.925781 178.246094 " fill-opacity="1" fill-rule="nonzero"/><path fill="#000000" d="M 514.285156 222.378906 C 509.429688 224.042969 508.597656 230.011719 507.625 234.453125 C 506.652344 238.890625 505.542969 244.445312 506.929688 249.300781 C 507.347656 251.105469 509.984375 249.578125 509.84375 248.050781 C 509.152344 243.886719 509.984375 239.449219 510.816406 235.421875 C 511.09375 233.617188 511.507812 231.953125 511.925781 230.148438 C 512.339844 228.34375 513.035156 226.125 514.976562 225.292969 C 516.917969 224.457031 516.085938 221.683594 514.285156 222.378906 Z M 514.285156 222.378906 " fill-opacity="1" fill-rule="nonzero"/><path fill="#000000" d="M 566.441406 108.4375 C 565.707031 107.785156 564.890625 107.25 563.996094 106.839844 C 563.101562 106.425781 562.167969 106.152344 561.195312 106.015625 C 560.21875 105.878906 559.246094 105.890625 558.273438 106.039062 C 557.300781 106.191406 556.371094 106.484375 555.484375 106.910156 C 555.140625 107.105469 554.878906 107.378906 554.699219 107.734375 C 554.523438 108.085938 554.460938 108.460938 554.511719 108.851562 C 554.546875 109.019531 554.609375 109.175781 554.707031 109.316406 C 554.800781 109.457031 554.921875 109.574219 555.066406 109.664062 C 555.210938 109.757812 555.367188 109.816406 555.535156 109.84375 C 555.707031 109.871094 555.871094 109.867188 556.039062 109.824219 L 557.148438 109.546875 L 560.339844 109.546875 L 562.558594 110.242188 L 562.972656 110.242188 L 563.527344 110.519531 L 564.5 111.210938 C 564.667969 111.335938 564.855469 111.414062 565.0625 111.453125 C 565.265625 111.492188 565.472656 111.484375 565.671875 111.429688 C 565.875 111.375 566.054688 111.28125 566.214844 111.144531 C 566.375 111.011719 566.496094 110.847656 566.582031 110.65625 C 566.804688 110.335938 566.902344 109.980469 566.878906 109.589844 C 566.851562 109.203125 566.707031 108.863281 566.441406 108.574219 Z M 566.441406 108.4375 " fill-opacity="1" fill-rule="nonzero"/><path fill="#000000" d="M 516.640625 109.6875 C 516.007812 109.265625 515.34375 108.898438 514.648438 108.589844 C 513.957031 108.277344 513.242188 108.023438 512.503906 107.828125 C 511.769531 107.632812 511.023438 107.496094 510.265625 107.421875 C 509.511719 107.351562 508.753906 107.339844 507.992188 107.386719 C 507.234375 107.4375 506.484375 107.546875 505.742188 107.71875 C 505 107.890625 504.28125 108.125 503.578125 108.414062 C 502.871094 108.703125 502.199219 109.046875 501.550781 109.449219 C 500.902344 109.847656 500.292969 110.296875 499.71875 110.796875 C 499.546875 110.933594 499.402344 111.097656 499.289062 111.285156 C 499.175781 111.476562 499.101562 111.679688 499.0625 111.894531 C 499.023438 112.113281 499.023438 112.332031 499.066406 112.546875 C 499.109375 112.765625 499.1875 112.96875 499.300781 113.15625 C 499.417969 113.328125 499.566406 113.464844 499.753906 113.566406 C 499.9375 113.664062 500.132812 113.714844 500.34375 113.714844 C 500.550781 113.714844 500.75 113.664062 500.933594 113.566406 C 501.117188 113.464844 501.265625 113.328125 501.382812 113.15625 C 502.347656 112.476562 503.382812 111.945312 504.496094 111.554688 C 505.605469 111.164062 506.75 110.933594 507.925781 110.859375 C 509.097656 110.785156 510.261719 110.871094 511.414062 111.121094 C 512.5625 111.371094 513.660156 111.769531 514.699219 112.324219 C 516.226562 113.292969 518.027344 110.796875 516.640625 109.6875 Z M 516.640625 109.6875 " fill-opacity="1" fill-rule="nonzero"/><path fill="#000000" d="M 555.621094 131.753906 C 556.175781 130.917969 557.007812 130.226562 557.839844 130.503906 C 558.390625 130.726562 558.804688 131.09375 559.089844 131.613281 C 559.628906 132.726562 559.910156 133.902344 559.933594 135.136719 C 559.957031 136.375 559.722656 137.558594 559.230469 138.691406 C 558.8125 139.246094 558.398438 139.941406 557.839844 140.078125 C 557.398438 140.21875 556.960938 140.210938 556.523438 140.054688 C 556.085938 139.902344 555.738281 139.632812 555.484375 139.246094 C 555.039062 138.523438 554.808594 137.734375 554.789062 136.886719 C 554.738281 135.40625 554.96875 133.972656 555.484375 132.585938 C 555.761719 132.03125 556.175781 131.335938 556.871094 131.335938 L 557.425781 131.753906 C 557.90625 132.171875 558.28125 132.671875 558.546875 133.253906 C 558.8125 133.832031 558.949219 134.445312 558.953125 135.082031 C 558.921875 135.730469 558.761719 136.34375 558.472656 136.925781 C 558.183594 137.503906 557.789062 138 557.285156 138.414062 C 557.03125 138.59375 556.753906 138.640625 556.453125 138.550781 C 556.175781 138.550781 556.039062 138.414062 555.898438 138.136719 C 555.65625 137.777344 555.480469 137.390625 555.375 136.972656 C 555.265625 136.554688 555.230469 136.132812 555.269531 135.703125 C 555.304688 135.273438 555.414062 134.863281 555.59375 134.46875 C 555.773438 134.078125 556.015625 133.726562 556.316406 133.417969 L 557.007812 133 C 557.425781 133 557.839844 133.554688 558.117188 134.109375 " fill-opacity="1" fill-rule="nonzero"/><path fill="#000000" d="M 556.59375 132.445312 L 556.730469 132.445312 L 557.148438 132.167969 L 557.285156 132.167969 C 557.007812 132.03125 557.425781 132.308594 557.425781 132.308594 L 557.5625 132.308594 C 557.5625 132.308594 557.703125 132.722656 557.5625 132.445312 C 557.855469 132.976562 558.085938 133.53125 558.257812 134.109375 C 558.398438 134.527344 558.257812 133.832031 558.257812 134.390625 L 558.257812 134.804688 C 558.371094 135.121094 558.417969 135.441406 558.398438 135.777344 L 558.398438 136.332031 C 558.417969 136.578125 558.371094 136.808594 558.257812 137.027344 C 558.398438 136.75 558.257812 137.164062 558.257812 137.304688 L 557.980469 137.71875 L 557.980469 137.996094 C 557.839844 137.996094 557.839844 138.136719 557.839844 138.273438 L 557.703125 138.273438 C 557.5625 138.550781 557.5625 138.414062 557.703125 138.273438 L 557.5625 138.273438 C 557.703125 138.273438 557.980469 137.996094 557.703125 138.273438 L 557.425781 138.273438 L 557.148438 137.996094 L 556.871094 137.996094 L 556.871094 137.71875 C 556.863281 137.609375 556.816406 137.515625 556.730469 137.441406 C 556.730469 137.441406 556.59375 136.886719 556.730469 137.304688 C 556.746094 137.144531 556.699219 137.003906 556.59375 136.886719 L 556.59375 135.777344 C 556.570312 135.53125 556.617188 135.300781 556.730469 135.082031 C 556.710938 134.792969 556.757812 134.515625 556.871094 134.25 L 556.871094 133.695312 C 556.871094 134.109375 557.007812 133.554688 557.007812 133.554688 C 557.007812 133.554688 557.148438 132.722656 557.285156 132.722656 L 557.285156 133 C 557.425781 132.863281 557.425781 132.863281 557.425781 132.722656 C 557.425781 132.585938 557.285156 133 557.148438 133.140625 L 556.453125 133.140625 L 556.730469 133.417969 C 556.453125 133.140625 556.871094 133.417969 556.871094 133.554688 L 557.148438 133.832031 L 557.148438 134.109375 C 557.007812 133.832031 557.148438 134.25 557.148438 134.25 C 557.253906 134.367188 557.300781 134.507812 557.285156 134.667969 C 557.425781 135.082031 557.285156 134.527344 557.425781 134.804688 L 557.425781 135.222656 C 557.4375 135.378906 557.394531 135.519531 557.285156 135.636719 C 557.285156 136.054688 557.285156 135.777344 557.425781 135.636719 L 557.148438 136.054688 C 557.007812 136.46875 557.425781 135.777344 557.148438 136.191406 L 556.871094 136.46875 C 556.730469 136.886719 557.148438 136.332031 556.871094 136.609375 L 556.59375 136.886719 C 556.453125 136.75 557.425781 136.46875 557.5625 136.886719 L 557.5625 136.609375 C 557.425781 136.609375 557.425781 136.46875 557.425781 136.332031 C 557.425781 136.191406 557.285156 136.191406 557.285156 136.054688 C 557.285156 135.914062 557.285156 135.914062 557.285156 135.777344 L 557.285156 134.804688 C 557.425781 134.667969 557.425781 134.667969 557.285156 134.945312 C 557.148438 135.222656 557.425781 134.804688 557.425781 134.667969 L 557.285156 134.667969 L 557.5625 134.390625 C 557.453125 134.539062 557.304688 134.640625 557.125 134.691406 C 556.945312 134.742188 556.769531 134.734375 556.59375 134.667969 L 557.007812 135.082031 C 557.128906 135.21875 557.269531 135.328125 557.433594 135.410156 C 557.597656 135.492188 557.769531 135.539062 557.953125 135.550781 C 558.132812 135.5625 558.3125 135.542969 558.484375 135.484375 C 558.65625 135.425781 558.8125 135.339844 558.953125 135.222656 C 559.28125 134.984375 559.519531 134.679688 559.671875 134.300781 C 559.820312 133.925781 559.859375 133.539062 559.785156 133.140625 C 559.644531 132.582031 559.359375 132.113281 558.929688 131.730469 C 558.496094 131.351562 557.996094 131.128906 557.425781 131.058594 C 556.746094 131.203125 556.136719 131.496094 555.597656 131.9375 C 555.058594 132.378906 554.648438 132.917969 554.375 133.554688 C 553.9375 134.4375 553.734375 135.367188 553.757812 136.347656 C 553.78125 137.332031 554.035156 138.25 554.511719 139.109375 C 554.8125 139.679688 555.277344 140.050781 555.898438 140.21875 C 556.710938 140.316406 557.449219 140.132812 558.117188 139.664062 C 559.089844 139.003906 559.785156 138.125 560.199219 137.027344 C 560.425781 136.566406 560.585938 136.082031 560.683594 135.578125 C 560.78125 135.074219 560.8125 134.566406 560.773438 134.054688 C 560.738281 133.542969 560.636719 133.046875 560.46875 132.5625 C 560.300781 132.074219 560.070312 131.621094 559.785156 131.195312 C 559.507812 130.707031 559.140625 130.304688 558.675781 129.988281 C 558.214844 129.671875 557.703125 129.472656 557.148438 129.394531 C 556.4375 129.46875 555.804688 129.734375 555.25 130.1875 C 554.695312 130.640625 554.3125 131.207031 554.097656 131.890625 C 553.253906 133.847656 552.976562 135.882812 553.265625 137.996094 C 553.320312 139.121094 553.738281 140.09375 554.511719 140.910156 C 555.238281 141.644531 556.117188 142.015625 557.148438 142.023438 C 559.644531 141.746094 560.894531 139.109375 561.308594 137.027344 C 561.539062 135.914062 561.570312 134.800781 561.402344 133.679688 C 561.234375 132.558594 560.882812 131.5 560.339844 130.503906 C 560.097656 129.992188 559.738281 129.589844 559.261719 129.289062 C 558.785156 128.988281 558.265625 128.835938 557.703125 128.835938 C 557.054688 128.960938 556.453125 129.203125 555.902344 129.5625 C 555.347656 129.921875 554.886719 130.375 554.511719 130.917969 C 554.097656 131.472656 553.957031 132.585938 554.652344 133 C 555.34375 133.417969 556.175781 133 556.59375 132.445312 Z M 556.59375 132.445312 " fill-opacity="1" fill-rule="nonzero"/><path fill="#000000" d="M 506.792969 129.949219 C 507.347656 129.253906 508.320312 128.421875 509.152344 128.699219 C 509.71875 128.9375 510.089844 129.355469 510.261719 129.949219 C 510.5625 130.472656 510.796875 131.027344 510.957031 131.613281 C 511.121094 132.199219 511.207031 132.792969 511.21875 133.398438 C 511.230469 134.007812 511.167969 134.605469 511.027344 135.195312 C 510.890625 135.785156 510.679688 136.347656 510.398438 136.886719 C 510.167969 137.605469 509.707031 138.113281 509.011719 138.414062 C 508.59375 138.519531 508.179688 138.496094 507.773438 138.34375 C 507.367188 138.191406 507.039062 137.9375 506.792969 137.582031 C 506.277344 136.828125 506.046875 135.996094 506.097656 135.082031 C 505.984375 133.59375 506.214844 132.160156 506.792969 130.78125 C 507.070312 130.226562 507.488281 129.53125 508.042969 129.671875 L 508.734375 129.949219 C 509.226562 130.390625 509.605469 130.910156 509.875 131.515625 C 510.140625 132.121094 510.269531 132.757812 510.261719 133.417969 C 510.222656 134.058594 510.046875 134.660156 509.730469 135.222656 C 509.414062 135.785156 508.988281 136.246094 508.457031 136.609375 L 507.765625 136.886719 C 507.488281 136.886719 507.347656 136.609375 507.210938 136.46875 C 506.980469 136.113281 506.8125 135.730469 506.707031 135.316406 C 506.597656 134.90625 506.558594 134.488281 506.582031 134.066406 C 506.605469 133.640625 506.695312 133.234375 506.851562 132.835938 C 507.007812 132.441406 507.21875 132.082031 507.488281 131.753906 C 507.765625 131.472656 507.902344 131.335938 508.179688 131.335938 C 508.457031 131.335938 509.152344 131.890625 509.429688 132.308594 " fill-opacity="1" fill-rule="nonzero"/><path fill="#000000" d="M 507.902344 130.78125 C 508.179688 130.363281 507.625 130.917969 508.042969 130.640625 L 508.320312 130.226562 C 508.179688 130.503906 508.457031 130.226562 508.597656 130.226562 C 508.320312 130.085938 508.597656 130.363281 508.734375 130.363281 C 508.875 130.363281 508.734375 130.503906 508.734375 130.640625 L 508.875 130.640625 C 509.140625 131.121094 509.328125 131.628906 509.429688 132.167969 C 509.566406 132.722656 509.429688 132.03125 509.566406 132.445312 L 509.566406 133.832031 C 509.566406 134.390625 509.707031 133.554688 509.566406 134.109375 L 509.566406 134.527344 C 509.566406 134.804688 509.429688 135.082031 509.429688 135.359375 C 509.429688 135.636719 509.289062 135.5 509.289062 135.5 C 509.304688 135.65625 509.257812 135.796875 509.152344 135.914062 C 509.152344 136.054688 509.152344 136.191406 509.011719 136.191406 C 508.875 136.191406 509.011719 136.46875 508.875 136.46875 C 508.875 136.46875 508.457031 136.609375 508.734375 136.609375 C 509.011719 136.609375 508.597656 136.609375 508.597656 136.46875 C 508.597656 136.332031 508.597656 136.46875 508.597656 136.609375 L 508.179688 136.332031 C 508.457031 136.46875 508.179688 136.191406 508.042969 136.054688 C 507.902344 135.914062 508.179688 136.191406 508.042969 135.914062 C 507.957031 135.839844 507.910156 135.75 507.902344 135.636719 C 507.902344 135.5 507.765625 135.082031 507.902344 135.359375 C 507.796875 135.242188 507.75 135.101562 507.765625 134.945312 L 507.765625 133.277344 C 507.765625 133 507.902344 132.722656 507.902344 132.445312 C 508.007812 132.328125 508.054688 132.1875 508.042969 132.03125 L 508.042969 131.753906 C 508.042969 131.613281 508.179688 131.058594 508.320312 131.058594 L 507.902344 131.335938 L 507.207031 131.335938 L 507.625 131.613281 C 507.347656 131.472656 507.625 131.753906 507.765625 131.753906 C 507.902344 131.753906 507.902344 132.03125 507.902344 132.167969 L 508.179688 132.167969 C 507.902344 131.890625 508.179688 132.308594 508.179688 132.445312 L 508.179688 132.863281 C 508.320312 133.140625 508.179688 132.585938 508.179688 133 C 508.167969 133.160156 508.210938 133.296875 508.320312 133.417969 C 508.210938 133.535156 508.167969 133.675781 508.179688 133.832031 C 508.179688 133.972656 508.042969 134.109375 508.042969 134.25 C 508.042969 134.390625 508.320312 133.832031 508.042969 134.25 L 507.765625 134.667969 L 507.347656 134.945312 C 507.347656 134.945312 508.320312 134.527344 508.320312 134.945312 C 508.320312 134.851562 508.273438 134.804688 508.179688 134.804688 L 508.179688 134.109375 C 508.179688 134.527344 508.179688 134.109375 508.042969 133.972656 L 508.042969 133.554688 C 508.042969 133.417969 508.042969 133.277344 508.179688 133.277344 C 508.179688 133 508.179688 133.140625 508.042969 133.277344 C 507.902344 133.417969 508.179688 133 508.179688 133 L 508.320312 133 C 508.457031 132.722656 508.320312 132.722656 508.320312 133 C 508.320312 132.910156 508.363281 132.863281 508.457031 132.863281 C 508.597656 132.585938 508.457031 132.722656 508.320312 132.863281 L 508.597656 132.863281 C 508.308594 133.082031 507.984375 133.175781 507.625 133.140625 C 507.765625 133.140625 507.765625 133.140625 507.488281 133 L 507.625 133 L 507.902344 133.417969 C 508.191406 133.683594 508.527344 133.828125 508.917969 133.851562 C 509.308594 133.878906 509.664062 133.78125 509.984375 133.554688 C 510.300781 133.28125 510.519531 132.945312 510.644531 132.542969 C 510.769531 132.144531 510.78125 131.742188 510.675781 131.335938 C 510.617188 131.066406 510.511719 130.8125 510.367188 130.578125 C 510.222656 130.34375 510.042969 130.136719 509.828125 129.960938 C 509.617188 129.785156 509.378906 129.648438 509.121094 129.550781 C 508.863281 129.453125 508.59375 129.402344 508.320312 129.394531 C 507.660156 129.519531 507.082031 129.804688 506.582031 130.253906 C 506.085938 130.703125 505.738281 131.25 505.542969 131.890625 C 505.085938 132.789062 504.867188 133.742188 504.890625 134.753906 C 504.917969 135.761719 505.179688 136.707031 505.683594 137.582031 C 505.984375 138.152344 506.445312 138.523438 507.070312 138.691406 C 507.917969 138.800781 508.65625 138.570312 509.289062 137.996094 C 510.167969 137.320312 510.863281 136.484375 511.371094 135.5 C 511.789062 134.53125 511.960938 133.519531 511.886719 132.464844 C 511.8125 131.410156 511.503906 130.433594 510.953125 129.53125 C 510.664062 129.070312 510.289062 128.691406 509.824219 128.398438 C 509.363281 128.105469 508.863281 127.929688 508.320312 127.867188 C 507.660156 127.929688 507.070312 128.160156 506.546875 128.558594 C 506.019531 128.960938 505.640625 129.46875 505.40625 130.085938 C 504.523438 132.03125 504.199219 134.070312 504.433594 136.191406 C 504.535156 137.300781 504.953125 138.269531 505.683594 139.109375 C 506.042969 139.484375 506.464844 139.769531 506.949219 139.964844 C 507.433594 140.15625 507.9375 140.242188 508.457031 140.21875 C 510.816406 140.078125 512.0625 137.441406 512.617188 135.359375 C 512.847656 134.25 512.878906 133.132812 512.710938 132.011719 C 512.546875 130.890625 512.191406 129.832031 511.648438 128.835938 C 511.53125 128.570312 511.378906 128.328125 511.1875 128.109375 C 510.996094 127.890625 510.777344 127.707031 510.527344 127.558594 C 510.28125 127.410156 510.015625 127.300781 509.730469 127.234375 C 509.449219 127.167969 509.164062 127.148438 508.875 127.171875 C 508.222656 127.238281 507.625 127.457031 507.085938 127.828125 C 506.542969 128.195312 506.121094 128.671875 505.820312 129.253906 C 505.679688 129.394531 505.574219 129.558594 505.503906 129.746094 C 505.433594 129.933594 505.40625 130.125 505.421875 130.328125 C 505.433594 130.527344 505.488281 130.714844 505.582031 130.890625 C 505.675781 131.066406 505.800781 131.214844 505.960938 131.335938 C 506.128906 131.414062 506.304688 131.464844 506.492188 131.480469 C 506.675781 131.496094 506.859375 131.476562 507.035156 131.425781 C 507.214844 131.375 507.378906 131.292969 507.527344 131.183594 C 507.675781 131.070312 507.800781 130.9375 507.902344 130.78125 Z M 507.902344 130.78125 " fill-opacity="1" fill-rule="nonzero"/><path fill="#000000" d="M 542.027344 139.523438 C 542.582031 145.492188 546.328125 150.210938 548.546875 155.621094 C 549.65625 158.121094 550.488281 161.035156 548.269531 163.117188 C 546.050781 165.199219 544.386719 166.03125 543 167.972656 C 541.613281 169.917969 543.96875 171.304688 545.355469 169.640625 C 546.742188 167.972656 549.378906 166.449219 551.042969 164.367188 C 551.484375 163.820312 551.847656 163.222656 552.132812 162.582031 C 552.414062 161.9375 552.613281 161.269531 552.722656 160.578125 C 552.832031 159.882812 552.847656 159.1875 552.777344 158.488281 C 552.703125 157.789062 552.542969 157.113281 552.292969 156.457031 C 550.628906 150.210938 545.496094 145.351562 544.941406 138.691406 C 544.664062 136.75 541.890625 137.859375 542.027344 139.523438 Z M 542.027344 139.523438 " fill-opacity="1" fill-rule="nonzero"/><path fill="#ffffff" d="M 518.304688 191.566406 C 525.105469 194.066406 532.316406 193.648438 536.757812 191.152344 C 536.757812 191.152344 544.109375 185.320312 538.835938 182.683594 C 536.480469 181.4375 531.484375 180.464844 525.660156 179.078125 C 519.832031 177.6875 510.261719 176.300781 508.734375 177.132812 C 504.15625 180.046875 510.953125 188.929688 518.304688 191.566406 Z M 518.304688 191.566406 " fill-opacity="1" fill-rule="nonzero"/><path fill="#000000" d="M 517.75 193.511719 C 521.746094 195.007812 525.859375 195.515625 530.097656 195.035156 C 532.871094 194.757812 536.203125 194.203125 538.28125 192.398438 C 540.363281 190.597656 544.941406 184.765625 540.640625 181.574219 C 536.339844 178.382812 534.953125 179.214844 532.179688 178.660156 C 529.402344 178.105469 523.855469 176.578125 519.695312 175.886719 C 516.5 175.148438 513.261719 174.824219 509.984375 174.914062 C 509.4375 174.921875 508.90625 175.019531 508.390625 175.214844 C 507.878906 175.40625 507.414062 175.679688 506.996094 176.035156 C 506.578125 176.386719 506.234375 176.804688 505.960938 177.277344 C 505.6875 177.753906 505.503906 178.261719 505.40625 178.800781 C 504.851562 181.851562 506.792969 184.90625 508.597656 186.988281 C 511.117188 189.90625 514.167969 192.082031 517.75 193.511719 C 520.109375 194.34375 521.082031 190.597656 518.863281 189.761719 C 516.429688 188.78125 514.300781 187.347656 512.480469 185.460938 C 510.882812 184.082031 509.820312 182.371094 509.289062 180.324219 C 509.179688 179.890625 509.226562 179.476562 509.429688 179.078125 L 509.84375 178.800781 L 510.539062 178.800781 C 513.152344 178.746094 515.742188 178.980469 518.304688 179.492188 L 528.433594 181.714844 C 531.207031 182.40625 533.980469 182.960938 536.480469 183.796875 C 538.976562 184.628906 539.113281 184.765625 538.558594 186.15625 C 537.945312 187.4375 537.066406 188.5 535.925781 189.347656 L 534.398438 190.179688 C 532.910156 190.714844 531.386719 191.082031 529.820312 191.289062 C 526.058594 191.558594 522.40625 191.046875 518.863281 189.761719 C 516.503906 188.929688 515.394531 192.675781 517.75 193.511719 Z M 517.75 193.511719 " fill-opacity="1" fill-rule="nonzero"/><path fill="#000000" d="M 585.03125 103.996094 C 586.277344 87.339844 582.117188 69.300781 568.9375 58.058594 C 567.417969 56.738281 565.800781 55.550781 564.09375 54.484375 C 562.382812 53.421875 560.601562 52.496094 558.746094 51.710938 C 556.894531 50.929688 554.988281 50.292969 553.035156 49.808594 C 551.082031 49.324219 549.101562 48.996094 547.097656 48.820312 C 545.089844 48.648438 543.085938 48.632812 541.078125 48.773438 C 539.066406 48.917969 537.082031 49.214844 535.121094 49.667969 C 533.160156 50.125 531.246094 50.730469 529.382812 51.484375 C 527.515625 52.238281 525.71875 53.136719 523.992188 54.171875 C 521.21875 55.976562 518.585938 58.058594 515.394531 59.03125 C 512.203125 60 510.261719 59.585938 507.488281 59.585938 C 505.320312 59.496094 503.199219 59.773438 501.128906 60.417969 C 499.058594 61.0625 497.152344 62.03125 495.417969 63.332031 C 490.425781 67.078125 488.480469 72.492188 485.984375 77.90625 C 483.921875 82.503906 481.425781 86.851562 478.492188 90.949219 C 469.617188 103.164062 456.578125 111.074219 441.179688 110.101562 C 438.679688 109.964844 438.820312 113.847656 441.179688 113.988281 C 444.351562 114.167969 447.503906 114.003906 450.640625 113.5 C 453.777344 112.996094 456.824219 112.164062 459.78125 111.003906 C 462.738281 109.839844 465.535156 108.378906 468.175781 106.609375 C 470.816406 104.84375 473.238281 102.816406 475.441406 100.527344 C 482.320312 93.34375 487.546875 85.109375 491.117188 75.824219 C 493.335938 70.269531 497.222656 65.414062 503.1875 63.886719 C 509.152344 62.359375 511.09375 64.304688 515.671875 63.054688 C 518.84375 62.027344 521.757812 60.5 524.410156 58.476562 C 525.652344 57.632812 526.945312 56.875 528.285156 56.203125 C 529.628906 55.527344 531.007812 54.945312 532.425781 54.453125 C 533.84375 53.960938 535.289062 53.5625 536.757812 53.257812 C 538.226562 52.957031 539.710938 52.75 541.207031 52.640625 C 542.703125 52.53125 544.203125 52.519531 545.699219 52.605469 C 547.199219 52.695312 548.6875 52.878906 550.160156 53.160156 C 551.632812 53.441406 553.085938 53.816406 554.507812 54.289062 C 555.933594 54.761719 557.324219 55.324219 558.675781 55.976562 C 576.570312 64.859375 582.535156 85.261719 581.148438 103.996094 C 581.007812 106.492188 584.890625 106.492188 585.03125 103.996094 Z M 585.03125 103.996094 " fill-opacity="1" fill-rule="nonzero"/><path fill="#000000" d="M 570.328125 59.863281 C 569.054688 58.570312 567.664062 57.417969 566.15625 56.410156 C 564.644531 55.398438 563.050781 54.554688 561.367188 53.875 C 559.683594 53.195312 557.953125 52.691406 556.164062 52.367188 C 554.378906 52.046875 552.582031 51.90625 550.765625 51.953125 C 548.953125 52 547.164062 52.238281 545.402344 52.671875 C 543.636719 53.109375 541.941406 53.726562 540.3125 54.53125 C 538.683594 55.332031 537.160156 56.300781 535.742188 57.433594 C 534.324219 58.566406 533.042969 59.839844 531.902344 61.25 C 530.238281 63.054688 533.011719 65.832031 534.535156 63.886719 C 535.03125 63.285156 535.554688 62.710938 536.109375 62.164062 C 536.664062 61.617188 537.246094 61.101562 537.855469 60.613281 C 538.460938 60.128906 539.097656 59.675781 539.753906 59.257812 C 540.410156 58.839844 541.085938 58.457031 541.785156 58.113281 C 542.480469 57.765625 543.195312 57.457031 543.925781 57.183594 C 544.65625 56.914062 545.398438 56.683594 546.152344 56.488281 C 546.90625 56.296875 547.667969 56.144531 548.441406 56.035156 C 549.210938 55.921875 549.984375 55.851562 550.761719 55.824219 C 551.542969 55.792969 552.320312 55.804688 553.09375 55.859375 C 553.871094 55.910156 554.644531 56.003906 555.410156 56.140625 C 556.179688 56.273438 556.9375 56.449219 557.683594 56.664062 C 558.433594 56.878906 559.167969 57.132812 559.890625 57.425781 C 560.609375 57.71875 561.316406 58.050781 562 58.417969 C 562.6875 58.785156 563.351562 59.1875 563.996094 59.625 C 564.640625 60.0625 565.261719 60.535156 565.855469 61.039062 C 566.449219 61.542969 567.015625 62.074219 567.550781 62.636719 C 569.214844 64.441406 571.992188 61.667969 570.328125 59.863281 Z M 570.328125 59.863281 " fill-opacity="1" fill-rule="nonzero"/><path fill="#000000" d="M 574.625 66.664062 C 573.8125 65.742188 572.925781 64.898438 571.96875 64.132812 C 571.007812 63.367188 569.988281 62.691406 568.914062 62.101562 C 567.835938 61.511719 566.714844 61.019531 565.554688 60.625 C 564.390625 60.230469 563.203125 59.941406 561.992188 59.75 C 560.777344 59.5625 559.558594 59.480469 558.332031 59.503906 C 557.101562 59.527344 555.886719 59.65625 554.683594 59.890625 C 553.476562 60.125 552.300781 60.460938 551.15625 60.898438 C 550.007812 61.335938 548.90625 61.871094 547.855469 62.5 C 545.773438 63.75 547.714844 67.078125 549.933594 65.832031 C 550.796875 65.304688 551.703125 64.859375 552.644531 64.496094 C 553.585938 64.132812 554.554688 63.855469 555.546875 63.664062 C 556.539062 63.46875 557.539062 63.367188 558.550781 63.351562 C 559.558594 63.339844 560.5625 63.414062 561.5625 63.578125 C 562.558594 63.742188 563.53125 63.992188 564.484375 64.328125 C 565.4375 64.667969 566.351562 65.085938 567.230469 65.585938 C 568.109375 66.085938 568.9375 66.660156 569.710938 67.308594 C 570.488281 67.953125 571.203125 68.664062 571.851562 69.4375 C 573.515625 71.382812 576.152344 68.605469 574.625 66.664062 Z M 574.625 66.664062 " fill-opacity="1" fill-rule="nonzero"/><path fill="#000000" d="M 579.203125 113.292969 C 591.273438 107.046875 595.15625 92.335938 595.710938 79.707031 C 596.265625 67.078125 593.214844 51.121094 584.335938 39.601562 C 579.027344 32.847656 572.785156 27.109375 565.609375 22.390625 C 562.304688 20.214844 558.789062 18.457031 555.066406 17.117188 L 552.707031 16.285156 C 551.597656 15.867188 553.265625 16.839844 552.988281 16.699219 L 552.707031 16.285156 C 547.679688 12.191406 542.128906 9 536.0625 6.707031 C 521.636719 1.433594 505.542969 0.601562 490.144531 1.710938 C 474.75 2.824219 461.015625 5.738281 447.976562 12.539062 C 442.070312 15.632812 436.628906 19.398438 431.652344 23.835938 C 426.675781 28.273438 422.316406 33.253906 418.566406 38.769531 C 409.6875 51.675781 402.613281 67.355469 400.8125 82.902344 C 399.007812 98.445312 402.476562 109.6875 409.132812 121.621094 C 411.492188 125.785156 414.128906 129.671875 416.765625 133.695312 C 419.617188 138.425781 421.515625 143.515625 422.453125 148.960938 C 422.734375 150.148438 422.875 151.351562 422.867188 152.570312 C 423.007812 155.066406 426.890625 155.066406 426.75 152.570312 C 426.75 147.710938 424.949219 142.714844 423.421875 138.273438 C 421.945312 134.8125 420.140625 131.527344 418.011719 128.421875 C 411.769531 119.121094 406.636719 109.546875 404.835938 98.304688 C 402.476562 82.484375 407.609375 66.941406 414.683594 52.921875 C 420.648438 41.125 428.695312 30.441406 439.375 22.53125 C 450.054688 14.621094 462.542969 9.902344 475.582031 7.402344 C 483.550781 5.855469 491.59375 5.066406 499.710938 5.042969 C 507.828125 5.019531 515.878906 5.761719 523.855469 7.265625 C 532.316406 9.066406 540.917969 11.984375 547.855469 17.257812 L 550.210938 19.476562 C 551.316406 20.039062 552.472656 20.457031 553.679688 20.726562 C 555.496094 21.324219 557.253906 22.0625 558.953125 22.945312 C 562.566406 24.925781 565.984375 27.191406 569.214844 29.746094 C 575.609375 34.808594 580.925781 40.824219 585.167969 47.789062 C 588.421875 53.582031 590.410156 59.78125 591.132812 66.386719 C 592.9375 78.875 592.382812 94.558594 583.921875 104.6875 C 582.066406 106.910156 579.847656 108.667969 577.261719 109.964844 C 575.042969 111.074219 576.984375 114.402344 579.203125 113.292969 Z M 579.203125 113.292969 " fill-opacity="1" fill-rule="nonzero"/><path fill="#000000" d="M 467.117188 103.023438 C 463.152344 108.988281 459.949219 115.335938 457.507812 122.070312 C 455.070312 128.804688 453.464844 135.734375 452.691406 142.855469 C 452.414062 145.351562 456.300781 145.351562 456.578125 142.855469 C 457.332031 136.074219 458.882812 129.480469 461.226562 123.074219 C 463.574219 116.667969 466.644531 110.632812 470.449219 104.96875 C 471.972656 102.886719 468.507812 100.941406 467.117188 103.023438 Z M 467.117188 103.023438 " fill-opacity="1" fill-rule="nonzero"/></svg>