<svg xmlns="http://www.w3.org/2000/svg" xmlns:xlink="http://www.w3.org/1999/xlink" width="50px"  zoomAndPan="magnify" viewBox="0 0 1050 1049.999947"  preserveAspectRatio="xMidYMid meet" version="1.0"><defs><clipPath id="4d994ead20"><path d="M 164.347656 10.675781 L 961.597656 10.675781 L 961.597656 1039.675781 L 164.347656 1039.675781 Z M 164.347656 10.675781 " clip-rule="nonzero"/></clipPath></defs><g clip-path="url(#4d994ead20)"><path fill="#008900" d="M 961.539062 961.496094 C 961.539062 687.085938 782.941406 464.765625 562.945312 464.765625 C 342.949219 464.765625 164.347656 687.085938 164.347656 961.496094 C 164.347656 1004.285156 342.949219 1039.167969 562.945312 1039.167969 C 782.941406 1039.167969 961.539062 1004.285156 961.539062 961.496094 Z M 562.945312 10.820312 C 682.941406 10.820312 780.148438 108.027344 780.148438 228.023438 C 780.148438 348.023438 682.941406 445.230469 562.945312 445.230469 C 442.949219 445.230469 345.742188 348.023438 345.742188 228.023438 C 345.742188 108.027344 442.949219 10.820312 562.945312 10.820312 Z M 562.945312 10.820312 " fill-opacity="1" fill-rule="evenodd"/></g></svg>