<svg width="40px" viewBox="0 0 139 135" fill="none" xmlns="http://www.w3.org/2000/svg">
<path d="M138.5 67.5C138.5 104.489 107.622 134.5 69.5 134.5C31.3785 134.5 0.5 104.489 0.5 67.5C0.5 30.5106 31.3785 0.5 69.5 0.5C107.622 0.5 138.5 30.5106 138.5 67.5Z" fill="#605555" stroke="#FFAA00"/>
<path d="M29 63C26.7909 63 25 64.7909 25 67C25 69.2091 26.7909 71 29 71V63ZM112.828 69.8284C114.391 68.2663 114.391 65.7337 112.828 64.1716L87.3726 38.7157C85.8105 37.1536 83.2778 37.1536 81.7157 38.7157C80.1536 40.2778 80.1536 42.8105 81.7157 44.3726L104.343 67L81.7157 89.6274C80.1536 91.1895 80.1536 93.7222 81.7157 95.2843C83.2778 96.8464 85.8105 96.8464 87.3726 95.2843L112.828 69.8284ZM29 71H110V63H29V71Z" fill="#FFAA00"/>
</svg>



