<?xml version="1.0" encoding="UTF-8"?>
<svg width="50px" version="1.0" viewBox="0 0 375 375" xmlns="http://www.w3.org/2000/svg" zoomAndPan="magnify">
<defs>
<clipPath id="a">
<path d="m22.047 22.047h330.75v330.75h-330.75z"/>
</clipPath>
</defs>
<rect x="-37.5" y="-37.5" width="450" height="450" fill="#fff"/>
<rect x="-37.5" y="-37.5" width="450" height="450" fill="#fff"/>
<rect x="-37.5" y="-37.5" width="450" height="450" fill="#efeadd"/>
<g clip-path="url(#a)">
<path d="m187.43 22.047c45.672 0 87.02 18.516 116.95 48.441 29.93 29.93 48.441 71.277 48.441 116.94 0 45.672-18.512 87.02-48.441 116.95-29.926 29.93-71.273 48.441-116.95 48.441-45.664 0-87.012-18.512-116.94-48.441-29.93-29.926-48.441-71.273-48.441-116.95 0-45.664 18.512-87.012 48.441-116.94 29.93-29.926 71.277-48.441 116.94-48.441" fill="#ec7e29"/>
</g>
<path d="m187.43 45.223c39.27 0 74.824 15.918 100.56 41.652 25.738 25.734 41.656 61.285 41.656 100.55 0 39.273-15.918 74.824-41.656 100.56-25.734 25.738-61.289 41.656-100.56 41.656-39.27 0-74.82-15.918-100.55-41.656-25.734-25.734-41.652-61.289-41.652-100.56 0-39.27 15.918-74.82 41.652-100.55s61.285-41.652 100.55-41.652" fill="#f9a825"/>
<path d="m212.04 174.66v74.727c2.7148-1.7227 6.1719-4.4102 10.176-8.5859 1.1836-1.5273 3.1328-2.3945 5.1836-2.1016 3.0391 0.43359 5.1523 3.2461 4.7227 6.2852h-0.011719c-1.3281 9.3047-8.0703 21.359-17.027 30.395-7.957 8.0234-17.844 13.895-27.648 13.895-6.7695 0-12.918-2.7656-17.375-7.2227-4.457-4.457-7.2227-10.605-7.2227-17.379v-74.727c-2.7188 1.7266-6.1758 4.4102-10.176 8.5859-1.1875 1.5273-3.1367 2.3945-5.1875 2.1016-3.0391-0.42969-5.1562-3.25-4.7188-6.2891h0.007812c1.3242-9.3008 8.0703-21.355 17.027-30.387 7.9609-8.0234 17.84-13.898 27.645-13.898 6.7734 0 12.926 2.7656 17.379 7.2227 4.457 4.4531 7.2266 10.609 7.2266 17.379" fill="#f5f5f5" fill-rule="evenodd"/>
<path d="m181.11 85.586c7.1875 0 13.695 2.918 18.406 7.6289 4.7109 4.7109 7.625 11.215 7.625 18.402 0 7.1914-2.9141 13.695-7.625 18.406-4.7109 4.7109-11.219 7.6289-18.406 7.6289s-13.691-2.918-18.406-7.6289c-4.7109-4.7109-7.625-11.215-7.625-18.406 0-7.1875 2.9141-13.691 7.625-18.402 4.7148-4.7109 11.219-7.6289 18.406-7.6289" fill="#f5f5f5" fill-rule="evenodd"/>
</svg>
