<svg xmlns="http://www.w3.org/2000/svg" xmlns:xlink="http://www.w3.org/1999/xlink" width="50px" zoomAndPan="magnify" viewBox="0 0 375 374.999991" preserveAspectRatio="xMidYMid meet" version="1.0"><defs><clipPath id="6d174d5212"><path d="M 187 30.625 L 350 30.625 L 350 193 L 187 193 Z M 187 30.625 " clip-rule="nonzero"/></clipPath></defs><rect x="-37.5" width="450" fill="#ffffff" y="-37.499999" height="449.999989" fill-opacity="1"/><rect x="-37.5" width="450" fill="#efeadd" y="-37.499999" height="449.999989" fill-opacity="1"/><path fill="#2196f3" d="M 235.136719 275.476562 C 234.886719 275.152344 234.605469 274.851562 234.300781 274.578125 C 233.992188 274.308594 233.664062 274.0625 233.3125 273.851562 C 232.960938 273.636719 232.59375 273.457031 232.210938 273.3125 C 231.828125 273.167969 231.433594 273.058594 231.03125 272.984375 C 230.625 272.910156 230.21875 272.871094 229.808594 272.871094 C 229.398438 272.871094 228.992188 272.910156 228.585938 272.984375 C 228.183594 273.058594 227.789062 273.171875 227.40625 273.316406 C 227.023438 273.464844 226.65625 273.644531 226.304688 273.859375 C 224.925781 274.703125 223.523438 275.507812 222.097656 276.277344 C 220.671875 277.042969 219.226562 277.769531 217.761719 278.457031 C 216.296875 279.144531 214.8125 279.789062 213.3125 280.394531 C 211.8125 281 210.292969 281.5625 208.761719 282.085938 C 207.230469 282.605469 205.683594 283.082031 204.125 283.519531 C 202.566406 283.953125 200.996094 284.34375 199.414062 284.691406 C 197.832031 285.039062 196.246094 285.34375 194.648438 285.605469 C 193.050781 285.863281 191.445312 286.078125 189.835938 286.25 C 188.226562 286.421875 186.613281 286.546875 184.996094 286.628906 C 183.378906 286.710938 181.761719 286.746094 180.144531 286.738281 C 178.527344 286.730469 176.910156 286.675781 175.292969 286.578125 C 173.679688 286.480469 172.066406 286.335938 170.457031 286.148438 C 168.851562 285.960938 167.25 285.730469 165.65625 285.453125 C 164.058594 285.179688 162.472656 284.859375 160.898438 284.492188 C 159.320312 284.128906 157.753906 283.722656 156.199219 283.269531 C 154.644531 282.820312 153.105469 282.324219 151.578125 281.789062 C 150.050781 281.253906 148.539062 280.675781 147.042969 280.054688 C 145.550781 279.433594 144.074219 278.773438 142.613281 278.070312 C 141.15625 277.367188 139.71875 276.625 138.300781 275.84375 C 136.882812 275.0625 135.488281 274.242188 134.117188 273.382812 C 132.746094 272.523438 131.398438 271.625 130.078125 270.691406 C 128.753906 269.757812 127.460938 268.789062 126.191406 267.78125 C 124.925781 266.777344 123.683594 265.738281 122.476562 264.664062 C 121.265625 263.589844 120.085938 262.480469 118.9375 261.339844 C 117.785156 260.199219 116.671875 259.03125 115.585938 257.828125 C 114.5 256.625 113.453125 255.394531 112.4375 254.136719 C 111.421875 252.875 110.441406 251.585938 109.496094 250.273438 C 108.550781 248.957031 107.644531 247.621094 106.773438 246.253906 C 105.902344 244.890625 105.074219 243.5 104.277344 242.089844 C 103.484375 240.679688 102.734375 239.25 102.019531 237.796875 C 101.304688 236.34375 100.632812 234.871094 100 233.382812 C 99.367188 231.890625 98.777344 230.386719 98.230469 228.863281 C 97.679688 227.339844 97.175781 225.800781 96.710938 224.25 C 96.246094 222.699219 95.828125 221.136719 95.453125 219.5625 C 95.074219 217.988281 94.742188 216.40625 94.453125 214.8125 C 94.164062 213.222656 93.917969 211.621094 93.71875 210.015625 C 93.519531 208.410156 93.363281 206.800781 93.253906 205.183594 C 93.140625 203.570312 93.078125 201.953125 93.054688 200.335938 C 93.035156 198.714844 93.058594 197.097656 93.125 195.480469 C 93.195312 193.863281 93.308594 192.25 93.464844 190.640625 C 93.625 189.027344 93.828125 187.421875 94.074219 185.824219 C 94.320312 184.222656 94.613281 182.632812 94.949219 181.050781 C 95.28125 179.464844 95.660156 177.894531 96.085938 176.332031 C 96.507812 174.769531 96.972656 173.21875 97.480469 171.683594 C 97.988281 170.144531 98.539062 168.625 99.132812 167.117188 C 99.726562 165.613281 100.359375 164.125 101.035156 162.652344 C 101.710938 161.183594 102.425781 159.730469 103.183594 158.300781 C 103.941406 156.867188 104.734375 155.460938 105.570312 154.074219 C 106.402344 152.683594 107.273438 151.324219 108.183594 149.984375 C 109.09375 148.644531 110.039062 147.332031 111.023438 146.046875 C 112.003906 144.761719 113.023438 143.503906 114.074219 142.273438 C 115.128906 141.042969 116.210938 139.84375 117.332031 138.671875 C 118.449219 137.503906 119.601562 136.367188 120.78125 135.261719 C 121.964844 134.152344 123.175781 133.082031 124.417969 132.042969 C 125.660156 131.003906 126.929688 130 128.226562 129.035156 C 129.523438 128.066406 130.84375 127.132812 132.195312 126.238281 C 133.542969 125.34375 134.914062 124.488281 136.3125 123.667969 C 137.707031 122.847656 139.125 122.070312 140.566406 121.332031 C 142.003906 120.589844 143.464844 119.890625 144.941406 119.230469 C 146.417969 118.570312 147.914062 117.953125 149.425781 117.378906 C 150.941406 116.800781 152.46875 116.269531 154.007812 115.777344 C 155.550781 115.285156 157.105469 114.835938 158.671875 114.429688 C 160.242188 114.027344 161.816406 113.664062 163.40625 113.347656 C 164.992188 113.027344 166.585938 112.753906 168.1875 112.527344 C 168.585938 112.46875 168.976562 112.375 169.359375 112.25 C 169.738281 112.121094 170.105469 111.964844 170.460938 111.769531 C 170.8125 111.578125 171.148438 111.355469 171.460938 111.101562 C 171.773438 110.851562 172.0625 110.570312 172.324219 110.269531 C 172.589844 109.964844 172.824219 109.640625 173.027344 109.292969 C 173.234375 108.945312 173.40625 108.585938 173.546875 108.207031 C 173.6875 107.832031 173.792969 107.445312 173.863281 107.050781 C 173.9375 106.652344 173.972656 106.253906 173.972656 105.851562 L 173.972656 50.847656 C 173.972656 50.40625 173.929688 49.96875 173.84375 49.535156 C 173.757812 49.097656 173.628906 48.675781 173.457031 48.269531 C 173.289062 47.859375 173.082031 47.472656 172.835938 47.101562 C 172.589844 46.734375 172.308594 46.394531 171.996094 46.082031 C 171.683594 45.769531 171.34375 45.488281 170.976562 45.242188 C 170.609375 44.996094 170.21875 44.789062 169.8125 44.621094 C 169.402344 44.453125 168.980469 44.324219 168.546875 44.238281 C 168.113281 44.152344 167.671875 44.109375 167.230469 44.109375 C 89.171875 44.109375 25.675781 113.660156 25.675781 199.144531 C 25.679688 201.679688 25.746094 204.214844 25.871094 206.75 C 26 209.28125 26.1875 211.808594 26.4375 214.335938 C 26.691406 216.859375 27.003906 219.375 27.378906 221.882812 C 27.75 224.390625 28.1875 226.890625 28.683594 229.378906 C 29.179688 231.863281 29.738281 234.339844 30.355469 236.796875 C 30.976562 239.257812 31.652344 241.703125 32.390625 244.128906 C 33.128906 246.554688 33.925781 248.960938 34.78125 251.351562 C 35.636719 253.738281 36.550781 256.101562 37.523438 258.445312 C 38.496094 260.789062 39.523438 263.105469 40.609375 265.398438 C 41.695312 267.691406 42.835938 269.957031 44.035156 272.191406 C 45.230469 274.429688 46.480469 276.636719 47.785156 278.808594 C 49.089844 280.984375 50.449219 283.128906 51.859375 285.234375 C 53.269531 287.34375 54.730469 289.417969 56.242188 291.453125 C 57.75 293.492188 59.3125 295.488281 60.921875 297.449219 C 62.53125 299.410156 64.1875 301.332031 65.890625 303.210938 C 67.59375 305.089844 69.34375 306.925781 71.136719 308.71875 C 72.929688 310.511719 74.765625 312.261719 76.644531 313.964844 C 78.523438 315.667969 80.445312 317.324219 82.40625 318.933594 C 84.367188 320.542969 86.363281 322.105469 88.402344 323.617188 C 90.4375 325.128906 92.511719 326.589844 94.621094 327.996094 C 96.730469 329.40625 98.871094 330.765625 101.046875 332.070312 C 103.222656 333.375 105.425781 334.625 107.664062 335.820312 C 109.898438 337.019531 112.164062 338.160156 114.457031 339.246094 C 116.75 340.332031 119.066406 341.359375 121.410156 342.332031 C 123.753906 343.304688 126.117188 344.21875 128.503906 345.074219 C 130.894531 345.929688 133.300781 346.726562 135.726562 347.464844 C 138.152344 348.203125 140.597656 348.882812 143.058594 349.5 C 145.519531 350.117188 147.992188 350.675781 150.480469 351.171875 C 152.964844 351.667969 155.464844 352.105469 157.972656 352.480469 C 160.480469 352.855469 162.996094 353.167969 165.523438 353.417969 C 168.046875 353.667969 170.574219 353.859375 173.109375 353.984375 C 175.640625 354.113281 178.175781 354.175781 180.710938 354.179688 C 184.546875 354.476562 188.386719 354.582031 192.234375 354.496094 C 196.082031 354.410156 199.914062 354.132812 203.730469 353.660156 C 207.550781 353.191406 211.332031 352.527344 215.085938 351.679688 C 218.835938 350.828125 222.539062 349.792969 226.1875 348.574219 C 229.832031 347.351562 233.410156 345.953125 236.917969 344.371094 C 240.425781 342.792969 243.847656 341.042969 247.179688 339.121094 C 250.511719 337.199219 253.742188 335.113281 256.863281 332.867188 C 259.988281 330.621094 262.992188 328.226562 265.875 325.679688 C 266.210938 325.402344 266.515625 325.097656 266.792969 324.761719 C 267.070312 324.425781 267.3125 324.066406 267.519531 323.6875 C 267.726562 323.304688 267.894531 322.90625 268.023438 322.488281 C 268.152344 322.074219 268.242188 321.652344 268.289062 321.21875 C 268.339844 320.789062 268.34375 320.355469 268.308594 319.921875 C 268.273438 319.488281 268.195312 319.0625 268.078125 318.644531 C 267.960938 318.226562 267.804688 317.824219 267.605469 317.433594 C 267.410156 317.046875 267.179688 316.679688 266.914062 316.335938 Z M 235.136719 275.476562 " fill-opacity="1" fill-rule="nonzero"/><g clip-path="url(#6d174d5212)"><path fill="#ffc107" d="M 194.195312 98.035156 C 195.628906 98.035156 197.058594 98.070312 198.492188 98.144531 C 199.925781 98.214844 201.351562 98.324219 202.78125 98.464844 C 204.207031 98.605469 205.628906 98.785156 207.046875 98.996094 C 208.464844 99.207031 209.875 99.453125 211.28125 99.734375 C 212.6875 100.015625 214.085938 100.332031 215.476562 100.679688 C 216.867188 101.03125 218.246094 101.414062 219.621094 101.832031 C 220.992188 102.246094 222.351562 102.699219 223.699219 103.183594 C 225.050781 103.667969 226.386719 104.183594 227.710938 104.734375 C 229.035156 105.28125 230.34375 105.863281 231.640625 106.476562 C 232.9375 107.089844 234.214844 107.734375 235.480469 108.414062 C 236.746094 109.089844 237.992188 109.796875 239.222656 110.53125 C 240.449219 111.269531 241.660156 112.039062 242.851562 112.835938 C 244.042969 113.632812 245.214844 114.457031 246.367188 115.3125 C 247.519531 116.164062 248.648438 117.046875 249.757812 117.957031 C 250.863281 118.867188 251.949219 119.804688 253.011719 120.765625 C 254.074219 121.730469 255.113281 122.71875 256.125 123.730469 C 257.140625 124.746094 258.128906 125.78125 259.089844 126.84375 C 260.054688 127.90625 260.988281 128.992188 261.898438 130.101562 C 262.808594 131.207031 263.691406 132.335938 264.546875 133.488281 C 265.398438 134.640625 266.226562 135.8125 267.023438 137.003906 C 267.820312 138.195312 268.585938 139.40625 269.324219 140.636719 C 270.0625 141.863281 270.769531 143.113281 271.445312 144.375 C 272.121094 145.640625 272.765625 146.917969 273.378906 148.214844 C 273.992188 149.511719 274.574219 150.820312 275.125 152.144531 C 275.671875 153.46875 276.191406 154.804688 276.675781 156.15625 C 277.15625 157.503906 277.609375 158.867188 278.027344 160.238281 C 278.441406 161.609375 278.828125 162.988281 279.175781 164.378906 C 279.523438 165.769531 279.839844 167.167969 280.121094 168.574219 C 280.402344 169.980469 280.648438 171.390625 280.859375 172.808594 C 281.074219 174.226562 281.25 175.648438 281.390625 177.078125 C 281.535156 178.503906 281.640625 179.933594 281.710938 181.363281 C 281.785156 182.796875 281.820312 184.230469 281.824219 185.664062 C 281.824219 186.105469 281.867188 186.542969 281.953125 186.976562 C 282.039062 187.410156 282.167969 187.832031 282.335938 188.242188 C 282.503906 188.652344 282.714844 189.039062 282.960938 189.40625 C 283.203125 189.773438 283.484375 190.117188 283.796875 190.429688 C 284.109375 190.742188 284.449219 191.019531 284.820312 191.265625 C 285.1875 191.511719 285.574219 191.71875 285.984375 191.890625 C 286.394531 192.058594 286.816406 192.1875 287.25 192.273438 C 287.683594 192.359375 288.121094 192.402344 288.5625 192.402344 L 342.488281 192.402344 C 342.933594 192.402344 343.371094 192.359375 343.804688 192.273438 C 344.238281 192.1875 344.660156 192.058594 345.070312 191.890625 C 345.476562 191.71875 345.867188 191.511719 346.234375 191.265625 C 346.601562 191.019531 346.941406 190.742188 347.253906 190.429688 C 347.570312 190.117188 347.847656 189.773438 348.09375 189.40625 C 348.339844 189.039062 348.546875 188.652344 348.71875 188.242188 C 348.886719 187.832031 349.015625 187.410156 349.101562 186.976562 C 349.1875 186.542969 349.230469 186.105469 349.230469 185.664062 C 349.226562 183.125 349.164062 180.589844 349.035156 178.058594 C 348.90625 175.523438 348.71875 172.996094 348.46875 170.472656 C 348.214844 167.949219 347.902344 165.429688 347.527344 162.921875 C 347.15625 160.414062 346.71875 157.914062 346.222656 155.429688 C 345.726562 152.941406 345.167969 150.46875 344.550781 148.007812 C 343.929688 145.546875 343.253906 143.105469 342.515625 140.675781 C 341.777344 138.25 340.980469 135.84375 340.125 133.457031 C 339.269531 131.066406 338.355469 128.703125 337.382812 126.359375 C 336.410156 124.015625 335.382812 121.699219 334.296875 119.40625 C 333.210938 117.113281 332.070312 114.851562 330.871094 112.613281 C 329.675781 110.378906 328.425781 108.171875 327.121094 105.996094 C 325.816406 103.820312 324.457031 101.679688 323.046875 99.570312 C 321.636719 97.460938 320.175781 95.390625 318.667969 93.351562 C 317.15625 91.316406 315.59375 89.316406 313.984375 87.355469 C 312.375 85.394531 310.71875 83.476562 309.015625 81.597656 C 307.3125 79.714844 305.5625 77.878906 303.769531 76.085938 C 301.976562 74.292969 300.140625 72.542969 298.261719 70.839844 C 296.382812 69.136719 294.460938 67.480469 292.5 65.871094 C 290.539062 64.261719 288.542969 62.703125 286.503906 61.191406 C 284.46875 59.679688 282.394531 58.21875 280.285156 56.808594 C 278.175781 55.398438 276.035156 54.042969 273.859375 52.738281 C 271.683594 51.433594 269.480469 50.179688 267.242188 48.984375 C 265.007812 47.789062 262.742188 46.648438 260.449219 45.5625 C 258.15625 44.476562 255.839844 43.445312 253.496094 42.472656 C 251.152344 41.503906 248.789062 40.589844 246.402344 39.730469 C 244.011719 38.875 241.605469 38.078125 239.179688 37.339844 C 236.753906 36.601562 234.308594 35.925781 231.847656 35.308594 C 229.390625 34.6875 226.914062 34.132812 224.429688 33.632812 C 221.941406 33.136719 219.441406 32.703125 216.933594 32.328125 C 214.425781 31.953125 211.910156 31.640625 209.382812 31.386719 C 206.859375 31.136719 204.332031 30.949219 201.796875 30.820312 C 199.265625 30.695312 196.730469 30.628906 194.195312 30.625 C 193.75 30.625 193.3125 30.667969 192.878906 30.753906 C 192.445312 30.84375 192.023438 30.96875 191.613281 31.140625 C 191.207031 31.308594 190.816406 31.515625 190.449219 31.761719 C 190.082031 32.007812 189.742188 32.289062 189.425781 32.601562 C 189.113281 32.914062 188.835938 33.253906 188.589844 33.621094 C 188.34375 33.988281 188.136719 34.378906 187.964844 34.789062 C 187.796875 35.195312 187.667969 35.617188 187.582031 36.050781 C 187.496094 36.484375 187.453125 36.925781 187.453125 37.367188 L 187.453125 91.292969 C 187.453125 91.734375 187.496094 92.171875 187.582031 92.609375 C 187.667969 93.042969 187.796875 93.464844 187.964844 93.871094 C 188.136719 94.28125 188.34375 94.667969 188.589844 95.039062 C 188.835938 95.40625 189.113281 95.746094 189.425781 96.058594 C 189.742188 96.371094 190.082031 96.652344 190.449219 96.898438 C 190.816406 97.144531 191.207031 97.351562 191.613281 97.519531 C 192.023438 97.691406 192.445312 97.816406 192.878906 97.902344 C 193.3125 97.988281 193.75 98.035156 194.195312 98.035156 Z M 194.195312 98.035156 " fill-opacity="1" fill-rule="nonzero"/></g><path fill="#f44336" d="M 342.488281 205.882812 L 287.5 205.882812 C 287.09375 205.878906 286.691406 205.914062 286.292969 205.980469 C 285.894531 206.050781 285.503906 206.152344 285.121094 206.292969 C 284.742188 206.429688 284.375 206.601562 284.027344 206.804688 C 283.675781 207.011719 283.347656 207.246094 283.042969 207.507812 C 282.734375 207.773438 282.453125 208.0625 282.195312 208.375 C 281.941406 208.691406 281.714844 209.027344 281.523438 209.382812 C 281.328125 209.734375 281.164062 210.105469 281.035156 210.488281 C 280.910156 210.875 280.816406 211.265625 280.757812 211.667969 C 280.003906 216.929688 278.78125 222.082031 277.089844 227.117188 C 275.398438 232.15625 273.265625 237.003906 270.691406 241.652344 C 268.113281 246.300781 265.140625 250.679688 261.765625 254.789062 C 258.390625 258.894531 254.675781 262.664062 250.613281 266.09375 C 250.277344 266.375 249.96875 266.6875 249.695312 267.027344 C 249.417969 267.371094 249.179688 267.734375 248.972656 268.125 C 248.769531 268.515625 248.605469 268.917969 248.480469 269.339844 C 248.355469 269.761719 248.269531 270.191406 248.230469 270.628906 C 248.1875 271.066406 248.191406 271.503906 248.234375 271.941406 C 248.277344 272.378906 248.363281 272.804688 248.492188 273.226562 C 248.621094 273.648438 248.789062 274.050781 248.996094 274.4375 C 249.203125 274.824219 249.445312 275.1875 249.722656 275.53125 L 290.007812 325.410156 C 290.59375 326.140625 291.300781 326.722656 292.132812 327.15625 C 292.960938 327.589844 293.84375 327.839844 294.777344 327.90625 L 295.304688 327.90625 C 296.15625 327.90625 296.980469 327.75 297.773438 327.4375 C 298.566406 327.125 299.277344 326.679688 299.902344 326.097656 C 303.777344 322.472656 307.457031 318.660156 310.945312 314.660156 C 314.429688 310.660156 317.703125 306.488281 320.761719 302.152344 C 323.820312 297.820312 326.652344 293.335938 329.253906 288.710938 C 331.851562 284.085938 334.210938 279.339844 336.328125 274.472656 C 338.441406 269.609375 340.304688 264.644531 341.914062 259.589844 C 343.519531 254.53125 344.867188 249.40625 345.949219 244.210938 C 347.035156 239.015625 347.851562 233.78125 348.398438 228.503906 C 348.945312 223.222656 349.222656 217.933594 349.230469 212.625 C 349.230469 212.183594 349.1875 211.746094 349.101562 211.308594 C 349.015625 210.875 348.886719 210.453125 348.71875 210.046875 C 348.546875 209.636719 348.339844 209.25 348.09375 208.878906 C 347.847656 208.511719 347.570312 208.171875 347.253906 207.859375 C 346.941406 207.546875 346.601562 207.265625 346.234375 207.019531 C 345.867188 206.773438 345.476562 206.566406 345.070312 206.398438 C 344.660156 206.226562 344.238281 206.101562 343.804688 206.015625 C 343.371094 205.925781 342.933594 205.882812 342.488281 205.882812 Z M 342.488281 205.882812 " fill-opacity="1" fill-rule="nonzero"/></svg>