<svg xmlns="http://www.w3.org/2000/svg" xmlns:xlink="http://www.w3.org/1999/xlink" width="50px" zoomAndPan="magnify" viewBox="0 0 1050 1049.999947" preserveAspectRatio="xMidYMid meet" version="1.0"><defs><clipPath id="7ca698900b"><path d="M 307.65625 47 L 722 47 L 722 1015 L 307.65625 1015 Z M 307.65625 47 " clip-rule="nonzero"/></clipPath></defs><g clip-path="url(#7ca698900b)"><path fill="#f30000" d="M 307.65625 254.902344 C 307.640625 259.828125 307.796875 264.746094 308.132812 269.660156 C 308.46875 274.574219 308.980469 279.46875 309.664062 284.34375 C 310.351562 289.222656 311.214844 294.066406 312.25 298.882812 C 313.285156 303.695312 314.492188 308.46875 315.871094 313.195312 C 317.25 317.921875 318.796875 322.597656 320.511719 327.214844 C 322.226562 331.828125 324.101562 336.378906 326.144531 340.863281 C 328.1875 345.34375 330.386719 349.746094 332.746094 354.070312 C 335.101562 358.394531 337.613281 362.628906 340.273438 366.773438 C 342.9375 370.917969 345.746094 374.960938 348.699219 378.902344 C 351.652344 382.84375 354.742188 386.675781 357.972656 390.394531 C 361.199219 394.113281 364.558594 397.714844 368.046875 401.191406 C 371.535156 404.671875 375.140625 408.019531 378.871094 411.242188 C 382.597656 414.460938 386.4375 417.542969 390.386719 420.488281 C 394.335938 423.429688 398.386719 426.230469 402.539062 428.882812 C 406.691406 431.535156 410.929688 434.035156 415.261719 436.386719 C 419.59375 438.734375 424.003906 440.925781 428.492188 442.957031 L 428.492188 927.753906 C 428.492188 930.042969 428.929688 932.242188 429.804688 934.355469 C 430.683594 936.46875 431.929688 938.335938 433.546875 939.953125 L 502.597656 1008.960938 C 502.996094 1009.363281 503.414062 1009.742188 503.851562 1010.101562 C 504.289062 1010.457031 504.742188 1010.792969 505.210938 1011.109375 C 505.679688 1011.421875 506.164062 1011.714844 506.664062 1011.980469 C 507.164062 1012.246094 507.671875 1012.488281 508.195312 1012.703125 C 508.71875 1012.921875 509.25 1013.109375 509.789062 1013.273438 C 510.332031 1013.4375 510.878906 1013.574219 511.433594 1013.6875 C 511.988281 1013.796875 512.546875 1013.878906 513.109375 1013.933594 C 513.671875 1013.988281 514.234375 1014.019531 514.800781 1014.019531 C 515.367188 1014.019531 515.929688 1013.988281 516.492188 1013.933594 C 517.054688 1013.878906 517.613281 1013.796875 518.167969 1013.6875 C 518.722656 1013.574219 519.269531 1013.4375 519.8125 1013.273438 C 520.351562 1013.109375 520.882812 1012.921875 521.40625 1012.703125 C 521.929688 1012.488281 522.4375 1012.246094 522.9375 1011.980469 C 523.4375 1011.714844 523.917969 1011.421875 524.390625 1011.109375 C 524.859375 1010.792969 525.3125 1010.457031 525.75 1010.101562 C 526.1875 1009.742188 526.605469 1009.363281 527.003906 1008.960938 L 596.050781 939.953125 C 597.671875 938.335938 598.917969 936.46875 599.792969 934.355469 C 600.671875 932.242188 601.109375 930.042969 601.109375 927.753906 L 601.109375 858.742188 C 601.109375 856.457031 600.671875 854.253906 599.792969 852.140625 C 598.917969 850.027344 597.671875 848.164062 596.050781 846.546875 L 556.472656 806.984375 L 596.050781 767.425781 C 596.453125 767.027344 596.832031 766.609375 597.191406 766.171875 C 597.550781 765.734375 597.886719 765.28125 598.199219 764.8125 C 598.515625 764.34375 598.804688 763.859375 599.070312 763.359375 C 599.339844 762.863281 599.578125 762.351562 599.796875 761.832031 C 600.011719 761.308594 600.203125 760.777344 600.367188 760.234375 C 600.53125 759.695312 600.667969 759.148438 600.777344 758.59375 C 600.890625 758.039062 600.972656 757.480469 601.027344 756.917969 C 601.082031 756.355469 601.109375 755.792969 601.109375 755.226562 C 601.109375 754.664062 601.082031 754.097656 601.027344 753.539062 C 600.972656 752.976562 600.890625 752.417969 600.777344 751.863281 C 600.667969 751.308594 600.53125 750.761719 600.367188 750.21875 C 600.203125 749.679688 600.011719 749.148438 599.796875 748.625 C 599.578125 748.105469 599.339844 747.59375 599.070312 747.097656 C 598.804688 746.597656 598.515625 746.113281 598.199219 745.644531 C 597.886719 745.175781 597.550781 744.722656 597.191406 744.285156 C 596.832031 743.847656 596.453125 743.429688 596.050781 743.03125 L 556.472656 703.46875 L 596.050781 663.910156 C 596.453125 663.511719 596.832031 663.09375 597.191406 662.65625 C 597.550781 662.21875 597.886719 661.765625 598.199219 661.296875 C 598.515625 660.828125 598.804688 660.34375 599.070312 659.84375 C 599.339844 659.347656 599.578125 658.835938 599.796875 658.316406 C 600.011719 657.792969 600.203125 657.261719 600.367188 656.71875 C 600.53125 656.179688 600.667969 655.632812 600.777344 655.078125 C 600.890625 654.523438 600.972656 653.964844 601.027344 653.402344 C 601.082031 652.839844 601.109375 652.277344 601.109375 651.710938 C 601.109375 651.148438 601.082031 650.582031 601.027344 650.023438 C 600.972656 649.460938 600.890625 648.902344 600.777344 648.347656 C 600.667969 647.792969 600.53125 647.246094 600.367188 646.703125 C 600.203125 646.164062 600.011719 645.632812 599.796875 645.109375 C 599.578125 644.589844 599.339844 644.078125 599.070312 643.582031 C 598.804688 643.082031 598.515625 642.597656 598.199219 642.128906 C 597.886719 641.660156 597.550781 641.207031 597.191406 640.769531 C 596.832031 640.332031 596.453125 639.914062 596.050781 639.515625 L 556.472656 599.953125 L 596.050781 560.394531 C 597.671875 558.777344 598.917969 556.910156 599.792969 554.796875 C 600.671875 552.683594 601.109375 550.484375 601.109375 548.195312 L 601.109375 442.957031 C 603.910156 441.671875 606.679688 440.328125 609.417969 438.917969 C 612.15625 437.511719 614.863281 436.046875 617.535156 434.515625 C 620.210938 432.988281 622.847656 431.402344 625.453125 429.757812 C 628.054688 428.109375 630.621094 426.410156 633.144531 424.648438 C 635.671875 422.886719 638.160156 421.074219 640.605469 419.203125 C 643.050781 417.332031 645.453125 415.40625 647.8125 413.429688 C 650.171875 411.449219 652.488281 409.421875 654.757812 407.339844 C 657.027344 405.257812 659.25 403.128906 661.421875 400.949219 C 663.597656 398.769531 665.722656 396.539062 667.796875 394.265625 C 669.871094 391.992188 671.894531 389.671875 673.863281 387.304688 C 675.835938 384.941406 677.753906 382.53125 679.617188 380.082031 C 681.480469 377.628906 683.289062 375.140625 685.039062 372.609375 C 686.792969 370.078125 688.488281 367.507812 690.125 364.902344 C 691.765625 362.292969 693.34375 359.652344 694.863281 356.976562 C 696.382812 354.296875 697.839844 351.585938 699.242188 348.84375 C 700.640625 346.101562 701.976562 343.332031 703.25 340.527344 C 704.527344 337.726562 705.738281 334.898438 706.886719 332.042969 C 708.035156 329.183594 709.121094 326.304688 710.140625 323.402344 C 711.160156 320.496094 712.117188 317.570312 713.003906 314.625 C 713.894531 311.675781 714.71875 308.710938 715.476562 305.726562 C 716.234375 302.742188 716.921875 299.746094 717.546875 296.730469 C 718.171875 293.714844 718.726562 290.6875 719.214844 287.648438 C 719.703125 284.609375 720.121094 281.5625 720.476562 278.503906 C 720.828125 275.445312 721.109375 272.382812 721.324219 269.3125 C 721.542969 266.238281 721.6875 263.164062 721.765625 260.089844 C 721.84375 257.011719 721.855469 253.933594 721.792969 250.855469 C 721.734375 247.777344 721.605469 244.703125 721.410156 241.632812 C 721.214844 238.558594 720.949219 235.496094 720.617188 232.433594 C 720.28125 229.375 719.882812 226.324219 719.410156 223.28125 C 718.941406 220.238281 718.40625 217.207031 717.800781 214.191406 C 717.195312 211.171875 716.523438 208.167969 715.785156 205.179688 C 715.046875 202.191406 714.238281 199.222656 713.367188 196.269531 C 712.496094 193.316406 711.558594 190.386719 710.558594 187.472656 C 709.554688 184.5625 708.488281 181.675781 707.355469 178.8125 C 706.226562 175.949219 705.03125 173.113281 703.773438 170.304688 C 702.515625 167.496094 701.195312 164.714844 699.8125 161.964844 C 698.429688 159.210938 696.988281 156.492188 695.484375 153.808594 C 693.980469 151.121094 692.417969 148.46875 690.796875 145.851562 C 689.175781 143.234375 687.496094 140.65625 685.757812 138.113281 C 684.023438 135.570312 682.230469 133.070312 680.382812 130.609375 C 678.53125 128.144531 676.628906 125.726562 674.671875 123.347656 C 672.71875 120.972656 670.707031 118.640625 668.648438 116.351562 C 666.585938 114.0625 664.476562 111.824219 662.316406 109.628906 C 660.15625 107.4375 657.945312 105.292969 655.691406 103.195312 C 653.433594 101.101562 651.132812 99.058594 648.785156 97.066406 C 646.4375 95.074219 644.042969 93.132812 641.609375 91.25 C 639.175781 89.363281 636.699219 87.53125 634.183594 85.757812 C 631.667969 83.980469 629.113281 82.261719 626.523438 80.601562 C 623.929688 78.941406 621.300781 77.335938 618.636719 75.792969 C 615.972656 74.25 613.273438 72.765625 610.542969 71.339844 C 607.8125 69.917969 605.054688 68.554688 602.261719 67.253906 C 599.46875 65.953125 596.652344 64.714844 593.804688 63.539062 C 590.957031 62.363281 588.085938 61.253906 585.191406 60.207031 C 582.292969 59.160156 579.375 58.175781 576.4375 57.261719 C 573.496094 56.34375 570.539062 55.492188 567.558594 54.707031 C 564.582031 53.921875 561.585938 53.203125 558.578125 52.550781 C 555.566406 51.898438 552.542969 51.316406 549.507812 50.800781 C 546.472656 50.28125 543.425781 49.835938 540.367188 49.453125 C 537.3125 49.074219 534.25 48.757812 531.179688 48.515625 C 528.109375 48.269531 525.035156 48.09375 521.957031 47.988281 C 518.878906 47.882812 515.800781 47.84375 512.722656 47.871094 C 509.640625 47.902344 506.5625 48 503.488281 48.167969 C 500.414062 48.335938 497.34375 48.570312 494.277344 48.875 C 491.214844 49.179688 488.15625 49.550781 485.109375 49.992188 C 482.0625 50.433594 479.023438 50.941406 476 51.519531 C 472.972656 52.09375 469.960938 52.738281 466.964844 53.445312 C 463.96875 54.15625 460.988281 54.933594 458.027344 55.777344 C 455.066406 56.621094 452.121094 57.527344 449.203125 58.503906 C 446.28125 59.476562 443.382812 60.515625 440.507812 61.621094 C 437.632812 62.722656 434.78125 63.890625 431.957031 65.121094 C 429.136719 66.351562 426.339844 67.644531 423.578125 69 C 420.8125 70.355469 418.078125 71.769531 415.375 73.246094 C 412.671875 74.726562 410.003906 76.261719 407.371094 77.855469 C 404.738281 79.453125 402.140625 81.105469 399.582031 82.820312 C 397.023438 84.53125 394.5 86.300781 392.019531 88.125 C 389.539062 89.949219 387.101562 91.824219 384.703125 93.757812 C 382.308594 95.691406 379.953125 97.675781 377.648438 99.714844 C 375.339844 101.753906 373.078125 103.839844 370.863281 105.980469 C 368.648438 108.117188 366.480469 110.304688 364.363281 112.542969 C 362.246094 114.777344 360.179688 117.058594 358.164062 119.386719 C 356.148438 121.710938 354.183594 124.082031 352.273438 126.5 C 350.367188 128.914062 348.511719 131.371094 346.710938 133.867188 C 344.910156 136.367188 343.167969 138.902344 341.480469 141.476562 C 339.792969 144.054688 338.164062 146.664062 336.59375 149.3125 C 335.023438 151.960938 333.515625 154.644531 332.0625 157.359375 C 330.613281 160.074219 329.222656 162.820312 327.894531 165.597656 C 326.566406 168.375 325.300781 171.179688 324.101562 174.015625 C 322.898438 176.847656 321.757812 179.707031 320.683594 182.59375 C 319.609375 185.476562 318.597656 188.382812 317.652344 191.3125 C 316.707031 194.242188 315.828125 197.191406 315.015625 200.160156 C 314.199219 203.128906 313.453125 206.117188 312.773438 209.117188 C 312.09375 212.121094 311.480469 215.136719 310.933594 218.164062 C 310.386719 221.195312 309.910156 224.234375 309.5 227.285156 C 309.089844 230.335938 308.75 233.394531 308.476562 236.460938 C 308.203125 239.527344 307.996094 242.597656 307.859375 245.671875 C 307.722656 248.746094 307.65625 251.824219 307.65625 254.902344 Z M 566.585938 168.640625 C 566.585938 170.335938 566.503906 172.027344 566.335938 173.714844 C 566.171875 175.398438 565.921875 177.074219 565.589844 178.738281 C 565.261719 180.398438 564.847656 182.042969 564.355469 183.664062 C 563.863281 185.285156 563.292969 186.878906 562.644531 188.445312 C 561.996094 190.011719 561.269531 191.542969 560.472656 193.039062 C 559.671875 194.53125 558.800781 195.984375 557.859375 197.394531 C 556.917969 198.804688 555.90625 200.164062 554.832031 201.472656 C 553.753906 202.785156 552.617188 204.039062 551.417969 205.238281 C 550.21875 206.4375 548.964844 207.574219 547.652344 208.648438 C 546.34375 209.722656 544.980469 210.734375 543.570312 211.675781 C 542.160156 212.617188 540.707031 213.488281 539.210938 214.285156 C 537.714844 215.085938 536.183594 215.808594 534.617188 216.457031 C 533.050781 217.105469 531.457031 217.675781 529.832031 218.167969 C 528.210938 218.660156 526.566406 219.074219 524.902344 219.402344 C 523.238281 219.734375 521.5625 219.980469 519.875 220.148438 C 518.1875 220.316406 516.496094 220.398438 514.800781 220.398438 C 513.105469 220.398438 511.414062 220.316406 509.722656 220.148438 C 508.035156 219.980469 506.359375 219.734375 504.699219 219.402344 C 503.035156 219.074219 501.390625 218.660156 499.769531 218.167969 C 498.144531 217.675781 496.550781 217.105469 494.984375 216.457031 C 493.414062 215.808594 491.882812 215.085938 490.390625 214.285156 C 488.894531 213.488281 487.441406 212.617188 486.03125 211.675781 C 484.621094 210.734375 483.257812 209.722656 481.949219 208.648438 C 480.636719 207.574219 479.382812 206.4375 478.183594 205.238281 C 476.984375 204.039062 475.84375 202.785156 474.769531 201.472656 C 473.695312 200.164062 472.683594 198.804688 471.742188 197.394531 C 470.800781 195.984375 469.929688 194.53125 469.128906 193.039062 C 468.328125 191.542969 467.605469 190.011719 466.957031 188.445312 C 466.308594 186.878906 465.738281 185.285156 465.246094 183.664062 C 464.753906 182.042969 464.339844 180.398438 464.011719 178.738281 C 463.679688 177.074219 463.429688 175.398438 463.265625 173.714844 C 463.097656 172.027344 463.015625 170.335938 463.015625 168.640625 C 463.015625 166.945312 463.097656 165.253906 463.265625 163.566406 C 463.429688 161.878906 463.679688 160.203125 464.011719 158.542969 C 464.339844 156.878906 464.753906 155.238281 465.246094 153.617188 C 465.738281 151.992188 466.308594 150.398438 466.957031 148.832031 C 467.605469 147.265625 468.328125 145.734375 469.128906 144.242188 C 469.929688 142.746094 470.800781 141.292969 471.742188 139.886719 C 472.683594 138.476562 473.695312 137.117188 474.769531 135.804688 C 475.84375 134.496094 476.984375 133.238281 478.183594 132.042969 C 479.382812 130.84375 480.636719 129.707031 481.949219 128.628906 C 483.257812 127.554688 484.621094 126.546875 486.03125 125.605469 C 487.441406 124.664062 488.894531 123.792969 490.390625 122.992188 C 491.882812 122.195312 493.414062 121.46875 494.984375 120.820312 C 496.550781 120.171875 498.144531 119.601562 499.769531 119.109375 C 501.390625 118.617188 503.035156 118.207031 504.699219 117.875 C 506.359375 117.546875 508.035156 117.296875 509.726562 117.132812 C 511.414062 116.964844 513.105469 116.882812 514.800781 116.882812 C 516.496094 116.882812 518.1875 116.96875 519.875 117.136719 C 521.5625 117.304688 523.238281 117.554688 524.898438 117.886719 C 526.5625 118.21875 528.203125 118.628906 529.828125 119.125 C 531.449219 119.617188 533.042969 120.1875 534.609375 120.835938 C 536.175781 121.488281 537.707031 122.210938 539.199219 123.011719 C 540.695312 123.808594 542.148438 124.679688 543.558594 125.621094 C 544.96875 126.5625 546.328125 127.574219 547.636719 128.648438 C 548.949219 129.722656 550.203125 130.859375 551.402344 132.058594 C 552.601562 133.257812 553.738281 134.511719 554.8125 135.820312 C 555.890625 137.128906 556.898438 138.488281 557.839844 139.898438 C 558.785156 141.308594 559.65625 142.757812 560.453125 144.253906 C 561.253906 145.746094 561.980469 147.277344 562.628906 148.839844 C 563.277344 150.40625 563.851562 152 564.34375 153.621094 C 564.835938 155.242188 565.25 156.882812 565.582031 158.546875 C 565.914062 160.207031 566.164062 161.882812 566.332031 163.570312 C 566.5 165.253906 566.585938 166.945312 566.585938 168.640625 Z M 566.585938 168.640625 " fill-opacity="1" fill-rule="nonzero"/></g></svg>