<?xml version="1.0" encoding="UTF-8"?>
<svg width="50px" version="1.0" viewBox="0 0 375 375" xmlns="http://www.w3.org/2000/svg" zoomAndPan="magnify">
<rect x="-37.5" y="-37.5" width="450" height="450" fill="#fff"/>
<rect x="-37.5" y="-37.5" width="450" height="450" fill="#efeadd"/>
<path d="m302.03 207.25c-14.027 0.1875-25.555-10.215-25.73-23.254-0.042969-3.1719 0.60156-6.2109 1.7891-8.9922 3.9297 8.5117 13.102 14.426 23.703 14.277 10.605-0.14453 19.613-6.3008 23.301-14.922 1.2656 2.7461 1.9883 5.7656 2.0352 8.9492 0.17188 13.035-11.059 23.75-25.098 23.941zm-0.92578 84.203c-6.3555-13.793-21.207-23.375-38.383-23.145-17.191 0.23828-31.781 10.215-37.75 24.184-2.0586-4.457-3.2305-9.3555-3.3008-14.512-0.28516-21.098 17.918-38.461 40.656-38.773 22.73-0.30859 41.387 16.551 41.672 37.656 0.074219 5.1484-0.96094 10.078-2.8945 14.59zm-105.08-106.36c-0.042969-3.1758 0.59766-6.2188 1.7891-9.0039 3.9258 8.5234 13.094 14.434 23.699 14.285 10.605-0.14062 19.605-6.3047 23.293-14.922 1.2734 2.75 1.9883 5.7695 2.0352 8.9492 0.17969 13.039-11.051 23.75-25.078 23.938-14.043 0.19141-25.562-10.211-25.738-23.246zm164.45-50.211c-28.879 6.3867-64.16-18.238-101.77-17.723-36.02 0.48828-69.238 26.336-97.516 21.188-2.8672 11.367-4.3281 23.414-4.1602 35.891 0.90625 66.898 52.41 169.14 106.7 168.4 61.594-0.83203 103-104.34 102.09-171.25-0.17188-12.75-2.0391-25.004-5.3438-36.512" fill="#f14161"/>
<path d="m176.82 135.13c-3.9219-8.5234-13.098-14.426-23.703-14.285-10.602 0.14453-19.609 6.293-23.305 14.922-1.2578-2.7578-1.9883-5.7773-2.0391-8.9531-0.17188-13.031 11.062-23.75 25.102-23.938 14.031-0.19922 25.559 10.211 25.73 23.246 0.046875 3.1758-0.59766 6.2148-1.7852 9.0078zm-62.5 85.043c-22.734 0.30859-41.398-16.551-41.688-37.664-0.066407-5.1445 0.96875-10.074 2.9062-14.586 6.3555 13.805 21.199 23.379 38.391 23.141 17.176-0.23438 31.762-10.207 37.738-24.176 2.0547 4.4531 3.2266 9.3555 3.2969 14.504 0.28516 21.105-17.91 38.465-40.645 38.781zm-64.773-83.312c-1.2773-2.75-1.9961-5.7773-2.043-8.9531-0.17187-13.035 11.062-23.746 25.094-23.945 14.031-0.18359 25.551 10.223 25.73 23.25 0.042969 3.1797-0.59766 6.2188-1.793 9.0039-3.9258-8.5234-13.09-14.426-23.699-14.277-10.602 0.14062-19.605 6.293-23.289 14.922zm162.2-73.781c-28.875 6.3906-64.145-18.238-101.77-17.73-36.012 0.49609-69.234 26.348-97.512 21.195-2.8633 11.367-4.332 23.414-4.168 35.887 0.91016 66.902 52.402 169.15 106.71 168.41 61.586-0.83984 103-104.35 102.09-171.25-0.17188-12.746-2.0469-25.004-5.3555-36.508" fill="#d770be"/>
</svg>
