<?xml version="1.0" encoding="UTF-8"?>
<svg width="50px" version="1.0" viewBox="0 0 375 375" xmlns="http://www.w3.org/2000/svg" zoomAndPan="magnify">
<defs>
<clipPath id="a">
<path d="m187 30.625h163v162.38h-163z"/>
</clipPath>
</defs>
<rect x="-37.5" y="-37.5" width="450" height="450" fill="#fff"/>
<rect x="-37.5" y="-37.5" width="450" height="450" fill="#efeadd"/>
<path d="m235.14 275.48c-0.25-0.32422-0.53125-0.625-0.83594-0.89844-0.30859-0.26953-0.63672-0.51562-0.98828-0.72656-0.35156-0.21484-0.71875-0.39453-1.1016-0.53906-0.38281-0.14453-0.77734-0.25391-1.1797-0.32812-0.40625-0.074219-0.8125-0.11328-1.2227-0.11328s-0.81641 0.039062-1.2227 0.11328c-0.40234 0.074219-0.79688 0.1875-1.1797 0.33203-0.38281 0.14844-0.75 0.32812-1.1016 0.54297-1.3789 0.84375-2.7812 1.6484-4.207 2.418-1.4258 0.76562-2.8711 1.4922-4.3359 2.1797-1.4648 0.6875-2.9492 1.332-4.4492 1.9375s-3.0195 1.168-4.5508 1.6914c-1.5312 0.51953-3.0781 0.99609-4.6367 1.4336-1.5586 0.43359-3.1289 0.82422-4.7109 1.1719-1.582 0.34766-3.168 0.65234-4.7656 0.91406-1.5977 0.25781-3.2031 0.47266-4.8125 0.64453-1.6094 0.17188-3.2227 0.29688-4.8398 0.37891-1.6172 0.082032-3.2344 0.11719-4.8516 0.10938-1.6172-0.007812-3.2344-0.0625-4.8516-0.16016-1.6133-0.097656-3.2266-0.24219-4.8359-0.42969-1.6055-0.1875-3.207-0.41797-4.8008-0.69531-1.5977-0.27344-3.1836-0.59375-4.7578-0.96094-1.5781-0.36328-3.1445-0.76953-4.6992-1.2227-1.5547-0.44922-3.0938-0.94531-4.6211-1.4805-1.5273-0.53516-3.0391-1.1133-4.5352-1.7344-1.4922-0.62109-2.9688-1.2812-4.4297-1.9844-1.457-0.70312-2.8945-1.4453-4.3125-2.2266s-2.8125-1.6016-4.1836-2.4609c-1.3711-0.85937-2.7188-1.7578-4.0391-2.6914-1.3242-0.93359-2.6172-1.9023-3.8867-2.9102-1.2656-1.0039-2.5078-2.043-3.7148-3.1172-1.2109-1.0742-2.3906-2.1836-3.5391-3.3242-1.1523-1.1406-2.2656-2.3086-3.3516-3.5117-1.0859-1.2031-2.1328-2.4336-3.1484-3.6914-1.0156-1.2617-1.9961-2.5508-2.9414-3.8633-0.94531-1.3164-1.8516-2.6523-2.7227-4.0195-0.87109-1.3633-1.6992-2.7539-2.4961-4.1641-0.79297-1.4102-1.543-2.8398-2.2578-4.293-0.71484-1.4531-1.3867-2.9258-2.0195-4.4141-0.63281-1.4922-1.2227-2.9961-1.7695-4.5195-0.55078-1.5234-1.0547-3.0625-1.5195-4.6133-0.46484-1.5508-0.88281-3.1133-1.2578-4.6875-0.37891-1.5742-0.71094-3.1562-1-4.75-0.28906-1.5898-0.53516-3.1914-0.73438-4.7969s-0.35547-3.2148-0.46484-4.832c-0.11328-1.6133-0.17578-3.2305-0.19922-4.8477-0.019532-1.6211 0.003906-3.2383 0.070312-4.8555 0.070312-1.6172 0.18359-3.2305 0.33984-4.8398 0.16016-1.6133 0.36328-3.2188 0.60938-4.8164 0.24609-1.6016 0.53906-3.1914 0.875-4.7734 0.33203-1.5859 0.71094-3.1562 1.1367-4.7188 0.42187-1.5625 0.88672-3.1133 1.3945-4.6484 0.50781-1.5391 1.0586-3.0586 1.6523-4.5664 0.59375-1.5039 1.2266-2.9922 1.9023-4.4648 0.67578-1.4688 1.3906-2.9219 2.1484-4.3516 0.75781-1.4336 1.5508-2.8398 2.3867-4.2266 0.83203-1.3906 1.7031-2.75 2.6133-4.0898s1.8555-2.6523 2.8398-3.9375c0.98047-1.2852 2-2.543 3.0508-3.7734 1.0547-1.2305 2.1367-2.4297 3.2578-3.6016 1.1172-1.168 2.2695-2.3047 3.4492-3.4102 1.1836-1.1094 2.3945-2.1797 3.6367-3.2188 1.2422-1.0391 2.5117-2.043 3.8086-3.0078 1.2969-0.96875 2.6172-1.9023 3.9688-2.7969 1.3477-0.89453 2.7188-1.75 4.1172-2.5703 1.3945-0.82031 2.8125-1.5977 4.2539-2.3359 1.4375-0.74219 2.8984-1.4414 4.375-2.1016 1.4766-0.66016 2.9727-1.2773 4.4844-1.8516 1.5156-0.57812 3.043-1.1094 4.582-1.6016 1.543-0.49219 3.0977-0.94141 4.6641-1.3477 1.5703-0.40234 3.1445-0.76563 4.7344-1.082 1.5859-0.32031 3.1797-0.59375 4.7812-0.82031 0.39844-0.058594 0.78906-0.15234 1.1719-0.27734 0.37891-0.12891 0.74609-0.28516 1.1016-0.48047 0.35156-0.19141 0.6875-0.41406 1-0.66797 0.3125-0.25 0.60156-0.53125 0.86328-0.83203 0.26562-0.30469 0.5-0.62891 0.70312-0.97656 0.20703-0.34766 0.37891-0.70703 0.51953-1.0859 0.14062-0.375 0.24609-0.76172 0.31641-1.1562 0.074219-0.39844 0.10938-0.79688 0.10938-1.1992v-55.004c0-0.44141-0.042968-0.87891-0.12891-1.3125-0.085938-0.4375-0.21484-0.85938-0.38672-1.2656-0.16797-0.41016-0.375-0.79688-0.62109-1.168-0.24609-0.36719-0.52734-0.70703-0.83984-1.0195s-0.65234-0.59375-1.0195-0.83984c-0.36719-0.24609-0.75781-0.45313-1.1641-0.62109-0.41016-0.16797-0.83203-0.29688-1.2656-0.38281-0.43359-0.085937-0.875-0.12891-1.3164-0.12891-78.059 0-141.55 69.551-141.55 155.04 0.003907 2.5352 0.070313 5.0703 0.19531 7.6055 0.12891 2.5312 0.31641 5.0586 0.56641 7.5859 0.25391 2.5234 0.56641 5.0391 0.94141 7.5469 0.37109 2.5078 0.80859 5.0078 1.3047 7.4961 0.49609 2.4844 1.0547 4.9609 1.6719 7.418 0.62109 2.4609 1.2969 4.9062 2.0352 7.332 0.73828 2.4258 1.5352 4.832 2.3906 7.2227 0.85547 2.3867 1.7695 4.75 2.7422 7.0938 0.97266 2.3438 2 4.6602 3.0859 6.9531 1.0859 2.293 2.2266 4.5586 3.4258 6.793 1.1953 2.2383 2.4453 4.4453 3.75 6.6172 1.3047 2.1758 2.6641 4.3203 4.0742 6.4258 1.4102 2.1094 2.8711 4.1836 4.3828 6.2188 1.5078 2.0391 3.0703 4.0352 4.6797 5.9961 1.6094 1.9609 3.2656 3.8828 4.9688 5.7617 1.7031 1.8789 3.4531 3.7148 5.2461 5.5078s3.6289 3.543 5.5078 5.2461c1.8789 1.7031 3.8008 3.3594 5.7617 4.9688s3.957 3.1719 5.9961 4.6836c2.0352 1.5117 4.1094 2.9727 6.2188 4.3789 2.1094 1.4102 4.25 2.7695 6.4258 4.0742 2.1758 1.3047 4.3789 2.5547 6.6172 3.75 2.2344 1.1992 4.5 2.3398 6.793 3.4258 2.293 1.0859 4.6094 2.1133 6.9531 3.0859 2.3438 0.97266 4.707 1.8867 7.0938 2.7422 2.3906 0.85547 4.7969 1.6523 7.2227 2.3906 2.4258 0.73828 4.8711 1.418 7.332 2.0352 2.4609 0.61719 4.9336 1.1758 7.4219 1.6719 2.4844 0.49609 4.9844 0.93359 7.4922 1.3086 2.5078 0.375 5.0234 0.6875 7.5508 0.9375 2.5234 0.25 5.0508 0.44141 7.5859 0.56641 2.5312 0.12891 5.0664 0.19141 7.6016 0.19531 3.8359 0.29687 7.6758 0.40234 11.523 0.31641 3.8477-0.085938 7.6797-0.36328 11.496-0.83594 3.8203-0.46875 7.6016-1.1328 11.355-1.9805 3.75-0.85156 7.4531-1.8867 11.102-3.1055 3.6445-1.2227 7.2227-2.6211 10.73-4.2031 3.5078-1.5781 6.9297-3.3281 10.262-5.25 3.332-1.9219 6.5625-4.0078 9.6836-6.2539 3.125-2.2461 6.1289-4.6406 9.0117-7.1875 0.33594-0.27734 0.64062-0.58203 0.91797-0.91797 0.27734-0.33594 0.51953-0.69531 0.72656-1.0742 0.20703-0.38281 0.375-0.78125 0.50391-1.1992 0.12891-0.41406 0.21875-0.83594 0.26562-1.2695 0.050782-0.42969 0.054688-0.86328 0.019532-1.2969s-0.11328-0.85938-0.23047-1.2773-0.27344-0.82031-0.47266-1.2109c-0.19531-0.38672-0.42578-0.75391-0.69141-1.0977z" fill="#2196f3"/>
<g clip-path="url(#a)">
<path d="m194.2 98.035c1.4336 0 2.8633 0.035156 4.2969 0.10938 1.4336 0.070313 2.8594 0.17969 4.2891 0.32031 1.4258 0.14062 2.8477 0.32031 4.2656 0.53125 1.418 0.21094 2.8281 0.45703 4.2344 0.73828s2.8047 0.59766 4.1953 0.94531c1.3906 0.35156 2.7695 0.73437 4.1445 1.1523 1.3711 0.41406 2.7305 0.86719 4.0781 1.3516 1.3516 0.48438 2.6875 1 4.0117 1.5508 1.3242 0.54688 2.6328 1.1289 3.9297 1.7422 1.2969 0.61328 2.5742 1.2578 3.8398 1.9375 1.2656 0.67578 2.5117 1.3828 3.7422 2.1172 1.2266 0.73828 2.4375 1.5078 3.6289 2.3047 1.1914 0.79687 2.3633 1.6211 3.5156 2.4766 1.1523 0.85156 2.2812 1.7344 3.3906 2.6445 1.1055 0.91016 2.1914 1.8477 3.2539 2.8086 1.0625 0.96484 2.1016 1.9531 3.1133 2.9648 1.0156 1.0156 2.0039 2.0508 2.9648 3.1133 0.96484 1.0625 1.8984 2.1484 2.8086 3.2578 0.91016 1.1055 1.793 2.2344 2.6484 3.3867 0.85156 1.1523 1.6797 2.3242 2.4766 3.5156 0.79687 1.1914 1.5625 2.4023 2.3008 3.6328 0.73828 1.2266 1.4453 2.4766 2.1211 3.7383 0.67578 1.2656 1.3203 2.543 1.9336 3.8398 0.61328 1.2969 1.1953 2.6055 1.7461 3.9297 0.54688 1.3242 1.0664 2.6602 1.5508 4.0117 0.48047 1.3477 0.93359 2.7109 1.3516 4.082 0.41406 1.3711 0.80078 2.75 1.1484 4.1406 0.34766 1.3906 0.66406 2.7891 0.94531 4.1953s0.52734 2.8164 0.73828 4.2344c0.21484 1.418 0.39062 2.8398 0.53125 4.2695 0.14453 1.4258 0.25 2.8555 0.32031 4.2852 0.074218 1.4336 0.10937 2.8672 0.11328 4.3008 0 0.44141 0.042969 0.87891 0.12891 1.3125 0.085937 0.43359 0.21484 0.85547 0.38281 1.2656 0.16797 0.41016 0.37891 0.79687 0.625 1.1641 0.24219 0.36719 0.52344 0.71094 0.83594 1.0234s0.65234 0.58984 1.0234 0.83594c0.36719 0.24609 0.75391 0.45312 1.1641 0.625 0.41016 0.16797 0.83203 0.29688 1.2656 0.38281 0.43359 0.085937 0.87109 0.12891 1.3125 0.12891h53.926c0.44531 0 0.88281-0.042969 1.3164-0.12891 0.43359-0.085938 0.85547-0.21484 1.2656-0.38281 0.40625-0.17188 0.79688-0.37891 1.1641-0.625s0.70703-0.52344 1.0195-0.83594c0.31641-0.3125 0.59375-0.65625 0.83984-1.0234s0.45312-0.75391 0.625-1.1641c0.16797-0.41016 0.29688-0.83203 0.38281-1.2656 0.085938-0.43359 0.12891-0.87109 0.12891-1.3125-0.003907-2.5391-0.066407-5.0742-0.19531-7.6055-0.12891-2.5352-0.31641-5.0625-0.56641-7.5859-0.25391-2.5234-0.56641-5.043-0.94141-7.5508-0.37109-2.5078-0.80859-5.0078-1.3047-7.4922-0.49609-2.4883-1.0547-4.9609-1.6719-7.4219-0.62109-2.4609-1.2969-4.9023-2.0352-7.332-0.73828-2.4258-1.5352-4.832-2.3906-7.2188-0.85547-2.3906-1.7695-4.7539-2.7422-7.0977-0.97266-2.3438-2-4.6602-3.0859-6.9531s-2.2266-4.5547-3.4258-6.793c-1.1953-2.2344-2.4453-4.4414-3.75-6.6172-1.3047-2.1758-2.6641-4.3164-4.0742-6.4258-1.4102-2.1094-2.8711-4.1797-4.3789-6.2188-1.5117-2.0352-3.0742-4.0352-4.6836-5.9961-1.6094-1.9609-3.2656-3.8789-4.9688-5.7578-1.7031-1.8828-3.4531-3.7188-5.2461-5.5117-1.793-1.793-3.6289-3.543-5.5078-5.2461-1.8789-1.7031-3.8008-3.3594-5.7617-4.9688s-3.957-3.168-5.9961-4.6797c-2.0352-1.5117-4.1094-2.9727-6.2188-4.3828s-4.25-2.7656-6.4258-4.0703c-2.1758-1.3047-4.3789-2.5586-6.6172-3.7539-2.2344-1.1953-4.5-2.3359-6.793-3.4219s-4.6094-2.1172-6.9531-3.0898c-2.3438-0.96875-4.707-1.8828-7.0938-2.7422-2.3906-0.85547-4.7969-1.6523-7.2227-2.3906-2.4258-0.73828-4.8711-1.4141-7.332-2.0312-2.457-0.62109-4.9336-1.1758-7.418-1.6758-2.4883-0.49609-4.9883-0.92969-7.4961-1.3047-2.5078-0.375-5.0234-0.6875-7.5508-0.94141-2.5234-0.25-5.0508-0.4375-7.5859-0.56641-2.5312-0.125-5.0664-0.19141-7.6016-0.19531-0.44531 0-0.88281 0.042969-1.3164 0.12891-0.43359 0.089844-0.85547 0.21484-1.2656 0.38672-0.40625 0.16797-0.79688 0.375-1.1641 0.62109-0.36719 0.24609-0.70703 0.52734-1.0234 0.83984-0.3125 0.3125-0.58984 0.65234-0.83594 1.0195-0.24609 0.36719-0.45312 0.75781-0.625 1.168-0.16797 0.40625-0.29688 0.82813-0.38281 1.2617-0.085937 0.43359-0.12891 0.875-0.12891 1.3164v53.926c0 0.44141 0.042969 0.87891 0.12891 1.3164 0.085938 0.43359 0.21484 0.85547 0.38281 1.2617 0.17188 0.41016 0.37891 0.79688 0.625 1.168 0.24609 0.36719 0.52344 0.70703 0.83594 1.0195 0.31641 0.3125 0.65625 0.59375 1.0234 0.83984 0.36719 0.24609 0.75781 0.45312 1.1641 0.62109 0.41016 0.17188 0.83203 0.29688 1.2656 0.38281 0.43359 0.085937 0.87109 0.13281 1.3164 0.13281z" fill="#ffc107"/>
</g>
<path d="m342.49 205.88h-54.988c-0.40625-0.003906-0.80859 0.03125-1.207 0.097657-0.39844 0.070312-0.78906 0.17188-1.1719 0.3125-0.37891 0.13672-0.74609 0.30859-1.0938 0.51172-0.35156 0.20703-0.67969 0.44141-0.98438 0.70312-0.30859 0.26563-0.58984 0.55469-0.84766 0.86719-0.25391 0.31641-0.48047 0.65234-0.67187 1.0078-0.19531 0.35156-0.35938 0.72266-0.48828 1.1055-0.125 0.38672-0.21875 0.77734-0.27734 1.1797-0.75391 5.2617-1.9766 10.414-3.668 15.449-1.6914 5.0391-3.8242 9.8867-6.3984 14.535-2.5781 4.6484-5.5508 9.0273-8.9258 13.137-3.375 4.1055-7.0898 7.875-11.152 11.305-0.33594 0.28125-0.64453 0.59375-0.91797 0.93359-0.27734 0.34375-0.51562 0.70703-0.72266 1.0977-0.20312 0.39062-0.36719 0.79297-0.49219 1.2148s-0.21094 0.85156-0.25 1.2891c-0.042969 0.4375-0.039063 0.875 0.003906 1.3125s0.12891 0.86328 0.25781 1.2852c0.12891 0.42188 0.29687 0.82422 0.50391 1.2109 0.20703 0.38672 0.44922 0.75 0.72656 1.0938l40.285 49.879c0.58594 0.73047 1.293 1.3125 2.125 1.7461 0.82813 0.43359 1.7109 0.68359 2.6445 0.75h0.52734c0.85156 0 1.6758-0.15625 2.4688-0.46875 0.79297-0.3125 1.5039-0.75781 2.1289-1.3398 3.875-3.625 7.5547-7.4375 11.043-11.438 3.4844-4 6.7578-8.1719 9.8164-12.508 3.0586-4.332 5.8906-8.8164 8.4922-13.441 2.5977-4.625 4.957-9.3711 7.0742-14.238 2.1133-4.8633 3.9766-9.8281 5.5859-14.883 1.6055-5.0586 2.9531-10.184 4.0352-15.379 1.0859-5.1953 1.9023-10.43 2.4492-15.707 0.54687-5.2812 0.82422-10.57 0.83203-15.879 0-0.44141-0.042969-0.87891-0.12891-1.3164-0.085937-0.43359-0.21484-0.85547-0.38281-1.2617-0.17188-0.41016-0.37891-0.79688-0.625-1.168-0.24609-0.36719-0.52344-0.70703-0.83984-1.0195-0.3125-0.3125-0.65234-0.59375-1.0195-0.83984-0.36719-0.24609-0.75781-0.45312-1.1641-0.62109-0.41016-0.17188-0.83203-0.29688-1.2656-0.38281-0.43359-0.089844-0.87109-0.13281-1.3164-0.13281z" fill="#f44336"/>
</svg>
