<?xml version="1.0" encoding="UTF-8"?>
<svg width="50px" version="1.0" viewBox="0 0 1050 1050" xmlns="http://www.w3.org/2000/svg" zoomAndPan="magnify">
<defs>
<clipPath id="a">
<path d="m0 36h1011v977.96h-1011z"/>
</clipPath>
<clipPath id="c">
<path d="m892.69 1013.8h-0.03125l-720.5-0.18359c-1.6055 0.125-3.2305 0.18359-4.8711 0.18359h-103.31c-35.422 0-64.238-28.816-64.238-64.242l0.003906-761.86c0-2.3555 0.94141-4.6172 2.6055-6.2812 1.6641-1.6602 3.9023-2.5859 6.2539-2.5859h0.023438l98.141 0.21094v-76.785c0-4.8945 3.9648-8.8672 8.8633-8.8672h98.16v-47.664c0-4.8945 3.9688-8.8672 8.8633-8.8672h779.07c4.8945 0 8.8633 3.9727 8.8633 8.8672v850.15c0 31.383-12.281 60.965-34.637 83.297-22.324 22.352-51.906 34.637-83.254 34.637zm-361.25-602.3h-210.97c-4.8945 0-8.875-3.9688-8.875-8.8672 0-4.8945 3.9688-8.8672 8.8672-8.8672h210.98c4.8945 0 8.8633 3.9727 8.8633 8.8672 0 4.8984-3.9688 8.8711-8.8633 8.8672zm114.51-54.172h-325.48c-4.8945 0-8.875-3.9727-8.875-8.8672 0-4.8984 3.9688-8.8672 8.8672-8.8672h325.48c4.8906 0 8.8633 3.9688 8.8633 8.8672 0 4.8945-3.9727 8.8672-8.8633 8.8672zm0-54.199h-325.48c-4.8945 0-8.875-3.9492-8.875-8.8672 0-4.8945 3.9688-8.8672 8.8672-8.8672h325.48c4.8906 0 8.8633 3.9727 8.8633 8.8672 0 4.918-3.9727 8.8672-8.8633 8.8672zm0-54.176h-325.48c-4.8945 0-8.875-3.9727-8.875-8.8672s3.9688-8.8672 8.8672-8.8672h325.48c4.8906 0 8.8633 3.9727 8.8633 8.8672s-3.9727 8.8672-8.8633 8.8672zm0-54.176h-325.48c-4.8945 0-8.875-3.9688-8.875-8.8672 0-4.8945 3.9688-8.8672 8.8672-8.8672h325.48c4.8906 0 8.8633 3.9727 8.8633 8.8672 0 4.8984-3.9727 8.8672-8.8633 8.8672zm289.14 727.21h-633.68c-4.8945 0-8.8672-3.9727-8.8672-8.8672 0.003906-4.8945 3.9727-8.8672 8.8672-8.8672h633.68c4.8945 0 8.8594 3.9727 8.8594 8.8672 0.003907 4.8945-3.9727 8.8672-8.8594 8.8672zm0-88.652h-633.68c-4.8945 0-8.8672-3.9727-8.8672-8.8672 0.003906-4.8945 3.9727-8.8672 8.8672-8.8672h633.68c4.8945 0 8.8594 3.9727 8.8594 8.8672 0.003907 4.8945-3.9727 8.8672-8.8594 8.8672zm0-88.652h-633.68c-4.8945 0-8.8672-3.9727-8.8672-8.8672 0.003906-4.8945 3.9727-8.8672 8.8672-8.8672h633.68c4.8945 0 8.8594 3.9727 8.8594 8.8672 0.003907 4.8945-3.9727 8.8672-8.8594 8.8672zm0-88.652h-633.68c-4.8945 0-8.8672-3.9688-8.8672-8.8672 0.003906-4.8945 3.9727-8.8672 8.8672-8.8672h633.68c4.8945 0 8.8594 3.9727 8.8594 8.8672 0.003907 4.8984-3.9727 8.8672-8.8594 8.8672zm0-88.652h-633.68c-4.8945 0-8.8672-3.9688-8.8672-8.8633 0.003906-4.8984 3.9727-8.8711 8.8672-8.8711h633.68c4.8945 0 8.8594 3.9727 8.8594 8.8711 0.003907 4.8945-3.9727 8.8672-8.8594 8.8633zm0-88.648h-633.68c-4.8945 0-8.8672-3.9727-8.8672-8.8672 0.003906-4.8984 3.9727-8.8711 8.8672-8.8711h633.68c4.8945 0 8.8594 3.9727 8.8594 8.8711 0.003907 4.8945-3.9727 8.8672-8.8594 8.8672zm-214.46-102.58h210.79v-235.06h-210.79zm219.66 17.734h-228.54c-4.9141 0-8.8633-3.9727-8.8633-8.8672l0.003907-252.79c0-4.8945 3.9453-8.8672 8.8594-8.8672h228.54c4.8945 0 8.8594 3.9727 8.8594 8.8672l0.003906 252.79c0 4.8945-3.9766 8.8672-8.8633 8.8672zm-833.52-197.13-89.289-0.16797v752.98c0 25.652 20.867 46.508 46.496 46.508h103.32c25.625 0 46.492-20.855 46.492-46.508l0.007812-761.57-0.007812-0.29687 0.003906-76.574h-89.285v778.96c0 4.8945-3.9766 8.8672-8.8711 8.8672-4.8945 0-8.8672-3.9727-8.8672-8.8672zm104.97 799.14 680.94 0.17578h0.011719c26.629 0 51.746-10.438 70.73-29.441 19-18.984 29.438-44.109 29.438-70.758l0.007813-841.28h-761.34v133.11c0 0.11719-0.003907 0.23828-0.007813 0.35547l0.007813 761.51c0 18.191-7.6016 34.637-19.789 46.336z" clip-rule="evenodd"/>
</clipPath>
<linearGradient id="b" x1="-4.6569" x2="178.09" y1="52.944" y2="120.47" gradientTransform="matrix(6.6035 0 0 6.6041 -67.356 -47.289)" gradientUnits="userSpaceOnUse">
<stop stop-color="#f4505d" offset="0"/>
<stop stop-color="#f3505c" offset=".03125"/>
<stop stop-color="#f1505c" offset=".035156"/>
<stop stop-color="#ef515b" offset=".039062"/>
<stop stop-color="#ed515a" offset=".042969"/>
<stop stop-color="#eb5259" offset=".046875"/>
<stop stop-color="#e95258" offset=".050781"/>
<stop stop-color="#e75358" offset=".054688"/>
<stop stop-color="#e55357" offset=".058594"/>
<stop stop-color="#e35456" offset=".0625"/>
<stop stop-color="#e15455" offset=".066406"/>
<stop stop-color="#df5455" offset=".070312"/>
<stop stop-color="#dd5554" offset=".074219"/>
<stop stop-color="#db5553" offset=".078125"/>
<stop stop-color="#d95652" offset=".082031"/>
<stop stop-color="#d75652" offset=".085938"/>
<stop stop-color="#d45751" offset=".089844"/>
<stop stop-color="#d25750" offset=".09375"/>
<stop stop-color="#d0584f" offset=".097656"/>
<stop stop-color="#ce584e" offset=".10156"/>
<stop stop-color="#cc594e" offset=".10547"/>
<stop stop-color="#ca594d" offset=".10938"/>
<stop stop-color="#c85a4c" offset=".11328"/>
<stop stop-color="#c65a4b" offset=".11719"/>
<stop stop-color="#c45b4b" offset=".12109"/>
<stop stop-color="#c25b4a" offset=".125"/>
<stop stop-color="#c05c49" offset=".12891"/>
<stop stop-color="#be5c48" offset=".13281"/>
<stop stop-color="#bc5c47" offset=".13672"/>
<stop stop-color="#ba5d47" offset=".14062"/>
<stop stop-color="#b85d46" offset=".14453"/>
<stop stop-color="#b65e45" offset=".14844"/>
<stop stop-color="#b45e44" offset=".15234"/>
<stop stop-color="#b25f44" offset=".15625"/>
<stop stop-color="#b05f43" offset=".16016"/>
<stop stop-color="#ae6042" offset=".16406"/>
<stop stop-color="#ac6041" offset=".16797"/>
<stop stop-color="#aa6141" offset=".17188"/>
<stop stop-color="#a86140" offset=".17578"/>
<stop stop-color="#a6623f" offset=".17969"/>
<stop stop-color="#a4623e" offset=".18359"/>
<stop stop-color="#a2633d" offset=".1875"/>
<stop stop-color="#a0633d" offset=".19141"/>
<stop stop-color="#9e643c" offset=".19531"/>
<stop stop-color="#9c643b" offset=".19922"/>
<stop stop-color="#9a643a" offset=".20312"/>
<stop stop-color="#98653a" offset=".20703"/>
<stop stop-color="#966539" offset=".21094"/>
<stop stop-color="#946638" offset=".21484"/>
<stop stop-color="#926637" offset=".21875"/>
<stop stop-color="#906737" offset=".22266"/>
<stop stop-color="#8e6736" offset=".22656"/>
<stop stop-color="#8c6835" offset=".23047"/>
<stop stop-color="#8a6834" offset=".23438"/>
<stop stop-color="#886933" offset=".23828"/>
<stop stop-color="#866933" offset=".24219"/>
<stop stop-color="#846a32" offset=".24609"/>
<stop stop-color="#826a31" offset=".25"/>
<stop stop-color="#806b30" offset=".25391"/>
<stop stop-color="#7e6b30" offset=".25781"/>
<stop stop-color="#7c6c2f" offset=".26172"/>
<stop stop-color="#7a6c2e" offset=".26562"/>
<stop stop-color="#786c2d" offset=".26953"/>
<stop stop-color="#766d2d" offset=".27344"/>
<stop stop-color="#746d2c" offset=".27734"/>
<stop stop-color="#726e2b" offset=".28125"/>
<stop stop-color="#706e2a" offset=".28516"/>
<stop stop-color="#6d6f29" offset=".28906"/>
<stop stop-color="#6b6f29" offset=".29297"/>
<stop stop-color="#697028" offset=".29688"/>
<stop stop-color="#677027" offset=".30078"/>
<stop stop-color="#657126" offset=".30469"/>
<stop stop-color="#637126" offset=".30859"/>
<stop stop-color="#617225" offset=".3125"/>
<stop stop-color="#5f7224" offset=".31641"/>
<stop stop-color="#5d7323" offset=".32031"/>
<stop stop-color="#5b7323" offset=".32422"/>
<stop stop-color="#597422" offset=".32812"/>
<stop stop-color="#577421" offset=".33203"/>
<stop stop-color="#557420" offset=".33594"/>
<stop stop-color="#53751f" offset=".33984"/>
<stop stop-color="#51751f" offset=".34375"/>
<stop stop-color="#4f761e" offset=".34766"/>
<stop stop-color="#4d761d" offset=".35156"/>
<stop stop-color="#4b771c" offset=".35547"/>
<stop stop-color="#49771c" offset=".35938"/>
<stop stop-color="#47781b" offset=".36328"/>
<stop stop-color="#45781a" offset=".36719"/>
<stop stop-color="#437919" offset=".37109"/>
<stop stop-color="#417918" offset=".375"/>
<stop stop-color="#3f7a18" offset=".37891"/>
<stop stop-color="#3d7a17" offset=".38281"/>
<stop stop-color="#3b7b16" offset=".38672"/>
<stop stop-color="#397b15" offset=".39062"/>
<stop stop-color="#377c15" offset=".39453"/>
<stop stop-color="#357c14" offset=".39844"/>
<stop stop-color="#337c13" offset=".40234"/>
<stop stop-color="#317d12" offset=".40625"/>
<stop stop-color="#2f7d12" offset=".41016"/>
<stop stop-color="#2d7e11" offset=".41406"/>
<stop stop-color="#2b7e10" offset=".41797"/>
<stop stop-color="#297f0f" offset=".42188"/>
<stop stop-color="#277f0e" offset=".42578"/>
<stop stop-color="#25800e" offset=".42969"/>
<stop stop-color="#23800d" offset=".43359"/>
<stop stop-color="#21810c" offset=".4375"/>
<stop stop-color="#1f810b" offset=".44141"/>
<stop stop-color="#1d820b" offset=".44531"/>
<stop stop-color="#1b820a" offset=".44922"/>
<stop stop-color="#198309" offset=".45312"/>
<stop stop-color="#178308" offset=".45703"/>
<stop stop-color="#158408" offset=".46094"/>
<stop stop-color="#138407" offset=".46484"/>
<stop stop-color="#118406" offset=".46875"/>
<stop stop-color="#0f8505" offset=".47266"/>
<stop stop-color="#0d8504" offset=".47656"/>
<stop stop-color="#0b8604" offset=".48047"/>
<stop stop-color="#088603" offset=".48438"/>
<stop stop-color="#068702" offset=".48828"/>
<stop stop-color="#048701" offset=".49219"/>
<stop stop-color="#028801" offset=".49609"/>
<stop stop-color="#080" offset=".5"/>
<stop stop-color="#008801" offset=".50391"/>
<stop stop-color="#008802" offset=".50781"/>
<stop stop-color="#008704" offset=".51172"/>
<stop stop-color="#008706" offset=".51562"/>
<stop stop-color="#008608" offset=".51953"/>
<stop stop-color="#00850a" offset=".52344"/>
<stop stop-color="#00850c" offset=".52734"/>
<stop stop-color="#00840e" offset=".53125"/>
<stop stop-color="#00840f" offset=".53516"/>
<stop stop-color="#008311" offset=".53906"/>
<stop stop-color="#008313" offset=".54297"/>
<stop stop-color="#008215" offset=".54688"/>
<stop stop-color="#008217" offset=".55078"/>
<stop stop-color="#008119" offset=".55469"/>
<stop stop-color="#00811b" offset=".55859"/>
<stop stop-color="#00801d" offset=".5625"/>
<stop stop-color="#00801e" offset=".56641"/>
<stop stop-color="#017f20" offset=".57031"/>
<stop stop-color="#017f22" offset=".57422"/>
<stop stop-color="#017e24" offset=".57812"/>
<stop stop-color="#017d26" offset=".58203"/>
<stop stop-color="#017d28" offset=".58594"/>
<stop stop-color="#017c2a" offset=".58984"/>
<stop stop-color="#017c2b" offset=".59375"/>
<stop stop-color="#017b2d" offset=".59766"/>
<stop stop-color="#017b2f" offset=".60156"/>
<stop stop-color="#017a31" offset=".60547"/>
<stop stop-color="#017a33" offset=".60938"/>
<stop stop-color="#017935" offset=".61328"/>
<stop stop-color="#017937" offset=".61719"/>
<stop stop-color="#017839" offset=".62109"/>
<stop stop-color="#01783a" offset=".625"/>
<stop stop-color="#01773c" offset=".62891"/>
<stop stop-color="#01773e" offset=".63281"/>
<stop stop-color="#017640" offset=".63672"/>
<stop stop-color="#027542" offset=".64062"/>
<stop stop-color="#027544" offset=".64453"/>
<stop stop-color="#027446" offset=".64844"/>
<stop stop-color="#027447" offset=".65234"/>
<stop stop-color="#027349" offset=".65625"/>
<stop stop-color="#02734b" offset=".66016"/>
<stop stop-color="#02724d" offset=".66406"/>
<stop stop-color="#02724f" offset=".66797"/>
<stop stop-color="#027151" offset=".67188"/>
<stop stop-color="#027153" offset=".67578"/>
<stop stop-color="#027055" offset=".67969"/>
<stop stop-color="#027056" offset=".68359"/>
<stop stop-color="#026f58" offset=".6875"/>
<stop stop-color="#026f5a" offset=".69141"/>
<stop stop-color="#026e5c" offset=".69531"/>
<stop stop-color="#026d5e" offset=".69922"/>
<stop stop-color="#026d60" offset=".70312"/>
<stop stop-color="#036c62" offset=".70703"/>
<stop stop-color="#036c64" offset=".71094"/>
<stop stop-color="#036b65" offset=".71484"/>
<stop stop-color="#036b67" offset=".71875"/>
<stop stop-color="#036a69" offset=".72266"/>
<stop stop-color="#036a6b" offset=".72656"/>
<stop stop-color="#03696d" offset=".73047"/>
<stop stop-color="#03696f" offset=".73438"/>
<stop stop-color="#036871" offset=".73828"/>
<stop stop-color="#036872" offset=".74219"/>
<stop stop-color="#036774" offset=".74609"/>
<stop stop-color="#036776" offset=".75"/>
<stop stop-color="#036678" offset=".75391"/>
<stop stop-color="#03657a" offset=".75781"/>
<stop stop-color="#03657c" offset=".76172"/>
<stop stop-color="#03647e" offset=".76562"/>
<stop stop-color="#036480" offset=".76953"/>
<stop stop-color="#036381" offset=".77344"/>
<stop stop-color="#046383" offset=".77734"/>
<stop stop-color="#046285" offset=".78125"/>
<stop stop-color="#046287" offset=".78516"/>
<stop stop-color="#046189" offset=".78906"/>
<stop stop-color="#04618b" offset=".79297"/>
<stop stop-color="#04608d" offset=".79688"/>
<stop stop-color="#04608e" offset=".80078"/>
<stop stop-color="#045f90" offset=".80469"/>
<stop stop-color="#045e92" offset=".80859"/>
<stop stop-color="#045e94" offset=".8125"/>
<stop stop-color="#045d96" offset=".81641"/>
<stop stop-color="#045d98" offset=".82031"/>
<stop stop-color="#045c9a" offset=".82422"/>
<stop stop-color="#045c9c" offset=".82812"/>
<stop stop-color="#045b9d" offset=".83203"/>
<stop stop-color="#045b9f" offset=".83594"/>
<stop stop-color="#045aa1" offset=".83984"/>
<stop stop-color="#055aa3" offset=".84375"/>
<stop stop-color="#0559a5" offset=".84766"/>
<stop stop-color="#0559a7" offset=".85156"/>
<stop stop-color="#0558a9" offset=".85547"/>
<stop stop-color="#0558aa" offset=".85938"/>
<stop stop-color="#0557ac" offset=".86328"/>
<stop stop-color="#0556ae" offset=".86719"/>
<stop stop-color="#0556b0" offset=".87109"/>
<stop stop-color="#0555b2" offset=".875"/>
<stop stop-color="#0555b4" offset=".87891"/>
<stop stop-color="#0554b6" offset=".88281"/>
<stop stop-color="#0554b8" offset=".88672"/>
<stop stop-color="#0553b9" offset=".89062"/>
<stop stop-color="#0553bb" offset=".89453"/>
<stop stop-color="#0552bd" offset=".89844"/>
<stop stop-color="#0552bf" offset=".90234"/>
<stop stop-color="#0551c1" offset=".90625"/>
<stop stop-color="#0651c3" offset=".91016"/>
<stop stop-color="#0650c5" offset=".91406"/>
<stop stop-color="#0650c7" offset=".91797"/>
<stop stop-color="#064fc8" offset=".92188"/>
<stop stop-color="#064eca" offset=".92578"/>
<stop stop-color="#064ecc" offset=".92969"/>
<stop stop-color="#064dce" offset=".93359"/>
<stop stop-color="#064dd0" offset=".9375"/>
<stop stop-color="#064cd2" offset=".94141"/>
<stop stop-color="#064cd4" offset=".94531"/>
<stop stop-color="#064bd5" offset=".94922"/>
<stop stop-color="#064bd7" offset=".95312"/>
<stop stop-color="#064ad9" offset=".95703"/>
<stop stop-color="#064adb" offset=".96094"/>
<stop stop-color="#0649dd" offset=".96484"/>
<stop stop-color="#0649df" offset=".96875"/>
<stop stop-color="#0649df" offset="1"/>
</linearGradient>
</defs>
<g clip-path="url(#a)">
<g clip-path="url(#c)">
<path d="m0 36.809v976.95h1010.6v-976.95z" fill="url(#b)"/>
</g>
</g>
</svg>
