<svg xmlns="http://www.w3.org/2000/svg" xmlns:xlink="http://www.w3.org/1999/xlink" width="50px" zoomAndPan="magnify" viewBox="0 0 375 374.999991" preserveAspectRatio="xMidYMid meet" version="1.0"><defs><clipPath id="4aca93f757"><path d="M 17.445312 100 L 357.195312 100 L 357.195312 337.195312 L 17.445312 337.195312 Z M 17.445312 100 " clip-rule="nonzero"/></clipPath><clipPath id="2dd8ef0541"><path d="M 74 16.945312 L 81 16.945312 L 81 24 L 74 24 Z M 74 16.945312 " clip-rule="nonzero"/></clipPath><clipPath id="bf219ebb1a"><path d="M 294 16.945312 L 301 16.945312 L 301 24 L 294 24 Z M 294 16.945312 " clip-rule="nonzero"/></clipPath></defs><rect x="-37.5" width="450" fill="#ffffff" y="-37.499999" height="449.999989" fill-opacity="1"/><rect x="-37.5" width="450" fill="#efeadd" y="-37.499999" height="449.999989" fill-opacity="1"/><path fill="#d9392b" d="M 355.558594 329.628906 C 355.558594 332.847656 353.296875 335.457031 350.511719 335.457031 L 24.171875 335.457031 C 21.382812 335.457031 19.125 332.847656 19.125 329.628906 L 19.125 108.269531 C 19.125 105.050781 21.382812 102.441406 24.171875 102.441406 L 350.511719 102.441406 C 353.296875 102.441406 355.558594 105.050781 355.558594 108.269531 L 355.558594 329.628906 " fill-opacity="1" fill-rule="nonzero"/><g clip-path="url(#4aca93f757)"><path fill="#6d3e22" d="M 24.171875 104.113281 C 22.308594 104.113281 20.796875 105.976562 20.796875 108.269531 L 20.796875 329.632812 C 20.796875 331.921875 22.308594 333.785156 24.171875 333.785156 L 350.511719 333.785156 C 352.375 333.785156 353.886719 331.921875 353.886719 329.632812 L 353.886719 108.269531 C 353.886719 105.976562 352.375 104.113281 350.511719 104.113281 Z M 350.511719 337.125 L 24.171875 337.125 C 20.464844 337.125 17.453125 333.765625 17.453125 329.632812 L 17.453125 108.269531 C 17.453125 104.136719 20.464844 100.769531 24.171875 100.769531 L 350.511719 100.769531 C 354.214844 100.769531 357.226562 104.136719 357.226562 108.269531 L 357.226562 329.632812 C 357.226562 333.765625 354.214844 337.125 350.511719 337.125 " fill-opacity="1" fill-rule="nonzero"/></g><path fill="#7dae9d" d="M 344.863281 318.328125 C 344.863281 321.21875 342.75 323.558594 340.136719 323.558594 L 34.542969 323.558594 C 31.933594 323.558594 29.816406 321.21875 29.816406 318.328125 L 29.816406 119.570312 C 29.816406 116.679688 31.933594 114.339844 34.542969 114.339844 L 340.136719 114.339844 C 342.75 114.339844 344.863281 116.679688 344.863281 119.570312 L 344.863281 318.328125 " fill-opacity="1" fill-rule="nonzero"/><path fill="#6d3e22" d="M 34.542969 115.007812 C 32.308594 115.007812 30.484375 117.054688 30.484375 119.570312 L 30.484375 318.328125 C 30.484375 320.84375 32.308594 322.890625 34.542969 322.890625 L 340.136719 322.890625 C 342.375 322.890625 344.195312 320.84375 344.195312 318.328125 L 344.195312 119.570312 C 344.195312 117.054688 342.375 115.007812 340.136719 115.007812 Z M 340.136719 324.226562 L 34.542969 324.226562 C 31.570312 324.226562 29.148438 321.578125 29.148438 318.328125 L 29.148438 119.570312 C 29.148438 116.316406 31.570312 113.667969 34.542969 113.667969 L 340.136719 113.667969 C 343.113281 113.667969 345.53125 116.316406 345.53125 119.570312 L 345.53125 318.328125 C 345.53125 321.578125 343.113281 324.226562 340.136719 324.226562 " fill-opacity="1" fill-rule="nonzero"/><path fill="#6d3e22" d="M 247.257812 309.835938 C 247.257812 312.476562 245.855469 314.621094 244.125 314.621094 L 41.484375 314.621094 C 39.753906 314.621094 38.351562 312.476562 38.351562 309.835938 L 38.351562 128.0625 C 38.351562 125.421875 39.753906 123.277344 41.484375 123.277344 L 244.125 123.277344 C 245.855469 123.277344 247.257812 125.421875 247.257812 128.0625 L 247.257812 309.835938 " fill-opacity="1" fill-rule="nonzero"/><path fill="#e6962e" d="M 333.496094 309.835938 C 333.496094 312.476562 332.96875 314.621094 332.324219 314.621094 L 256.484375 314.621094 C 255.835938 314.621094 255.3125 312.476562 255.3125 309.835938 L 255.3125 128.0625 C 255.3125 125.421875 255.835938 123.277344 256.484375 123.277344 L 332.324219 123.277344 C 332.96875 123.277344 333.496094 125.421875 333.496094 128.0625 L 333.496094 309.835938 " fill-opacity="1" fill-rule="nonzero"/><path fill="#6d3e22" d="M 256.628906 313.949219 L 332.179688 313.949219 C 332.421875 313.589844 332.828125 312.136719 332.828125 309.835938 L 332.828125 128.0625 C 332.828125 125.761719 332.421875 124.304688 332.179688 123.945312 L 256.628906 123.945312 C 256.382812 124.304688 255.976562 125.757812 255.976562 128.0625 L 255.976562 309.835938 C 255.976562 312.140625 256.382812 313.59375 256.628906 313.949219 Z M 332.324219 315.289062 L 256.484375 315.289062 C 254.773438 315.289062 254.640625 311.117188 254.640625 309.835938 L 254.640625 128.0625 C 254.640625 126.785156 254.773438 122.609375 256.484375 122.609375 L 332.324219 122.609375 C 334.03125 122.609375 334.164062 126.785156 334.164062 128.0625 L 334.164062 309.835938 C 334.164062 311.117188 334.03125 315.289062 332.324219 315.289062 " fill-opacity="1" fill-rule="nonzero"/><path fill="#f0d8ae" d="M 236.554688 300.523438 C 236.554688 302.894531 235.296875 304.816406 233.742188 304.816406 L 51.863281 304.816406 C 50.3125 304.816406 49.054688 302.894531 49.054688 300.523438 L 49.054688 137.371094 C 49.054688 135.003906 50.3125 133.082031 51.863281 133.082031 L 233.742188 133.082031 C 235.296875 133.082031 236.554688 135.003906 236.554688 137.371094 L 236.554688 300.523438 " fill-opacity="1" fill-rule="nonzero"/><path fill="#f0d8ae" d="M 271.523438 158.855469 C 271.523438 146.214844 281.765625 135.972656 294.402344 135.972656 C 307.039062 135.972656 317.285156 146.214844 317.285156 158.855469 C 317.285156 171.492188 307.039062 181.738281 294.402344 181.738281 C 281.765625 181.738281 271.523438 171.492188 271.523438 158.855469 " fill-opacity="1" fill-rule="nonzero"/><path fill="#6d3e22" d="M 294.402344 136.640625 C 282.15625 136.640625 272.1875 146.605469 272.1875 158.855469 C 272.1875 171.105469 282.15625 181.070312 294.402344 181.070312 C 306.652344 181.070312 316.617188 171.105469 316.617188 158.855469 C 316.617188 146.605469 306.652344 136.640625 294.402344 136.640625 Z M 294.402344 182.410156 C 281.417969 182.410156 270.851562 171.84375 270.851562 158.855469 C 270.851562 145.867188 281.417969 135.300781 294.402344 135.300781 C 307.386719 135.300781 317.953125 145.867188 317.953125 158.855469 C 317.953125 171.84375 307.386719 182.410156 294.402344 182.410156 " fill-opacity="1" fill-rule="nonzero"/><path fill="#d9392b" d="M 278.785156 158.855469 C 278.785156 150.226562 285.777344 143.238281 294.402344 143.238281 C 303.027344 143.238281 310.023438 150.226562 310.023438 158.855469 C 310.023438 167.484375 303.027344 174.476562 294.402344 174.476562 C 285.777344 174.476562 278.785156 167.484375 278.785156 158.855469 " fill-opacity="1" fill-rule="nonzero"/><path fill="#6d3e22" d="M 294.402344 143.90625 C 286.160156 143.90625 279.449219 150.613281 279.449219 158.855469 C 279.449219 167.097656 286.160156 173.808594 294.402344 173.808594 C 302.648438 173.808594 309.355469 167.097656 309.355469 158.855469 C 309.355469 150.613281 302.648438 143.90625 294.402344 143.90625 Z M 294.402344 175.144531 C 285.421875 175.144531 278.113281 167.835938 278.113281 158.855469 C 278.113281 149.875 285.421875 142.566406 294.402344 142.566406 C 303.382812 142.566406 310.691406 149.875 310.691406 158.855469 C 310.691406 167.835938 303.382812 175.144531 294.402344 175.144531 " fill-opacity="1" fill-rule="nonzero"/><path fill="#6d3e22" d="M 281.605469 158.855469 C 281.605469 151.785156 287.335938 146.054688 294.402344 146.054688 C 301.472656 146.054688 307.203125 151.785156 307.203125 158.855469 C 307.203125 165.925781 301.472656 171.65625 294.402344 171.65625 C 287.335938 171.65625 281.605469 165.925781 281.605469 158.855469 " fill-opacity="1" fill-rule="nonzero"/><path fill="#f0d8ae" d="M 271.523438 220.875 C 271.523438 208.238281 281.765625 197.992188 294.402344 197.992188 C 307.039062 197.992188 317.285156 208.238281 317.285156 220.875 C 317.285156 233.515625 307.039062 243.761719 294.402344 243.761719 C 281.765625 243.761719 271.523438 233.515625 271.523438 220.875 " fill-opacity="1" fill-rule="nonzero"/><path fill="#6d3e22" d="M 294.402344 198.660156 C 282.15625 198.660156 272.1875 208.625 272.1875 220.875 C 272.1875 233.125 282.15625 243.09375 294.402344 243.09375 C 306.652344 243.09375 316.617188 233.125 316.617188 220.875 C 316.617188 208.625 306.652344 198.660156 294.402344 198.660156 Z M 294.402344 244.429688 C 281.417969 244.429688 270.851562 233.863281 270.851562 220.875 C 270.851562 207.890625 281.417969 197.324219 294.402344 197.324219 C 307.386719 197.324219 317.953125 207.890625 317.953125 220.875 C 317.953125 233.863281 307.386719 244.429688 294.402344 244.429688 " fill-opacity="1" fill-rule="nonzero"/><path fill="#d9392b" d="M 278.785156 220.875 C 278.785156 212.25 285.777344 205.253906 294.402344 205.253906 C 303.027344 205.253906 310.023438 212.25 310.023438 220.875 C 310.023438 229.503906 303.027344 236.496094 294.402344 236.496094 C 285.777344 236.496094 278.785156 229.503906 278.785156 220.875 " fill-opacity="1" fill-rule="nonzero"/><path fill="#6d3e22" d="M 294.402344 205.921875 C 286.160156 205.921875 279.449219 212.628906 279.449219 220.875 C 279.449219 229.121094 286.160156 235.828125 294.402344 235.828125 C 302.648438 235.828125 309.355469 229.121094 309.355469 220.875 C 309.355469 212.628906 302.648438 205.921875 294.402344 205.921875 Z M 294.402344 237.164062 C 285.421875 237.164062 278.113281 229.855469 278.113281 220.875 C 278.113281 211.894531 285.421875 204.585938 294.402344 204.585938 C 303.382812 204.585938 310.691406 211.894531 310.691406 220.875 C 310.691406 229.855469 303.382812 237.164062 294.402344 237.164062 " fill-opacity="1" fill-rule="nonzero"/><path fill="#6d3e22" d="M 281.605469 220.875 C 281.605469 213.804688 287.335938 208.074219 294.402344 208.074219 C 301.472656 208.074219 307.203125 213.804688 307.203125 220.875 C 307.203125 227.945312 301.472656 233.679688 294.402344 233.679688 C 287.335938 233.679688 281.605469 227.945312 281.605469 220.875 " fill-opacity="1" fill-rule="nonzero"/><path fill="#6d3e22" d="M 324.148438 260.171875 L 264.671875 260.171875 L 264.671875 258.835938 L 324.148438 258.835938 L 324.148438 260.171875 " fill-opacity="1" fill-rule="nonzero"/><path fill="#6d3e22" d="M 324.148438 264.851562 L 264.671875 264.851562 L 264.671875 263.515625 L 324.148438 263.515625 L 324.148438 264.851562 " fill-opacity="1" fill-rule="nonzero"/><path fill="#6d3e22" d="M 324.148438 269.527344 L 264.671875 269.527344 L 264.671875 268.191406 L 324.148438 268.191406 L 324.148438 269.527344 " fill-opacity="1" fill-rule="nonzero"/><path fill="#6d3e22" d="M 324.148438 274.207031 L 264.671875 274.207031 L 264.671875 272.871094 L 324.148438 272.871094 L 324.148438 274.207031 " fill-opacity="1" fill-rule="nonzero"/><path fill="#6d3e22" d="M 324.148438 278.886719 L 264.671875 278.886719 L 264.671875 277.550781 L 324.148438 277.550781 L 324.148438 278.886719 " fill-opacity="1" fill-rule="nonzero"/><path fill="#6d3e22" d="M 324.148438 283.566406 L 264.671875 283.566406 L 264.671875 282.226562 L 324.148438 282.226562 L 324.148438 283.566406 " fill-opacity="1" fill-rule="nonzero"/><path fill="#6d3e22" d="M 324.148438 288.242188 L 264.671875 288.242188 L 264.671875 286.90625 L 324.148438 286.90625 L 324.148438 288.242188 " fill-opacity="1" fill-rule="nonzero"/><path fill="#6d3e22" d="M 324.148438 292.921875 L 264.671875 292.921875 L 264.671875 291.585938 L 324.148438 291.585938 L 324.148438 292.921875 " fill-opacity="1" fill-rule="nonzero"/><path fill="#6d3e22" d="M 324.148438 297.601562 L 264.671875 297.601562 L 264.671875 296.261719 L 324.148438 296.261719 L 324.148438 297.601562 " fill-opacity="1" fill-rule="nonzero"/><path fill="#6d3e22" d="M 324.148438 302.277344 L 264.671875 302.277344 L 264.671875 300.941406 L 324.148438 300.941406 L 324.148438 302.277344 " fill-opacity="1" fill-rule="nonzero"/><path fill="#6d3e22" d="M 324.148438 306.957031 L 264.671875 306.957031 L 264.671875 305.621094 L 324.148438 305.621094 L 324.148438 306.957031 " fill-opacity="1" fill-rule="nonzero"/><path fill="#6d3e22" d="M 161.945312 102.441406 C 161.945312 88.414062 173.316406 77.042969 187.339844 77.042969 C 201.363281 77.042969 212.734375 88.414062 212.734375 102.441406 L 161.945312 102.441406 " fill-opacity="1" fill-rule="nonzero"/><path fill="#6d3e22" d="M 76.515625 21.304688 L 78.003906 19.332031 L 181.65625 97.328125 L 180.167969 99.304688 L 76.515625 21.304688 " fill-opacity="1" fill-rule="nonzero"/><g clip-path="url(#2dd8ef0541)"><path fill="#6d3e22" d="M 74.132812 21.582031 L 77.605469 16.96875 L 80.382812 19.054688 L 76.910156 23.667969 L 74.132812 21.582031 " fill-opacity="1" fill-rule="nonzero"/></g><path fill="#6d3e22" d="M 298.167969 21.304688 L 296.679688 19.332031 L 193.027344 97.328125 L 194.511719 99.304688 L 298.167969 21.304688 " fill-opacity="1" fill-rule="nonzero"/><g clip-path="url(#bf219ebb1a)"><path fill="#6d3e22" d="M 300.546875 21.582031 L 297.078125 16.96875 L 294.300781 19.054688 L 297.773438 23.667969 L 300.546875 21.582031 " fill-opacity="1" fill-rule="nonzero"/></g></svg>