<?xml version="1.0" encoding="UTF-8"?>
<svg width="50px" version="1.0" viewBox="0 0 1050 1050" xmlns="http://www.w3.org/2000/svg" zoomAndPan="magnify">
<defs>
<clipPath id="c">
<path d="m545 233.36h498.81v527.64h-498.81z"/>
</clipPath>
<clipPath id="a">
<path d="m7 233.36h499v527.64h-499z"/>
</clipPath>
<clipPath id="b">
<path d="m260 308h531v560.61h-531z"/>
</clipPath>
</defs>
<g clip-path="url(#c)">
<path d="m1043.4 693.52c-1.7227-46.312-27.457-88.363-69.719-119.39-19.527-14.316-42.57-26.281-68.414-35.215 37.816-31.68 61.879-79.223 61.879-132.42 0-95.352-77.312-172.67-172.68-172.67-95.379 0-172.69 77.316-172.69 172.67 0 53.195 24.074 100.74 61.891 132.42-25.855 8.9336-48.875 20.898-68.391 35.215-42.262 31.016-67.961 73.078-69.742 119.39-0.625 16.258 1.168 29.945 4.9531 41.605 64.594 15.965 150.14 25.684 243.98 25.684 94.07 0 179.8-9.7695 244.46-25.793 3.4648-11.648 5.0742-25.312 4.4727-41.496" fill="#008900"/>
</g>
<g clip-path="url(#a)">
<path d="m505.16 693.52c-1.7227-46.312-27.445-88.363-69.73-119.39-19.516-14.316-42.559-26.281-68.402-35.215 37.812-31.68 61.875-79.223 61.875-132.42 0-95.352-77.309-172.67-172.68-172.67-95.375 0-172.69 77.316-172.69 172.67 0 53.195 24.074 100.74 61.891 132.42-25.859 8.9336-48.875 20.898-68.391 35.215-42.262 31.016-67.973 73.078-69.742 119.39-0.625 16.258 1.168 29.945 4.9531 41.605 64.594 15.965 150.14 25.684 243.98 25.684 94.074 0 179.8-9.7695 244.46-25.793 3.4688-11.648 5.0781-25.312 4.4766-41.496" fill="#008900"/>
</g>
<g clip-path="url(#b)">
<path d="m789.97 796.93c-1.832-49.238-29.188-93.953-74.129-126.92-20.742-15.223-45.234-27.941-72.715-37.453 40.199-33.656 65.773-84.195 65.773-140.75 0-101.36-82.18-183.55-183.55-183.55-101.4 0-183.58 82.184-183.58 183.55 0 56.551 25.586 107.09 65.785 140.76-27.48 9.5-51.961 22.219-72.691 37.441-44.93 32.969-72.262 77.684-74.152 126.92-0.65234 17.277 1.2539 31.84 5.2695 44.215 68.672 16.98 159.6 27.301 259.37 27.301 99.996 0 191.13-10.383 259.86-27.414 3.6836-12.398 5.3945-26.91 4.7656-44.102" fill="#0749e0"/>
</g>
</svg>
