<?xml version="1.0" encoding="UTF-8"?>
<svg width="50px" version="1.0" viewBox="0 0 1050 1050" xmlns="http://www.w3.org/2000/svg" zoomAndPan="magnify">
<defs>
<clipPath id="a">
<path d="m307.66 47h414.34v968h-414.34z"/>
</clipPath>
</defs>
<g clip-path="url(#a)">
<path d="m307.66 254.9c-0.015625 4.9258 0.14062 9.8438 0.47656 14.758 0.33594 4.9141 0.84766 9.8086 1.5312 14.684 0.6875 4.8789 1.5508 9.7227 2.5859 14.539 1.0352 4.8125 2.2422 9.5859 3.6211 14.312 1.3789 4.7266 2.9258 9.4023 4.6406 14.02 1.7148 4.6133 3.5898 9.1641 5.6328 13.648 2.043 4.4805 4.2422 8.8828 6.6016 13.207 2.3555 4.3242 4.8672 8.5586 7.5273 12.703 2.6641 4.1445 5.4727 8.1875 8.4258 12.129s6.043 7.7734 9.2734 11.492c3.2266 3.7188 6.5859 7.3203 10.074 10.797 3.4883 3.4805 7.0938 6.8281 10.824 10.051 3.7266 3.2188 7.5664 6.3008 11.516 9.2461 3.9492 2.9414 8 5.7422 12.152 8.3945 4.1523 2.6523 8.3906 5.1523 12.723 7.5039 4.332 2.3477 8.7422 4.5391 13.23 6.5703v484.8c0 2.2891 0.4375 4.4883 1.3125 6.6016 0.87891 2.1133 2.125 3.9805 3.7422 5.5977l69.051 69.008c0.39844 0.40234 0.81641 0.78125 1.2539 1.1406 0.4375 0.35547 0.89063 0.69141 1.3594 1.0078 0.46875 0.3125 0.95312 0.60547 1.4531 0.87109s1.0078 0.50781 1.5312 0.72266c0.52344 0.21875 1.0547 0.40625 1.5938 0.57031 0.54297 0.16406 1.0898 0.30078 1.6445 0.41406 0.55469 0.10938 1.1133 0.19141 1.6758 0.24609 0.5625 0.054687 1.125 0.085937 1.6914 0.085937 0.56641 0 1.1289-0.03125 1.6914-0.085937 0.5625-0.054688 1.1211-0.13672 1.6758-0.24609 0.55469-0.11328 1.1016-0.25 1.6445-0.41406 0.53906-0.16406 1.0703-0.35156 1.5938-0.57031 0.52344-0.21484 1.0312-0.45703 1.5312-0.72266s0.98047-0.55859 1.4531-0.87109c0.46875-0.31641 0.92188-0.65234 1.3594-1.0078 0.4375-0.35937 0.85547-0.73828 1.2539-1.1406l69.047-69.008c1.6211-1.6172 2.8672-3.4844 3.7422-5.5977 0.87891-2.1133 1.3164-4.3125 1.3164-6.6016v-69.012c0-2.2852-0.4375-4.4883-1.3164-6.6016-0.875-2.1133-2.1211-3.9766-3.7422-5.5938l-39.578-39.562 39.578-39.559c0.40234-0.39844 0.78125-0.81641 1.1406-1.2539s0.69531-0.89062 1.0078-1.3594c0.31641-0.46875 0.60547-0.95312 0.87109-1.4531 0.26953-0.49609 0.50781-1.0078 0.72656-1.5273 0.21484-0.52344 0.40625-1.0547 0.57031-1.5977 0.16406-0.53906 0.30078-1.0859 0.41016-1.6406 0.11328-0.55469 0.19531-1.1133 0.25-1.6758 0.054687-0.5625 0.082031-1.125 0.082031-1.6914 0-0.5625-0.027344-1.1289-0.082031-1.6875-0.054688-0.5625-0.13672-1.1211-0.25-1.6758-0.10938-0.55469-0.24609-1.1016-0.41016-1.6445-0.16406-0.53906-0.35547-1.0703-0.57031-1.5938-0.21875-0.51953-0.45703-1.0312-0.72656-1.5273-0.26562-0.5-0.55469-0.98438-0.87109-1.4531-0.3125-0.46875-0.64844-0.92188-1.0078-1.3594s-0.73828-0.85547-1.1406-1.2539l-39.578-39.562 39.578-39.559c0.40234-0.39844 0.78125-0.81641 1.1406-1.2539s0.69531-0.89062 1.0078-1.3594c0.31641-0.46875 0.60547-0.95312 0.87109-1.4531 0.26953-0.49609 0.50781-1.0078 0.72656-1.5273 0.21484-0.52344 0.40625-1.0547 0.57031-1.5977 0.16406-0.53906 0.30078-1.0859 0.41016-1.6406 0.11328-0.55469 0.19531-1.1133 0.25-1.6758 0.054687-0.5625 0.082031-1.125 0.082031-1.6914 0-0.5625-0.027344-1.1289-0.082031-1.6875-0.054688-0.5625-0.13672-1.1211-0.25-1.6758-0.10938-0.55469-0.24609-1.1016-0.41016-1.6445-0.16406-0.53906-0.35547-1.0703-0.57031-1.5938-0.21875-0.51953-0.45703-1.0312-0.72656-1.5273-0.26562-0.5-0.55469-0.98438-0.87109-1.4531-0.3125-0.46875-0.64844-0.92188-1.0078-1.3594s-0.73828-0.85547-1.1406-1.2539l-39.578-39.562 39.578-39.559c1.6211-1.6172 2.8672-3.4844 3.7422-5.5977 0.87891-2.1133 1.3164-4.3125 1.3164-6.6016v-105.24c2.8008-1.2852 5.5703-2.6289 8.3086-4.0391 2.7383-1.4062 5.4453-2.8711 8.1172-4.4023 2.6758-1.5273 5.3125-3.1133 7.918-4.7578 2.6016-1.6484 5.168-3.3477 7.6914-5.1094 2.5273-1.7617 5.0156-3.5742 7.4609-5.4453 2.4453-1.8711 4.8477-3.7969 7.207-5.7734 2.3594-1.9805 4.6758-4.0078 6.9453-6.0898 2.2695-2.082 4.4922-4.2109 6.6641-6.3906 2.1758-2.1797 4.3008-4.4102 6.375-6.6836s4.0977-4.5938 6.0664-6.9609c1.9727-2.3633 3.8906-4.7734 5.7539-7.2227 1.8633-2.4531 3.6719-4.9414 5.4219-7.4727 1.7539-2.5312 3.4492-5.1016 5.0859-7.707 1.6406-2.6094 3.2188-5.25 4.7383-7.9258 1.5195-2.6797 2.9766-5.3906 4.3789-8.1328 1.3984-2.7422 2.7344-5.5117 4.0078-8.3164 1.2773-2.8008 2.4883-5.6289 3.6367-8.4844 1.1484-2.8594 2.2344-5.7383 3.2539-8.6406 1.0195-2.9062 1.9766-5.832 2.8633-8.7773 0.89062-2.9492 1.7148-5.9141 2.4727-8.8984 0.75781-2.9844 1.4453-5.9805 2.0703-8.9961s1.1797-6.043 1.668-9.082c0.48828-3.0391 0.90625-6.0859 1.2617-9.1445 0.35156-3.0586 0.63281-6.1211 0.84766-9.1914 0.21875-3.0742 0.36328-6.1484 0.44141-9.2227 0.078125-3.0781 0.089844-6.1562 0.027344-9.2344-0.058594-3.0781-0.1875-6.1523-0.38281-9.2227-0.19531-3.0742-0.46094-6.1367-0.79297-9.1992-0.33594-3.0586-0.73438-6.1094-1.207-9.1523-0.46875-3.043-1.0039-6.0742-1.6094-9.0898-0.60547-3.0195-1.2773-6.0234-2.0156-9.0117-0.73828-2.9883-1.5469-5.957-2.418-8.9102-0.87109-2.9531-1.8086-5.8828-2.8086-8.7969-1.0039-2.9102-2.0703-5.7969-3.2031-8.6602-1.1289-2.8633-2.3242-5.6992-3.582-8.5078-1.2578-2.8086-2.5781-5.5898-3.9609-8.3398-1.3828-2.7539-2.8242-5.4727-4.3281-8.1562-1.5039-2.6875-3.0664-5.3398-4.6875-7.957-1.6211-2.6172-3.3008-5.1953-5.0391-7.7383-1.7344-2.543-3.5273-5.043-5.375-7.5039-1.8516-2.4648-3.7539-4.8828-5.7109-7.2617-1.9531-2.375-3.9648-4.707-6.0234-6.9961-2.0625-2.2891-4.1719-4.5273-6.332-6.7227-2.1602-2.1914-4.3711-4.3359-6.625-6.4336-2.2578-2.0938-4.5586-4.1367-6.9062-6.1289-2.3477-1.9922-4.7422-3.9336-7.1758-5.8164-2.4336-1.8867-4.9102-3.7188-7.4258-5.4922-2.5156-1.7773-5.0703-3.4961-7.6602-5.1562-2.5938-1.6602-5.2227-3.2656-7.8867-4.8086-2.6641-1.543-5.3633-3.0273-8.0938-4.4531-2.7305-1.4219-5.4883-2.7852-8.2812-4.0859-2.793-1.3008-5.6094-2.5391-8.457-3.7148-2.8477-1.1758-5.7188-2.2852-8.6133-3.332-2.8984-1.0469-5.8164-2.0312-8.7539-2.9453-2.9414-0.91797-5.8984-1.7695-8.8789-2.5547-2.9766-0.78516-5.9727-1.5039-8.9805-2.1562-3.0117-0.65234-6.0352-1.2344-9.0703-1.75-3.0352-0.51953-6.082-0.96484-9.1406-1.3477-3.0547-0.37891-6.1172-0.69531-9.1875-0.9375-3.0703-0.24609-6.1445-0.42188-9.2227-0.52734s-6.1562-0.14453-9.2344-0.11719c-3.082 0.03125-6.1602 0.12891-9.2344 0.29688s-6.1445 0.40234-9.2109 0.70703c-3.0625 0.30469-6.1211 0.67578-9.168 1.1172-3.0469 0.44141-6.0859 0.94922-9.1094 1.5273-3.0273 0.57422-6.0391 1.2188-9.0352 1.9258-2.9961 0.71094-5.9766 1.4883-8.9375 2.332-2.9609 0.84375-5.9062 1.75-8.8242 2.7266-2.9219 0.97266-5.8203 2.0117-8.6953 3.1172-2.875 1.1016-5.7266 2.2695-8.5508 3.5-2.8203 1.2305-5.6172 2.5234-8.3789 3.8789-2.7656 1.3555-5.5 2.7695-8.2031 4.2461-2.7031 1.4805-5.3711 3.0156-8.0039 4.6094-2.6328 1.5977-5.2305 3.25-7.7891 4.9648-2.5586 1.7109-5.082 3.4805-7.5625 5.3047s-4.918 3.6992-7.3164 5.6328c-2.3945 1.9336-4.75 3.918-7.0547 5.957-2.3086 2.0391-4.5703 4.125-6.7852 6.2656-2.2148 2.1367-4.3828 4.3242-6.5 6.5625-2.1172 2.2344-4.1836 4.5156-6.1992 6.8438-2.0156 2.3242-3.9805 4.6953-5.8906 7.1133-1.9062 2.4141-3.7617 4.8711-5.5625 7.3672-1.8008 2.5-3.543 5.0352-5.2305 7.6094-1.6875 2.5781-3.3164 5.1875-4.8867 7.8359s-3.0781 5.332-4.5312 8.0469c-1.4492 2.7148-2.8398 5.4609-4.168 8.2383s-2.5938 5.582-3.793 8.418c-1.2031 2.832-2.3438 5.6914-3.418 8.5781-1.0742 2.8828-2.0859 5.7891-3.0312 8.7188-0.94531 2.9297-1.8242 5.8789-2.6367 8.8477-0.81641 2.9688-1.5625 5.957-2.2422 8.957-0.67969 3.0039-1.293 6.0195-1.8398 9.0469-0.54688 3.0312-1.0234 6.0703-1.4336 9.1211-0.41016 3.0508-0.75 6.1094-1.0234 9.1758-0.27344 3.0664-0.48047 6.1367-0.61719 9.2109s-0.20312 6.1523-0.20312 9.2305zm258.93-86.262c0 1.6953-0.082032 3.3867-0.25 5.0742-0.16406 1.6836-0.41406 3.3594-0.74609 5.0234-0.32812 1.6602-0.74219 3.3047-1.2344 4.9258-0.49219 1.6211-1.0625 3.2148-1.7109 4.7812-0.64844 1.5664-1.375 3.0977-2.1719 4.5938-0.80078 1.4922-1.6719 2.9453-2.6133 4.3555-0.94141 1.4102-1.9531 2.7695-3.0273 4.0781-1.0781 1.3125-2.2148 2.5664-3.4141 3.7656s-2.4531 2.3359-3.7656 3.4102c-1.3086 1.0742-2.6719 2.0859-4.082 3.0273-1.4102 0.94141-2.8633 1.8125-4.3594 2.6094-1.4961 0.80078-3.0273 1.5234-4.5938 2.1719-1.5664 0.64844-3.1602 1.2188-4.7852 1.7109-1.6211 0.49219-3.2656 0.90625-4.9297 1.2344-1.6641 0.33203-3.3398 0.57812-5.0273 0.74609-1.6875 0.16797-3.3789 0.25-5.0742 0.25-1.6953 0-3.3867-0.082032-5.0781-0.25-1.6875-0.16797-3.3633-0.41406-5.0234-0.74609-1.6641-0.32812-3.3086-0.74219-4.9297-1.2344-1.625-0.49219-3.2188-1.0625-4.7852-1.7109-1.5703-0.64844-3.1016-1.3711-4.5938-2.1719-1.4961-0.79688-2.9492-1.668-4.3594-2.6094-1.4102-0.94141-2.7734-1.9531-4.082-3.0273-1.3125-1.0742-2.5664-2.2109-3.7656-3.4102-1.1992-1.1992-2.3398-2.4531-3.4141-3.7656-1.0742-1.3086-2.0859-2.668-3.0273-4.0781-0.94141-1.4102-1.8125-2.8633-2.6133-4.3555-0.80078-1.4961-1.5234-3.0273-2.1719-4.5938-0.64844-1.5664-1.2188-3.1602-1.7109-4.7812-0.49219-1.6211-0.90625-3.2656-1.2344-4.9258-0.33203-1.6641-0.58203-3.3398-0.74609-5.0234-0.16797-1.6875-0.25-3.3789-0.25-5.0742s0.082031-3.3867 0.25-5.0742c0.16406-1.6875 0.41406-3.3633 0.74609-5.0234 0.32812-1.6641 0.74219-3.3047 1.2344-4.9258 0.49219-1.625 1.0625-3.2188 1.7109-4.7852 0.64844-1.5664 1.3711-3.0977 2.1719-4.5898 0.80078-1.4961 1.6719-2.9492 2.6133-4.3555 0.94141-1.4102 1.9531-2.7695 3.0273-4.082 1.0742-1.3086 2.2148-2.5664 3.4141-3.7617 1.1992-1.1992 2.4531-2.3359 3.7656-3.4141 1.3086-1.0742 2.6719-2.082 4.082-3.0234 1.4102-0.94141 2.8633-1.8125 4.3594-2.6133 1.4922-0.79688 3.0234-1.5234 4.5938-2.1719 1.5664-0.64844 3.1602-1.2188 4.7852-1.7109 1.6211-0.49219 3.2656-0.90234 4.9297-1.2344 1.6602-0.32812 3.3359-0.57812 5.0273-0.74219 1.6875-0.16797 3.3789-0.25 5.0742-0.25 1.6953 0 3.3867 0.085938 5.0742 0.25391s3.3633 0.41797 5.0234 0.75c1.6641 0.33203 3.3047 0.74219 4.9297 1.2383 1.6211 0.49219 3.2148 1.0625 4.7812 1.7109 1.5664 0.65234 3.0977 1.375 4.5898 2.1758 1.4961 0.79688 2.9492 1.668 4.3594 2.6094s2.7695 1.9531 4.0781 3.0273c1.3125 1.0742 2.5664 2.2109 3.7656 3.4102 1.1992 1.1992 2.3359 2.4531 3.4102 3.7617 1.0781 1.3086 2.0859 2.668 3.0273 4.0781 0.94531 1.4102 1.8164 2.8594 2.6133 4.3555 0.80078 1.4922 1.5273 3.0234 2.1758 4.5859 0.64844 1.5664 1.2227 3.1602 1.7148 4.7812s0.90625 3.2617 1.2383 4.9258c0.33203 1.6602 0.58203 3.3359 0.75 5.0234 0.16797 1.6836 0.25391 3.375 0.25391 5.0703z" fill="#f30000"/>
</g>
</svg>
