<svg xmlns="http://www.w3.org/2000/svg" xmlns:xlink="http://www.w3.org/1999/xlink" width="1400" zoomAndPan="magnify" viewBox="0 0 1050 1049.999947" height="1400" preserveAspectRatio="xMidYMid meet" version="1.0"><defs><clipPath id="bf15503c19"><path d="M 39.4375 19 L 1010.6875 19 L 1010.6875 405 L 39.4375 405 Z M 39.4375 19 " clip-rule="nonzero"/></clipPath><clipPath id="342baa2fae"><path d="M 39.4375 403 L 1010.6875 403 L 1010.6875 1034 L 39.4375 1034 Z M 39.4375 403 " clip-rule="nonzero"/></clipPath><clipPath id="4b565ae489"><path d="M 39.4375 403 L 1010.6875 403 L 1010.6875 1034 L 39.4375 1034 Z M 39.4375 403 " clip-rule="nonzero"/></clipPath><clipPath id="5631c33e37"><path d="M 39.4375 699 L 1010.6875 699 L 1010.6875 1034 L 39.4375 1034 Z M 39.4375 699 " clip-rule="nonzero"/></clipPath></defs><g clip-path="url(#bf15503c19)"><path fill="#f8dd4e" d="M 1010.488281 404.445312 C 1010.527344 403.40625 1010.609375 402.414062 1010.609375 401.335938 L 554.464844 31.039062 C 536.097656 16.144531 512.355469 16.160156 494.03125 31.082031 L 39.519531 401.335938 C 39.53125 402.414062 39.605469 403.40625 39.652344 404.445312 L 1010.503906 404.445312 " fill-opacity="1" fill-rule="nonzero"/></g><g clip-path="url(#342baa2fae)"><path fill="#f8dd4e" d="M 39.53125 403.25 L 39.53125 988.316406 C 39.53125 1013.371094 59.820312 1033.644531 84.894531 1033.644531 L 965.273438 1033.644531 C 990.292969 1033.644531 1010.609375 1013.371094 1010.609375 988.316406 L 1010.609375 403.25 L 39.519531 403.25 " fill-opacity="1" fill-rule="nonzero"/></g><path fill="#496592" d="M 44.039062 403.25 L 494.050781 699.585938 C 512.335938 711.65625 536.078125 711.65625 554.445312 699.625 L 1006.046875 403.25 L 44.039062 403.25 " fill-opacity="1" fill-rule="nonzero"/><path fill="#b9d8f2" d="M 810.304688 960.675781 L 239.824219 960.675781 C 223.289062 960.675781 209.863281 947.253906 209.863281 930.722656 L 209.863281 157.375 C 209.863281 140.847656 223.289062 127.421875 239.824219 127.421875 L 725.648438 127.421875 L 840.261719 276.988281 L 840.261719 930.722656 C 840.261719 947.253906 826.835938 960.675781 810.304688 960.675781 " fill-opacity="1" fill-rule="nonzero"/><path fill="#98b7e4" d="M 725.410156 127.421875 L 725.410156 276.988281 L 840.261719 276.988281 Z M 725.410156 127.421875 " fill-opacity="1" fill-rule="nonzero"/><path stroke-linecap="round" transform="matrix(0.39838, 0, 0, -0.398304, -321.892122, 1373.557125)" fill="none" stroke-linejoin="round" d="M 1653.704319 2643.803542 L 2065.695428 2643.803542 " stroke="#496592" stroke-width="50" stroke-opacity="1" stroke-miterlimit="10"/><path stroke-linecap="round" transform="matrix(0.39838, 0, 0, -0.398304, -321.892122, 1373.557125)" fill="none" stroke-linejoin="round" d="M 1653.704319 2402.399144 L 2593.801413 2402.399144 " stroke="#496592" stroke-width="50" stroke-opacity="1" stroke-miterlimit="10"/><path stroke-linecap="round" transform="matrix(0.39838, 0, 0, -0.398304, -321.892122, 1373.557125)" fill="none" stroke-linejoin="round" d="M 1653.704319 2161.004552 L 2593.801413 2161.004552 " stroke="#496592" stroke-width="50" stroke-opacity="1" stroke-miterlimit="10"/><path stroke-linecap="round" transform="matrix(0.39838, 0, 0, -0.398304, -321.892122, 1373.557125)" fill="none" stroke-linejoin="round" d="M 1653.704319 1919.698226 L 2593.801413 1919.698226 " stroke="#496592" stroke-width="50" stroke-opacity="1" stroke-miterlimit="10"/><path stroke-linecap="round" transform="matrix(0.39838, 0, 0, -0.398304, -321.892122, 1373.557125)" fill="none" stroke-linejoin="round" d="M 1653.704319 1678.195755 L 2593.801413 1678.195755 " stroke="#496592" stroke-width="50" stroke-opacity="1" stroke-miterlimit="10"/><path stroke-linecap="round" transform="matrix(0.39838, 0, 0, -0.398304, -321.892122, 1373.557125)" fill="none" stroke-linejoin="round" d="M 1653.704319 1436.899236 L 2593.801413 1436.899236 " stroke="#496592" stroke-width="50" stroke-opacity="1" stroke-miterlimit="10"/><g clip-path="url(#4b565ae489)"><path fill="#f8dd4e" d="M 1006.066406 403.25 L 554.464844 699.625 C 536.097656 711.65625 512.355469 711.65625 494.03125 699.585938 L 44.019531 403.25 L 39.53125 403.25 L 39.53125 988.316406 C 39.53125 1013.371094 59.820312 1033.644531 84.894531 1033.644531 L 965.273438 1033.644531 C 990.292969 1033.644531 1010.609375 1013.371094 1010.609375 988.316406 L 1010.609375 403.25 L 1006.066406 403.25 " fill-opacity="1" fill-rule="nonzero"/></g><g clip-path="url(#5631c33e37)"><path fill="#ed547c" d="M 554.464844 699.625 C 536.097656 711.65625 512.355469 711.65625 494.03125 699.585938 L 39.519531 988.316406 C 39.53125 1013.371094 59.820312 1033.644531 84.894531 1033.644531 L 965.273438 1033.644531 C 990.292969 1033.644531 1010.609375 1013.371094 1010.609375 988.316406 L 554.464844 699.625 " fill-opacity="1" fill-rule="nonzero"/></g></svg>