<svg xmlns="http://www.w3.org/2000/svg" xmlns:xlink="http://www.w3.org/1999/xlink"  zoomAndPan="magnify" viewBox="0 0 1050 1049.999947"  preserveAspectRatio="xMidYMid meet" version="1.0"><path fill="#000000" d="M 734.40625 268.609375 C 670.492188 238.617188 599.566406 218.375 525.019531 218.375 C 412.304688 218.375 307.867188 264.644531 223.367188 320.964844 C 99.640625 403.449219 19.277344 506.65625 19.277344 506.65625 C 9.667969 519.035156 9.667969 536.339844 19.277344 548.71875 C 19.277344 548.71875 99.640625 651.921875 223.367188 734.40625 C 232.90625 740.769531 242.6875 746.992188 252.707031 753.011719 L 27.316406 979.667969 C 14.011719 993.039062 14.082031 1014.71875 27.453125 1028.023438 C 40.824219 1041.324219 62.503906 1041.257812 75.808594 1027.886719 L 315.628906 786.761719 C 379.542969 816.753906 450.46875 836.996094 525.019531 836.996094 C 637.730469 836.996094 742.167969 790.730469 826.671875 734.40625 C 950.394531 651.921875 1030.757812 548.71875 1030.757812 548.71875 C 1040.367188 536.339844 1040.367188 519.035156 1030.757812 506.65625 C 1030.757812 506.65625 950.394531 403.449219 826.671875 320.964844 C 817.128906 314.605469 807.347656 308.378906 797.328125 302.363281 L 1028.023438 70.371094 C 1041.324219 57 1041.257812 35.316406 1027.886719 22.015625 C 1014.515625 8.710938 992.832031 8.78125 979.53125 22.152344 Z M 747.574219 352.390625 L 692.140625 408.132812 C 716.113281 441.851562 730.199219 483.128906 730.199219 527.6875 C 730.199219 641.492188 638.210938 733.824219 525.019531 733.824219 C 480.734375 733.824219 439.730469 719.703125 406.183594 695.695312 L 367.164062 734.921875 C 416.238281 755.335938 469.414062 768.605469 525.019531 768.605469 C 623.710938 768.605469 714.742188 726.816406 788.710938 677.503906 C 869.757812 623.507812 930.628906 559.933594 959.046875 527.6875 C 930.628906 495.4375 869.757812 431.898438 788.710938 377.867188 C 775.511719 369.082031 761.800781 360.53125 747.574219 352.390625 Z M 682.871094 320.453125 C 633.800781 300.035156 580.625 286.769531 525.019531 286.769531 C 426.324219 286.769531 335.292969 328.558594 261.324219 377.867188 C 180.277344 431.898438 119.40625 495.4375 90.988281 527.6875 C 119.40625 559.933594 180.277344 623.507812 261.324219 677.503906 C 274.527344 686.292969 288.238281 694.839844 302.464844 702.980469 L 357.898438 647.238281 C 333.925781 613.519531 319.835938 572.246094 319.835938 527.6875 C 319.835938 413.878906 411.828125 321.546875 525.019531 321.546875 C 569.304688 321.546875 610.304688 335.671875 643.851562 359.675781 Z M 642.828125 457.71875 L 617.523438 483.160156 C 623.984375 496.636719 627.609375 511.75 627.609375 527.6875 C 627.609375 546.5625 612.289062 561.882812 593.414062 561.882812 C 578.742188 561.882812 566.226562 552.617188 561.371094 539.621094 L 455.359375 646.246094 C 475.773438 658.421875 499.574219 665.429688 525.019531 665.429688 C 600.558594 665.429688 661.808594 603.671875 661.808594 527.6875 C 661.808594 502.140625 654.898438 478.238281 642.828125 457.71875 Z M 594.679688 409.160156 C 574.261719 396.949219 550.460938 389.941406 525.019531 389.941406 C 449.476562 389.941406 388.230469 451.734375 388.230469 527.6875 C 388.230469 553.230469 395.136719 577.136719 407.210938 597.652344 L 513.253906 491.027344 C 500.15625 486.238281 490.820312 473.65625 490.820312 458.914062 C 490.820312 440.039062 506.140625 424.71875 525.019531 424.71875 C 540.851562 424.71875 555.832031 428.308594 569.203125 434.738281 Z M 594.679688 409.160156 " fill-opacity="1" fill-rule="evenodd"/></svg>