<svg xmlns="http://www.w3.org/2000/svg" width="35px" height="25px" xmlns:xlink="http://www.w3.org/1999/xlink" zoomAndPan="magnify" viewBox="0 0 1050 1049.999947"  preserveAspectRatio="xMidYMid meet" version="1.0"><path fill="#000000" d="M 536.28125 310.15625 C 423.394531 310.15625 318.792969 356.238281 234.136719 412.355469 C 110.144531 494.546875 29.667969 597.363281 29.667969 597.363281 C 19.9375 609.765625 19.9375 627.238281 29.667969 639.640625 C 29.667969 639.640625 110.144531 742.457031 234.136719 824.648438 C 318.792969 880.769531 423.394531 926.847656 536.28125 926.847656 C 649.171875 926.847656 753.769531 880.769531 838.429688 824.648438 C 962.417969 742.457031 1042.898438 639.640625 1042.898438 639.640625 C 1052.625 627.238281 1052.625 609.765625 1042.898438 597.363281 C 1042.898438 597.363281 962.417969 494.546875 838.429688 412.355469 C 753.769531 356.238281 649.171875 310.15625 536.28125 310.15625 Z M 536.28125 378.679688 C 635.191406 378.679688 726.394531 420.304688 800.535156 469.433594 C 881.5625 523.15625 942.476562 586.332031 971.015625 618.503906 C 942.476562 650.675781 881.5625 713.851562 800.535156 767.570312 C 726.394531 816.703125 635.191406 858.328125 536.28125 858.328125 C 437.371094 858.328125 346.167969 816.703125 272.027344 767.570312 C 191 713.851562 130.085938 650.675781 101.546875 618.503906 C 130.085938 586.332031 191 523.15625 272.027344 469.433594 C 346.167969 420.304688 437.371094 378.679688 536.28125 378.679688 Z M 536.28125 412.941406 C 422.84375 412.941406 330.71875 505.066406 330.71875 618.503906 C 330.71875 731.941406 422.84375 824.066406 536.28125 824.066406 C 649.71875 824.066406 741.847656 731.941406 741.847656 618.503906 C 741.847656 505.066406 649.71875 412.941406 536.28125 412.941406 Z M 536.28125 481.460938 C 611.929688 481.460938 673.324219 542.855469 673.324219 618.503906 C 673.324219 694.152344 611.929688 755.546875 536.28125 755.546875 C 460.632812 755.546875 399.238281 694.152344 399.238281 618.503906 C 399.238281 542.855469 460.632812 481.460938 536.28125 481.460938 Z M 536.28125 584.242188 C 555.195312 584.242188 570.542969 599.589844 570.542969 618.503906 C 570.542969 637.414062 585.890625 652.765625 604.804688 652.765625 C 623.714844 652.765625 639.066406 637.414062 639.066406 618.503906 C 639.066406 561.769531 593.019531 515.722656 536.28125 515.722656 C 517.371094 515.722656 502.019531 531.070312 502.019531 549.980469 C 502.019531 568.894531 517.371094 584.242188 536.28125 584.242188 Z M 536.28125 584.242188 " fill-opacity="1" fill-rule="evenodd"/></svg>